<svg width="13" height="13" viewBox="0 0 13 13" fill="none" xmlns="http://www.w3.org/2000/svg">
<path d="M9.5377 0.557313C9.46757 0.487486 9.37257 0.448263 9.27352 0.448242H4.62304C4.52399 0.448263 4.42899 0.487486 4.35886 0.557313L1.07045 3.83991C1.0005 3.90991 0.961203 4.00475 0.961182 4.10362V8.74588C0.961203 8.84475 1.0005 8.93959 1.07045 9.00959L4.35886 12.2922C4.42899 12.362 4.52399 12.4012 4.62304 12.4013H9.27352C9.37257 12.4012 9.46757 12.362 9.5377 12.2922L12.8261 9.00959C12.8961 8.93959 12.9354 8.84475 12.9354 8.74588V4.10362C12.9354 4.00475 12.8961 3.90991 12.8261 3.83991L9.5377 0.557313ZM6.94828 3.4365C7.34867 3.4365 7.66224 3.78164 7.62183 4.17982L7.35989 6.79978C7.35109 6.9027 7.30391 6.99858 7.22769 7.06845C7.15147 7.13831 7.05176 7.17708 6.94828 7.17708C6.8448 7.17708 6.74508 7.13831 6.66886 7.06845C6.59264 6.99858 6.54547 6.9027 6.53667 6.79978L6.27473 4.17982C6.26532 4.08587 6.27574 3.99099 6.3053 3.90129C6.33486 3.8116 6.38292 3.72908 6.44637 3.65905C6.50982 3.58903 6.58727 3.53305 6.67371 3.49471C6.76016 3.45638 6.85369 3.43655 6.94828 3.4365ZM6.94978 7.91888C7.14826 7.91888 7.33861 7.99759 7.47896 8.13769C7.61931 8.27779 7.69816 8.46781 7.69816 8.66594C7.69816 8.86407 7.61931 9.05409 7.47896 9.19419C7.33861 9.3343 7.14826 9.413 6.94978 9.413C6.75129 9.413 6.56094 9.3343 6.42059 9.19419C6.28024 9.05409 6.20139 8.86407 6.20139 8.66594C6.20139 8.46781 6.28024 8.27779 6.42059 8.13769C6.56094 7.99759 6.75129 7.91888 6.94978 7.91888Z" fill="#1B1F3B"/>
</svg>
