<svg width="24" height="18" viewBox="0 0 24 18" fill="none" xmlns="http://www.w3.org/2000/svg">
<path d="M0.314972 4.15477C0.0786245 3.89633 -0.0299845 3.56805 0.0126828 3.24109C0.0553501 2.91413 0.245856 2.61483 0.542914 2.40805C0.686877 2.30469 2.05453 1.40549 4.21398 0.940391C6.37343 0.475287 9.38466 0.392602 12.8038 2.34604C17.6266 5.11599 21.6216 2.43906 21.6575 2.40805C21.8056 2.30625 21.9756 2.23058 22.1576 2.18536C22.3396 2.14014 22.5302 2.12625 22.7185 2.14448C22.9068 2.16272 23.089 2.21272 23.2549 2.29164C23.4207 2.37056 23.5669 2.47684 23.685 2.60443C23.8032 2.73201 23.891 2.8784 23.9435 3.03523C23.996 3.19206 24.0121 3.35626 23.991 3.51846C23.9698 3.68066 23.9118 3.83768 23.8202 3.98055C23.7286 4.12342 23.6052 4.24935 23.4571 4.35115C23.3131 4.45451 21.9455 5.35371 19.786 5.81881C18.9744 5.99684 18.1402 6.08711 17.3027 6.08754C15.5391 6.08754 13.4276 5.69478 11.1962 4.41316C6.37343 1.64321 2.37845 4.32014 2.34246 4.35115C2.04247 4.55477 1.66143 4.64834 1.28192 4.61158C0.902401 4.57482 0.554989 4.4107 0.314972 4.15477ZM21.6575 8.19601C21.6216 8.22701 17.6266 10.9039 12.8038 8.13399C9.38466 6.18056 6.24146 6.28392 4.21398 6.72835C2.1865 7.17278 0.686877 8.09265 0.542914 8.19601C0.39482 8.2978 0.27145 8.42374 0.179847 8.56661C0.0882447 8.70948 0.0302031 8.8665 0.00903672 9.0287C-0.0121297 9.1909 0.00399367 9.3551 0.056486 9.51193C0.108978 9.66876 0.196812 9.81514 0.314972 9.94273C0.433131 10.0703 0.579303 10.1766 0.745141 10.2555C0.910979 10.3344 1.09324 10.3844 1.28151 10.4027C1.46977 10.4209 1.66037 10.407 1.84241 10.3618C2.02445 10.3166 2.19436 10.2409 2.34246 10.1391C2.37845 10.1081 6.37343 7.43117 11.1962 10.2011C13.4276 11.4827 15.5391 11.8755 17.3027 11.8755C18.1402 11.8751 18.9744 11.7848 19.786 11.6068C21.9455 11.1417 23.3131 10.2425 23.4571 10.1391C23.7562 9.93352 23.9482 9.63399 23.991 9.30642C24.0337 8.97884 23.9237 8.65006 23.685 8.39239C23.4464 8.13471 23.0987 7.96927 22.7185 7.93244C22.3383 7.89561 21.9566 7.99042 21.6575 8.19601ZM21.6575 13.984C21.6216 14.015 17.6266 16.6919 12.8038 13.922C9.38466 11.9685 6.24146 12.0719 4.21398 12.5163C2.1865 12.9607 0.686877 13.8806 0.542914 13.984C0.243825 14.1896 0.0517844 14.4891 0.00903695 14.8167C-0.0337105 15.1442 0.0763375 15.473 0.314972 15.7307C0.553606 15.9884 0.901278 16.1538 1.28151 16.1906C1.66173 16.2275 2.04337 16.1327 2.34246 15.9271C2.37845 15.8961 6.37343 13.2191 11.1962 15.9891C13.4276 17.2707 15.5391 17.6635 17.3027 17.6635C18.1402 17.663 18.9744 17.5728 19.786 17.3947C21.9455 16.9296 23.3131 16.0304 23.4571 15.9271C23.7562 15.7215 23.9482 15.4219 23.991 15.0944C24.0337 14.7668 23.9237 14.438 23.685 14.1803C23.4464 13.9227 23.0987 13.7572 22.7185 13.7204C22.3383 13.6836 21.9566 13.7784 21.6575 13.984Z" fill="#1B1F3B"/>
</svg>
