<svg width="30" height="17" viewBox="0 0 30 17" fill="none" xmlns="http://www.w3.org/2000/svg">
<path d="M8 2H3.33333C2.59695 2 2 2.58201 2 3.3V13.7C2 14.418 2.59695 15 3.33333 15H8" stroke="#1B1F3B" stroke-width="2.5" stroke-linecap="round" stroke-linejoin="round"/>
<path d="M20 15H24.6667C25.4031 15 26 14.418 26 13.7V3.3C26 2.58201 25.4031 2 24.6667 2H20" stroke="#1B1F3B" stroke-width="2.5" stroke-linecap="round" stroke-linejoin="round"/>
<path d="M14.0013 2L10.6667 8.50078H17.336L14 15" stroke="#1B1F3B" stroke-width="2.5" stroke-linecap="round" stroke-linejoin="round"/>
<path d="M28.5833 7.15002H28.6667C28.7003 7.15002 28.7228 7.16212 28.7369 7.17578C28.7439 7.18267 28.7472 7.18851 28.7485 7.19145C28.7493 7.19346 28.75 7.19542 28.75 7.20002V9.80002C28.75 9.80463 28.7493 9.80659 28.7485 9.80859C28.7472 9.81154 28.7439 9.81738 28.7369 9.82427C28.7228 9.83793 28.7003 9.85002 28.6667 9.85002H28.5833V7.15002Z" fill="#002765" stroke="#1B1F3B" stroke-width="2.5"/>
</svg>
