<svg width="35" height="21" viewBox="0 0 35 21" fill="none" xmlns="http://www.w3.org/2000/svg">
<path d="M33.4088 20.1104L1.59118 20.1104C1.16957 20.1092 0.765601 19.9466 0.467478 19.6584C0.169355 19.3701 0.00129522 18.9795 -7.08614e-08 18.5719L-8.49203e-07 1.65179C0.00129301 1.24404 0.169322 0.853338 0.467417 0.564926C0.765513 0.276516 1.16948 0.11381 1.59118 0.112307L33.4088 0.112305C33.8305 0.113808 34.2345 0.276515 34.5326 0.564925C34.8307 0.853337 34.9987 1.24404 35 1.65179L35 18.5738C34.9987 18.9814 34.8307 19.372 34.5325 19.6603C34.2344 19.9485 33.8304 20.1111 33.4088 20.1123" fill="#5E76A4"/>
<path d="M30.2363 18.5767L4.78135 18.5767C4.77902 17.7615 4.44309 16.9804 3.84697 16.404C3.25085 15.8276 2.44301 15.5028 1.59998 15.5005L1.59997 4.72794C2.4431 4.72544 3.25094 4.40041 3.84703 3.82386C4.44312 3.24731 4.77902 2.46612 4.78135 1.65088L30.2363 1.65088C30.2386 2.46611 30.5745 3.24731 31.1706 3.82386C31.7666 4.40041 32.5745 4.72544 33.4176 4.72794L33.4176 15.5005C32.5747 15.503 31.767 15.8279 31.1709 16.4043C30.5748 16.9806 30.2388 17.7616 30.2363 18.5767Z" fill="#6D80C5"/>
<path d="M17.5089 3.19412C21.0232 3.19412 23.8726 6.29302 23.8726 10.1166C23.8726 13.9401 21.0242 17.0381 17.5089 17.0381C13.9935 17.0381 11.1451 13.9392 11.1451 10.1166C11.1451 6.29397 13.9935 3.19412 17.5089 3.19412Z" fill="#303863"/>
<path d="M7.96374 8.57821C8.27844 8.57821 8.58608 8.66845 8.84775 8.8375C9.10942 9.00656 9.31336 9.24684 9.43379 9.52797C9.55423 9.8091 9.58574 10.1184 9.52434 10.4169C9.46295 10.7153 9.3114 10.9895 9.08887 11.2046C8.86634 11.4198 8.58282 11.5663 8.27416 11.6257C7.9655 11.6851 7.64557 11.6546 7.35482 11.5382C7.06407 11.4217 6.81556 11.2245 6.64072 10.9715C6.46588 10.7185 6.37256 10.421 6.37256 10.1167C6.37256 9.7087 6.5402 9.31737 6.8386 9.02884C7.13701 8.74031 7.54173 8.57821 7.96374 8.57821Z" fill="#C9DB31"/>
<path d="M27.0549 8.57821C27.3696 8.57821 27.6773 8.66845 27.9389 8.8375C28.2006 9.00656 28.4045 9.24684 28.525 9.52797C28.6454 9.8091 28.6769 10.1184 28.6155 10.4169C28.5541 10.7153 28.4026 10.9895 28.1801 11.2046C27.9575 11.4198 27.674 11.5663 27.3653 11.6257C27.0567 11.6851 26.7368 11.6546 26.446 11.5382C26.1553 11.4217 25.9067 11.2245 25.7319 10.9715C25.5571 10.7185 25.4637 10.421 25.4637 10.1167C25.4636 9.91466 25.5047 9.71455 25.5846 9.52783C25.6645 9.34111 25.7817 9.17145 25.9295 9.02856C26.0773 8.88567 26.2527 8.77235 26.4459 8.69507C26.639 8.6178 26.8459 8.57809 27.0549 8.57821Z" fill="#C9DB31"/>
<path d="M18.3045 9.34702L16.7133 9.34702C16.236 9.34702 15.9177 9.03933 15.9177 8.57777C15.9177 8.11621 16.236 7.80849 16.7133 7.80849L19.1001 7.80849C19.5774 7.80849 19.8957 7.5008 19.8957 7.03924C19.902 6.93663 19.8857 6.83388 19.8479 6.73779C19.8102 6.6417 19.7518 6.55445 19.6766 6.48177C19.6014 6.40909 19.5112 6.35263 19.4118 6.31613C19.3124 6.27962 19.2062 6.26388 19.1001 6.26996L18.3045 6.26996C18.3045 5.80935 17.9862 5.50164 17.5089 5.50164C17.0315 5.50164 16.7133 5.80935 16.7133 6.26996C16.0803 6.26996 15.4732 6.51312 15.0256 6.94591C14.578 7.37871 14.3265 7.9657 14.3265 8.57777C14.3265 9.18983 14.578 9.77683 15.0256 10.2096C15.4732 10.6424 16.0803 10.8856 16.7133 10.8856L18.3045 10.8856C18.7818 10.8856 19.1001 11.1933 19.1001 11.6548C19.1001 12.1164 18.7818 12.4232 18.3045 12.4232L15.9177 12.4232C15.4404 12.4232 15.1231 12.7308 15.1231 13.1924C15.1231 13.654 15.4404 13.9617 15.9177 13.9617L16.7133 13.9617C16.7133 14.4232 17.0315 14.731 17.5089 14.731C17.9862 14.731 18.3045 14.4232 18.3045 13.9617C18.6219 13.9679 18.9375 13.9128 19.2326 13.7997C19.5278 13.6865 19.7966 13.5176 20.0234 13.3027C20.2502 13.0878 20.4303 12.8313 20.5533 12.5483C20.6763 12.2653 20.7397 11.9614 20.7397 11.6544C20.7397 11.3474 20.6763 11.0434 20.5533 10.7604C20.4303 10.4774 20.2502 10.2209 20.0234 10.006C19.7966 9.79115 19.5278 9.6222 19.2326 9.50905C18.9375 9.39589 18.6219 9.34079 18.3045 9.34702Z" fill="white"/>
</svg>
