<svg width="28" height="36" viewBox="0 0 28 36" fill="none" xmlns="http://www.w3.org/2000/svg">
<path d="M24.4997 12.4837H22.3993V8.44063C22.418 7.34369 22.2164 6.25397 21.8063 5.23447C21.3962 4.21497 20.7856 3.28592 20.0098 2.50103C19.2341 1.71615 18.3086 1.09101 17.2868 0.66175C16.265 0.232494 15.1673 0.00764064 14.057 0.000191366C12.9467 -0.00725791 11.846 0.202845 10.8184 0.618351C9.79082 1.03386 8.8568 1.64652 8.07033 2.42092C7.28386 3.19533 6.66055 4.1161 6.23645 5.13C5.81234 6.14391 5.59586 7.23082 5.5995 8.32791V12.4776H3.50031C2.57192 12.4802 1.68237 12.8461 1.02636 13.4952C0.370352 14.1444 0.00130805 15.0239 0 15.9412V32.5413C0.0026174 33.4578 0.372239 34.336 1.02811 34.9841C1.68398 35.6322 2.57277 35.9974 3.50031 36H24.4997C25.4272 35.9974 26.316 35.6322 26.9719 34.9841C27.6278 34.336 27.9974 33.4578 28 32.5413V15.9412C27.9971 15.0249 27.6273 14.147 26.9715 13.4992C26.3156 12.8514 25.427 12.4863 24.4997 12.4837ZM15.225 23.274V29.2235C15.2271 29.5382 15.108 29.842 14.8918 30.0732C14.6756 30.3043 14.3785 30.4456 14.0608 30.4683C13.8949 30.4762 13.7291 30.4508 13.5735 30.3936C13.4178 30.3363 13.2756 30.2485 13.1554 30.1353C13.0351 30.0221 12.9394 29.8859 12.874 29.7351C12.8086 29.5843 12.7749 29.4219 12.775 29.2578V23.2728C12.2055 22.9989 11.7468 22.5425 11.4738 21.9779C11.2008 21.4132 11.1295 20.7738 11.2717 20.1641C11.4139 19.5543 11.7611 19.0101 12.2566 18.6205C12.7521 18.2308 13.3667 18.0187 14 18.0187C14.6333 18.0187 15.2479 18.2308 15.7434 18.6205C16.2389 19.0101 16.5861 19.5543 16.7283 20.1641C16.8705 20.7738 16.7992 21.4132 16.5262 21.9779C16.2532 22.5425 15.7945 22.9989 15.225 23.2728V23.274ZM19.9504 12.4837H8.04712V8.33281C8.04712 6.7731 8.67416 5.27727 9.79031 4.17439C10.9065 3.0715 12.4203 2.45191 13.9988 2.45191C15.5772 2.45191 17.0911 3.0715 18.2072 4.17439C19.3234 5.27727 19.9504 6.7731 19.9504 8.33281V12.4837Z" fill="#6D80C5"/>
</svg>
