<svg width="32" height="34" viewBox="0 0 32 34" fill="none" xmlns="http://www.w3.org/2000/svg">
<g style="mix-blend-mode:multiply" opacity="0.14">
<path d="M24.2007 17.3274L23.2255 18.3622L14.0801 3.34602C13.5486 2.47332 11.4384 0.329521 10.4603 0.619956C7.24915 1.56989 4.34143 3.3412 2.02441 5.75888C1.31776 6.4966 2.25454 9.35543 2.78625 10.2251L11.9319 25.2373L10.5683 25.6321C10.5449 25.6389 10.5233 25.651 10.5053 25.6675C10.4873 25.6839 10.4733 25.7043 10.4644 25.7271C10.4556 25.7498 10.452 25.7743 10.4541 25.7986C10.4563 25.823 10.4639 25.8465 10.4766 25.8674C10.544 25.9769 10.6393 26.0667 10.7527 26.1275C10.8662 26.1883 10.9936 26.218 11.1223 26.2135L12.5004 26.1688L14.929 30.1502C15.6484 31.3319 17.7218 33.1141 19.0869 32.8839C22.1447 32.3677 24.8874 30.6967 26.7485 28.2162C27.5784 27.109 26.9455 24.45 26.2263 23.2653L23.7977 19.2839L24.4689 18.0793C24.5316 17.9668 24.5634 17.8397 24.561 17.7109C24.5586 17.5822 24.522 17.4563 24.4551 17.3462C24.4418 17.3253 24.4238 17.3078 24.4026 17.2951C24.3813 17.2824 24.3573 17.2748 24.3326 17.273C24.3079 17.2711 24.2831 17.2751 24.2602 17.2846C24.2373 17.294 24.2169 17.3087 24.2007 17.3274Z" fill="#525252"/>
</g>
<path d="M4.39772 6.13877C6.71419 3.72088 9.62164 1.94951 12.8326 0.999778C13.8127 0.709484 15.9229 2.85328 16.4525 3.72585L28.5939 23.6558C29.3133 24.8376 29.9472 27.4966 29.1161 28.6067C27.2547 31.0867 24.5121 32.7572 21.4545 33.2734C20.0904 33.5037 18.0171 31.7215 17.2966 30.5397L5.15523 10.6097C4.62692 9.73423 3.69108 6.87649 4.39772 6.13877Z" fill="#B0B721"/>
<path d="M4.97749 6.65292C7.18777 4.34658 9.96151 2.6568 13.0247 1.7505C13.9597 1.47409 15.9726 3.51878 16.4809 4.35074L28.0637 23.364C28.7509 24.4913 29.3552 27.0289 28.5631 28.0846C26.7874 30.451 24.1707 32.045 21.2534 32.5373C19.9513 32.7569 17.9735 31.0566 17.2873 29.9293L5.70445 10.9161C5.19616 10.0842 4.30231 7.35674 4.97749 6.65292Z" fill="#CADC31"/>
<path d="M26.0866 19.8192L26.8409 18.4687C26.9037 18.3561 26.9356 18.2289 26.9332 18.1C26.9307 17.9711 26.8942 17.8451 26.8272 17.7349C26.8145 17.7139 26.7972 17.6962 26.7765 17.6831C26.7558 17.6699 26.7324 17.6617 26.708 17.6592C26.6836 17.6566 26.659 17.6597 26.636 17.6682C26.613 17.6767 26.5923 17.6904 26.5755 17.7083L25.4929 18.8503L26.0866 19.8192Z" fill="#B0B721"/>
<path d="M15.0433 26.5476L13.4943 26.5974C13.3657 26.6018 13.2382 26.5722 13.1248 26.5114C13.0114 26.4506 12.9161 26.3608 12.8487 26.2512C12.836 26.2303 12.8283 26.2068 12.8262 26.1825C12.8241 26.1582 12.8276 26.1337 12.8365 26.111C12.8453 26.0882 12.8593 26.0678 12.8774 26.0513C12.8954 26.0349 12.917 26.0228 12.9404 26.016L14.4503 25.5793L15.0433 26.5476Z" fill="#B0B721"/>
<path d="M20.8405 12.3427L20.7766 12.2379C19.0795 9.45317 17.2121 6.77881 17.2121 6.77881C17.4383 7.87694 17.7729 8.94991 18.211 9.98195L19.8733 12.7061C20.2005 12.6017 20.5251 12.4781 20.8405 12.3427Z" fill="#45474A"/>
<path d="M20.0682 13.0308L21.616 15.5704C22.3634 16.3936 23.1569 17.1739 23.9925 17.9074C23.9925 17.9074 22.656 15.3715 21.0911 12.7595C20.7557 12.8664 20.4136 12.9527 20.0682 13.0308Z" fill="#45474A"/>
<path d="M10.8048 18.4566L10.74 18.3518C9.04279 15.567 7.52728 12.6807 7.52728 12.6807C8.39966 13.3853 9.19995 14.1748 9.91638 15.0376L11.5777 17.7617C11.3277 18.0079 11.0728 18.2398 10.8048 18.4566Z" fill="#45474A"/>
<path d="M11.7695 18.0862L13.3174 20.6268C13.7062 21.6688 14.0358 22.7319 14.3045 23.8111C14.3045 23.8111 12.6642 21.4606 11.0597 18.8699C11.3068 18.6214 11.5419 18.3571 11.7695 18.0862Z" fill="#45474A"/>
<path d="M21.7572 16.5181L25.2522 19.9094C25.2522 19.9094 25.0865 22.1142 21.3138 24.413C17.541 26.7119 15.5056 25.847 15.5056 25.847L14.0965 21.1859C17.0083 20.3125 19.6466 18.7051 21.7582 16.5182L21.7572 16.5181ZM8.99284 12.0756C10.9326 10.085 13.3434 8.61622 16.0018 7.80534C16.0472 7.79037 16.0887 7.76554 16.1233 7.73263C16.1579 7.69972 16.1847 7.65956 16.2019 7.61502C16.2192 7.57048 16.2263 7.52268 16.2228 7.47505C16.2194 7.42743 16.2054 7.38118 16.1819 7.3396L14.073 3.59022C14.0443 3.5391 14.0022 3.49675 13.9512 3.46773C13.9002 3.43872 13.8423 3.42411 13.7837 3.4255C10.7137 3.92149 7.96012 5.60052 6.11335 8.10264C6.08606 8.154 6.07313 8.21179 6.07594 8.26988C6.07875 8.32798 6.0972 8.38423 6.12932 8.43272L8.49284 12.0264C8.51943 12.0664 8.55461 12.1 8.5958 12.1247C8.63699 12.1494 8.68316 12.1645 8.73096 12.1692C8.77876 12.1738 8.82697 12.1676 8.87212 12.1513C8.91726 12.1349 8.95821 12.1087 8.99194 12.0745L8.99284 12.0756Z" fill="#45474A"/>
<path d="M28.9278 25.9438C28.6519 26.2507 28.4607 26.6242 28.3731 27.0275C28.2856 27.4308 28.3047 27.8499 28.4285 28.2436C28.5969 27.9542 28.7228 27.6422 28.8024 27.317C28.9072 26.8672 28.9494 26.4051 28.9278 25.9438Z" fill="white"/>
<path d="M19.1812 31.8813C19.5805 31.7767 20.0001 31.7779 20.3987 31.8851C20.7973 31.9922 21.1611 32.2013 21.4541 32.492C21.1193 32.5085 20.7837 32.4773 20.4577 32.3991C20.0106 32.2856 19.5811 32.1114 19.1812 31.8813Z" fill="white"/>
<path d="M12.3493 1.84051C12.7504 1.75723 13.1659 1.77467 13.5587 1.89126C13.66 1.92919 13.7669 1.95025 13.8751 1.95356C13.911 1.9527 13.9463 1.94455 13.9788 1.9296C14.0114 1.91465 14.0406 1.89321 14.0647 1.8666C13.7486 1.70292 13.4011 1.60891 13.0456 1.59089C12.6901 1.57287 12.3349 1.63128 12.0039 1.76217L12.0034 1.76914C12.0775 1.8856 12.2303 1.86524 12.3493 1.84051Z" fill="#F3482A"/>
<path d="M5.36858 6.09151C5.11042 6.40973 4.93516 6.78696 4.8585 7.1895C4.84567 7.2971 4.81565 7.40196 4.76956 7.50005C4.75225 7.53131 4.72887 7.55881 4.70081 7.58094C4.67275 7.60307 4.64059 7.61939 4.60615 7.62894C4.60571 7.27301 4.68158 6.92112 4.82865 6.597C4.97572 6.27287 5.19056 5.98403 5.45871 5.74997L5.46328 5.75632C5.53132 5.87236 5.44427 5.99858 5.36858 6.09151Z" fill="#F3482A"/>
<path d="M26.6631 29.8496L23.6897 31.661C23.3387 31.8753 23.0144 32.1307 22.7237 32.4216C23.2615 32.4495 23.7953 32.3147 24.2552 32.0346L26.7425 30.5181C27.2007 30.239 27.5643 29.8284 27.786 29.3397C27.3925 29.464 27.0155 29.6352 26.6631 29.8496Z" fill="#45474A"/>
</svg>
