<svg width="23" height="18" viewBox="0 0 23 18" fill="none" xmlns="http://www.w3.org/2000/svg">
<path d="M21.0833 0H1.91667C0.858507 0 0 0.839844 0 1.875V2.5H23V1.875C23 0.839844 22.1415 0 21.0833 0ZM0 15.625C0 16.6602 0.858507 17.5 1.91667 17.5H21.0833C22.1415 17.5 23 16.6602 23 15.625V3.75H0V15.625ZM14.0556 6.5625C14.0556 6.39062 14.1993 6.25 14.375 6.25H20.125C20.3007 6.25 20.4444 6.39062 20.4444 6.5625V7.1875C20.4444 7.35938 20.3007 7.5 20.125 7.5H14.375C14.1993 7.5 14.0556 7.35938 14.0556 7.1875V6.5625ZM14.0556 9.0625C14.0556 8.89062 14.1993 8.75 14.375 8.75H20.125C20.3007 8.75 20.4444 8.89062 20.4444 9.0625V9.6875C20.4444 9.85938 20.3007 10 20.125 10H14.375C14.1993 10 14.0556 9.85938 14.0556 9.6875V9.0625ZM14.0556 11.5625C14.0556 11.3906 14.1993 11.25 14.375 11.25H20.125C20.3007 11.25 20.4444 11.3906 20.4444 11.5625V12.1875C20.4444 12.3594 20.3007 12.5 20.125 12.5H14.375C14.1993 12.5 14.0556 12.3594 14.0556 12.1875V11.5625ZM7.02778 6.25C8.43733 6.25 9.58333 7.37109 9.58333 8.75C9.58333 10.1289 8.43733 11.25 7.02778 11.25C5.61823 11.25 4.47222 10.1289 4.47222 8.75C4.47222 7.37109 5.61823 6.25 7.02778 6.25ZM2.67934 14.2266C3.01476 13.2227 3.97708 12.5 5.11111 12.5H5.43854C5.92969 12.6992 6.46476 12.8125 7.02778 12.8125C7.5908 12.8125 8.12986 12.6992 8.61701 12.5H8.94444C10.0785 12.5 11.0408 13.2227 11.3762 14.2266C11.504 14.6133 11.1686 15 10.7533 15H3.30226C2.88698 15 2.55156 14.6094 2.67934 14.2266Z" fill="#343433"/>
</svg>
