<svg width="28" height="28" viewBox="0 0 28 28" fill="none" xmlns="http://www.w3.org/2000/svg">
<path d="M10.6405 6.09402L11.5412 6.09401L10.6419 6.14309C10.6543 6.37123 10.6139 6.59911 10.5238 6.80893C10.4046 7.05478 10.2649 7.28621 10.104 7.5056L10.102 7.50825C9.94259 7.72732 9.7721 7.91373 9.59 8.07154C9.33527 8.29231 9.10199 8.50836 8.88643 8.72177L8.8797 8.72843L8.87973 8.72846C8.65788 8.95258 8.45796 9.18188 8.28922 9.41265L8.28463 9.41894L8.28465 9.41895C8.00342 9.81036 7.87254 10.29 7.91599 10.77C7.95851 11.2397 8.16514 11.679 8.49904 12.0111C8.64977 12.1739 8.86046 12.3944 9.12115 12.6648L9.12355 12.6672C9.39122 12.9428 9.71588 13.2832 10.0989 13.6882L10.1006 13.69C10.4878 14.0973 10.8974 14.5251 11.3302 14.966M10.6405 6.09402L14.1968 25.1993C15.2807 25.7596 16.414 26.2185 17.5823 26.5703L17.5823 26.5703L17.588 26.5721C18.614 26.8881 19.6804 27.0533 20.7538 27.0625C21.4947 27.0623 22.0916 26.9981 22.5622 26.8846L22.5622 26.8846L22.5687 26.8831C23.0119 26.7795 23.436 26.6066 23.8253 26.3707C24.2189 26.131 24.6065 25.8282 24.9948 25.4598C25.4144 25.0618 25.8916 24.5945 26.4297 24.0585C26.8355 23.6471 27.0629 23.0924 27.0625 22.5146L27.0625 22.514C27.0625 22.1722 26.9729 21.8347 26.7716 21.4888C26.5214 21.0663 26.2183 20.6545 25.8529 20.2532L25.8527 20.2531C25.4719 19.8347 25.0765 19.4511 24.6652 19.1077C24.2014 18.7205 23.7927 18.3468 23.4445 17.9884C23.0339 17.5854 22.4815 17.3595 21.906 17.3595L21.897 17.3595L21.8881 17.3593C21.6405 17.3546 21.3944 17.3993 21.1643 17.4908C20.9381 17.5842 20.7256 17.7077 20.5325 17.8582C20.322 18.0261 20.1252 18.2106 19.9442 18.4101L19.9442 18.4101L19.9411 18.4135C19.7141 18.6612 19.4972 18.8885 19.2887 19.0971C19.0812 19.3067 18.8609 19.5034 18.6292 19.686C18.2793 19.9658 17.8401 20.1096 17.3928 20.0911C17.1364 20.0848 16.9173 19.9969 16.7787 19.9315C16.617 19.8551 16.454 19.7548 16.2962 19.646L16.2894 19.6414L16.2827 19.6366C15.9165 19.3748 15.566 19.0917 15.233 18.789C14.3454 17.9988 13.4864 17.1771 12.6577 16.3254C12.363 16.0256 12.0747 15.7297 11.7943 15.4418C11.637 15.2804 11.4822 15.1216 11.3302 14.966M10.6405 6.09402C10.6405 5.51642 10.413 4.9621 10.0072 4.55107M10.6405 6.09402L10.0072 4.55107M11.3302 14.966C11.3305 14.9662 11.3307 14.9665 11.331 14.9667L12 14.31M11.3302 14.966C11.33 14.9657 11.3297 14.9655 11.3295 14.9652L12 14.31M12 14.31C11.572 13.874 11.166 13.45 10.78 13.044C10.396 12.638 10.068 12.294 9.796 12.014C9.526 11.734 9.316 11.514 9.172 11.358L12 14.31ZM10.0072 4.55107C9.77219 4.31593 9.53219 4.05882 9.28373 3.77932C9.28359 3.77916 9.28345 3.779 9.2833 3.77884L8.52116 2.92315C8.52059 2.92252 8.52001 2.92187 8.51944 2.92124C8.27194 2.64638 8.01458 2.38917 7.75143 2.15316C7.47723 1.90905 7.19831 1.67888 6.91673 1.4644C6.69576 1.29646 6.46324 1.17415 6.22109 1.09392L6.21644 1.09235C5.95725 1.00495 5.70487 0.954576 5.45766 0.937694C4.89022 0.945234 4.34728 1.17196 3.94286 1.57097C3.41568 2.09817 2.95375 2.57003 2.55258 2.99087L2.55045 2.99309C2.2079 3.35008 1.90374 3.74202 1.64298 4.16247C1.41909 4.53101 1.24632 4.94931 1.13195 5.427C1.00262 6.01956 0.93743 6.6243 0.937502 7.23081C0.945015 8.32569 1.11055 9.41376 1.42899 10.4613L1.43023 10.4655C1.78284 11.6451 2.25109 12.787 2.82815 13.8746L2.82841 13.8751C3.4508 15.0498 4.1699 16.1706 4.97826 17.2259L4.97992 17.2281C5.81983 18.3313 6.7359 19.3743 7.72144 20.3496L7.72164 20.3498C8.71272 21.3312 9.76214 22.2426 10.8642 23.0823L10.8666 23.0841C11.912 23.8859 13.0263 24.5937 14.1965 25.1992L10.0072 4.55107ZM1.11749 8.1715C1.19458 8.97379 1.35246 9.76705 1.58917 10.5391C1.94034 11.7002 2.41009 12.8221 2.99099 13.887L2.99187 13.8886C4.26437 16.2104 5.86731 18.3352 7.75049 20.1963C8.70191 21.1395 9.70265 22.023 10.7505 22.847C11.8127 23.6821 12.913 24.3987 14.0452 24.9994C15.1255 25.5772 16.2587 26.0501 17.4293 26.4117L17.4324 26.4127C18.5745 26.7611 19.6967 26.9375 20.798 26.9375L20.7986 26.9375C21.404 26.9371 22.0072 26.8652 22.5957 26.7234L22.6038 26.7214L22.6038 26.7214C23.1237 26.5912 23.6178 26.3736 24.0649 26.0781L24.073 26.0728L24.073 26.0727C24.4893 25.7913 24.8746 25.4664 25.2222 25.1035C25.5902 24.7263 25.9605 24.3514 26.3331 23.9788C26.5284 23.7873 26.683 23.5581 26.7872 23.3051C26.888 23.0606 26.9397 22.7988 26.9397 22.5346C26.9481 22.2753 26.8716 22.0526 26.8084 21.9061C26.7345 21.7347 26.634 21.5668 26.5256 21.4084L26.5246 21.407C26.3081 21.0919 26.0769 20.7871 25.832 20.4935C25.8319 20.4935 25.8318 20.4934 25.8318 20.4933L25.112 21.094L1.11749 8.1715ZM1.11749 8.1715L1.0625 8.1715L1.0625 7.234C1.0625 6.54736 1.12445 5.93086 1.26588 5.39948C1.40323 4.88063 1.62666 4.3885 1.92688 3.94359L1.92802 3.94191C2.2057 3.53234 2.52709 3.15214 2.89148 2.7968L2.89572 2.7927C3.21022 2.48984 3.58272 2.11744 4.01415 1.67414L4.01409 1.67408L4.02309 1.66508C4.41546 1.27271 4.91253 1.0625 5.468 1.0625C5.7157 1.0625 5.93184 1.1353 6.08676 1.20233C6.25045 1.27315 6.41117 1.36661 6.56372 1.4671L6.56377 1.46702L6.5746 1.47437C6.88562 1.68554 7.18748 1.90991 7.47932 2.14688C7.84048 2.43749 8.18284 2.75073 8.50433 3.0847M1.11749 8.1715L24.9149 19.4931C24.5962 19.1723 24.2627 18.8666 23.9155 18.5769C23.6268 18.3349 23.326 18.1076 23.0143 17.8962L23.0038 17.889L23.0037 17.8891C22.8512 17.7886 22.6904 17.6951 22.5268 17.6243C22.3808 17.5612 22.1805 17.4929 21.9506 17.4852C21.4873 17.4567 21.0304 17.6087 20.6763 17.9101L20.669 17.9163L20.669 17.9164C20.494 18.0685 20.2967 18.2453 20.0772 18.4446C19.8216 18.6748 19.5823 18.9261 19.3568 19.1994C19.2134 19.3732 19.0377 19.539 18.8231 19.6984C18.6098 19.8533 18.3794 19.9846 18.1299 20.0935C17.956 20.1678 17.7288 20.2176 17.4325 20.2185C17.1394 20.2122 16.8501 20.1517 16.579 20.04C16.3193 19.9317 16.0835 19.7731 15.8853 19.5734L15.8827 19.5709L8.42674 12.1189L8.41911 12.1113L8.41907 12.1113C8.21563 11.9126 8.05432 11.675 7.94477 11.4125L7.07962 11.7737L7.94477 11.4125C7.83523 11.1501 7.77969 10.8683 7.78148 10.5839L7.78165 10.558L7.78038 10.5321C7.76928 10.3057 7.81038 10.0799 7.90045 9.87195C8.01828 9.62016 8.15438 9.39551 8.30785 9.19399C8.47268 8.97754 8.65277 8.77942 8.84993 8.59852C9.05543 8.41184 9.24563 8.23475 9.418 8.07426C9.4508 8.04373 9.48296 8.01379 9.51445 7.9845L9.51699 7.98214C9.75099 7.7629 9.96111 7.51947 10.1438 7.25595C10.3826 6.91798 10.5124 6.51496 10.5155 6.10101L10.5155 6.094C10.5155 5.64963 10.2872 5.24977 10.109 4.98141L10.1031 4.97258L10.1031 4.97262C9.88606 4.65365 9.64997 4.34807 9.39609 4.05757C9.12356 3.74115 8.82414 3.41486 8.50433 3.0847M8.50433 3.0847C8.504 3.08436 8.50368 3.08403 8.50335 3.08369L7.83 3.736L8.50552 3.08594C8.50512 3.08553 8.50472 3.08511 8.50433 3.0847Z" fill="black" stroke="#1B1F3B" stroke-width="1.875"/>
</svg>
