<svg width="14" height="12" viewBox="0 0 14 12" fill="none" xmlns="http://www.w3.org/2000/svg">
<path d="M11.8263 1.07629C12.0552 0.858359 12.3599 0.737878 12.6759 0.740269C12.992 0.742661 13.2947 0.867738 13.5203 1.08911C13.7459 1.31048 13.8767 1.61082 13.885 1.92677C13.8934 2.24272 13.7786 2.54956 13.5651 2.78254L7.08132 10.8913C6.96983 11.0114 6.83527 11.1077 6.68569 11.1746C6.5361 11.2415 6.37456 11.2776 6.21073 11.2806C6.0469 11.2836 5.88414 11.2536 5.73218 11.1923C5.58022 11.131 5.44218 11.0397 5.32632 10.9238L1.02657 6.62404C0.906832 6.51246 0.810791 6.37791 0.744179 6.22841C0.677567 6.07892 0.641749 5.91753 0.638862 5.75389C0.635974 5.59025 0.666077 5.4277 0.727374 5.27594C0.78867 5.12419 0.879905 4.98633 0.995636 4.8706C1.11137 4.75487 1.24922 4.66364 1.40098 4.60234C1.55273 4.54104 1.71528 4.51094 1.87892 4.51383C2.04256 4.51672 2.20395 4.55253 2.35345 4.61915C2.50295 4.68576 2.6375 4.7818 2.74907 4.90154L6.15182 8.30266L11.7954 1.11204C11.8056 1.09953 11.8165 1.08759 11.8279 1.07629H11.8263Z" fill="black"/>
</svg>
