<svg width="33" height="23" viewBox="0 0 33 23" fill="none" xmlns="http://www.w3.org/2000/svg">
<path d="M24.9975 8.91345L22.66 2.47845C22.4665 1.94784 22.1149 1.48935 21.6527 1.1648C21.1904 0.840252 20.6398 0.665269 20.075 0.663452H17.875C17.1187 0.663452 16.5 1.2822 16.5 2.03845C16.5 2.7947 17.1187 3.41345 17.875 3.41345H20.075L22.0825 8.91345H15.4688L14.9738 7.53845H15.0975C15.8537 7.53845 16.4725 6.9197 16.4725 6.16345C16.4725 5.4072 15.8537 4.78845 15.0975 4.78845H11C10.2437 4.78845 9.625 5.4072 9.625 6.16345C9.625 6.9197 10.2437 7.53845 11 7.53845H12.0312L14.5337 14.4135H13.6125C13.0075 11.3472 10.4362 9.07845 7.21875 8.9272C3.36875 8.7347 0 11.9385 0 15.7885C0 19.6385 3.025 22.6635 6.875 22.6635C10.2575 22.6635 12.9937 20.3397 13.6125 17.1635H19.3875C19.9925 20.2297 22.5637 22.4985 25.7812 22.6497C29.6313 22.8285 33 19.6385 33 15.7747C33 11.9247 29.975 8.8997 26.125 8.8997H24.9975V8.91345ZM10.7525 17.1635C10.175 18.8547 8.5525 20.0235 6.6 19.8997C4.55125 19.776 2.84625 18.0435 2.75 15.981C2.65375 13.5747 4.49625 11.6635 6.875 11.6635C8.70375 11.6635 10.2025 12.8047 10.7525 14.4135H8.25C7.49375 14.4135 6.875 15.0322 6.875 15.7885C6.875 16.5447 7.49375 17.1635 8.25 17.1635H10.7525ZM19.3875 14.4135H17.4625L16.4587 11.6635H20.625C20.02 12.461 19.58 13.3822 19.3875 14.4135ZM25.96 19.9135C23.8425 19.831 22.055 18.0297 22 15.8985C21.9725 14.5785 22.5362 13.4235 23.4437 12.6535L24.2962 14.991C24.5575 15.706 25.3413 16.0772 26.0563 15.816C26.7713 15.5547 27.1425 14.771 26.8812 14.056L26.015 11.6772L26.0288 11.6635C28.3938 11.6085 30.2638 13.4372 30.2638 15.7885C30.2662 16.3461 30.1552 16.8984 29.9375 17.4118C29.7198 17.9252 29.3999 18.3889 28.9973 18.7748C28.5948 19.1607 28.1179 19.4606 27.5957 19.6563C27.0736 19.8521 26.517 19.9396 25.96 19.9135Z" fill="#1B1F3B"/>
</svg>
