<svg width="27" height="27" viewBox="0 0 27 27" fill="none" xmlns="http://www.w3.org/2000/svg">
<path d="M13.5 0C6.05631 0 0 6.05631 0 13.5C0 20.9437 6.05631 27 13.5 27C20.9437 27 27 20.9437 27 13.5C27 6.05631 20.9437 0 13.5 0ZM13.5 2.07692C19.8211 2.07692 24.9231 7.17888 24.9231 13.5C24.9231 19.8211 19.8211 24.9231 13.5 24.9231C7.17888 24.9231 2.07692 19.8211 2.07692 13.5C2.07692 7.17888 7.17888 2.07692 13.5 2.07692ZM9.57462 8.07923L8.07923 9.57462L12.0088 13.5L8.08131 17.4254L9.57669 18.9208L13.5 14.9923L17.4254 18.9177L18.9208 17.4254L14.9923 13.5L18.9177 9.57462L17.4254 8.07923L13.5 12.0088L9.57462 8.08131V8.07923Z" fill="#1B1F3B"/>
</svg>
