<svg width="22" height="25" viewBox="0 0 22 25" fill="none" xmlns="http://www.w3.org/2000/svg">
<path d="M17.6831 7.60093C19.685 7.60093 21.3078 5.9781 21.3078 3.97625C21.3078 1.97439 19.685 0.351562 17.6831 0.351562C15.6813 0.351562 14.0584 1.97439 14.0584 3.97625C14.0584 5.9781 15.6813 7.60093 17.6831 7.60093Z" fill="#1B1F3B"/>
<path d="M4.22123 16.4027C6.22309 16.4027 7.84592 14.7799 7.84592 12.778C7.84592 10.7761 6.22309 9.15332 4.22123 9.15332C2.21938 9.15332 0.59655 10.7761 0.59655 12.778C0.59655 14.7799 2.21938 16.4027 4.22123 16.4027Z" fill="#1B1F3B"/>
<path d="M17.6831 24.6878C19.685 24.6878 21.3078 23.065 21.3078 21.0632C21.3078 19.0613 19.685 17.4385 17.6831 17.4385C15.6813 17.4385 14.0584 19.0613 14.0584 21.0632C14.0584 23.065 15.6813 24.6878 17.6831 24.6878Z" fill="#1B1F3B"/>
<path d="M17.258 22.2295L2.8297 12.7952L17.2407 2.81836L18.1255 4.09628L5.61278 12.7593L18.1082 20.9295L17.258 22.2295Z" fill="#1B1F3B"/>
</svg>
