<svg width="38" height="29" viewBox="0 0 38 29" fill="none" xmlns="http://www.w3.org/2000/svg">
<path d="M3.92358 25.8138C3.64457 25.8138 3.39688 25.8138 3.14771 25.8138C2.81342 25.8214 2.48079 25.7721 2.17043 25.6689C1.86007 25.5658 1.57859 25.4109 1.34345 25.214C1.10831 25.017 0.924519 24.782 0.803445 24.5238C0.682371 24.2656 0.626595 23.9896 0.639593 23.7128C0.633625 21.9876 0.633625 20.2627 0.639593 18.5383C0.612889 18.0741 0.782889 17.6168 1.12018 17.2453C1.45746 16.8739 1.94084 16.6117 2.48675 16.5042C2.71968 16.4546 2.95945 16.4305 3.19994 16.4325C6.97978 16.4325 10.7561 16.4325 14.529 16.4325C15.104 16.405 15.6718 16.5491 16.1295 16.8386C16.5872 17.1282 16.9044 17.544 17.0237 18.0106C17.0699 18.1905 17.09 18.3743 17.0834 18.5581C17.0834 20.2747 17.0595 21.9926 17.0953 23.7091C17.1012 23.9884 17.039 24.2658 16.9125 24.5247C16.786 24.7836 16.5977 25.0188 16.359 25.2161C16.1203 25.4133 15.836 25.5687 15.5231 25.6729C15.2102 25.777 14.8751 25.8279 14.538 25.8224C12.5297 25.7952 10.5214 25.8223 8.51311 25.8124C8.42698 25.809 8.34095 25.8206 8.26053 25.8463C8.18011 25.8721 8.10708 25.9116 8.04609 25.9621C7.16977 26.6451 6.28796 27.3227 5.40069 27.995C5.22394 28.1298 5.02564 28.2436 4.81135 28.3335C4.74128 28.3735 4.66007 28.3981 4.57537 28.4049C4.49068 28.4117 4.40527 28.4007 4.32721 28.3726C4.24915 28.3446 4.18101 28.3004 4.12919 28.2445C4.07737 28.1886 4.04357 28.1228 4.031 28.0531C3.96692 27.8695 3.93328 27.6794 3.93103 27.4883C3.9176 27.0211 3.93103 26.5528 3.93103 26.0856L3.92358 25.8138ZM6.46005 21.2671C6.46282 21.1635 6.44078 21.0607 6.39523 20.9643C6.34968 20.8679 6.28151 20.7799 6.19466 20.7054C6.1078 20.6309 6.00401 20.5715 5.88924 20.5304C5.77447 20.4894 5.65101 20.4676 5.52602 20.4663C5.40336 20.4645 5.28148 20.4828 5.16733 20.52C5.05318 20.5572 4.94899 20.6127 4.86073 20.6832C4.77247 20.7538 4.70186 20.8381 4.65294 20.9312C4.60401 21.0244 4.57774 21.1247 4.5756 21.2263C4.57263 21.3297 4.59434 21.4326 4.6395 21.5289C4.68467 21.6253 4.7524 21.7133 4.83878 21.788C4.92516 21.8626 5.0285 21.9224 5.14286 21.9639C5.25721 22.0053 5.38033 22.0277 5.50514 22.0296C5.75374 22.0311 5.99324 21.9522 6.17289 21.8098C6.35254 21.6675 6.45821 21.4728 6.46752 21.2671H6.46005ZM13.1325 21.2275C13.1285 21.023 13.027 20.8282 12.85 20.6855C12.673 20.5428 12.435 20.464 12.188 20.4663C12.0001 20.4664 11.8166 20.5127 11.6607 20.5997C11.5049 20.6866 11.3839 20.81 11.3133 20.9542C11.2426 21.0984 11.2254 21.2567 11.264 21.409C11.3025 21.5613 11.395 21.7007 11.5297 21.8092C11.6643 21.9178 11.8349 21.9906 12.0198 22.0183C12.2046 22.0461 12.3953 22.0275 12.5673 21.9651C12.7394 21.9026 12.8851 21.7991 12.9858 21.6677C13.0864 21.5364 13.1375 21.3831 13.1325 21.2275ZM9.79925 21.2275C9.79417 21.023 9.69237 20.8283 9.51575 20.6852C9.33914 20.5421 9.10179 20.4622 8.85477 20.4625C8.60749 20.4653 8.37106 20.5471 8.19481 20.6908C8.01855 20.8345 7.91609 21.029 7.90881 21.2337C7.91335 21.4421 8.01492 21.641 8.1923 21.7889C8.36968 21.9367 8.60916 22.022 8.86073 22.0271C9.11285 22.0235 9.35322 21.9382 9.53012 21.7893C9.70702 21.6405 9.80634 21.4402 9.80669 21.2313L9.79925 21.2275Z" fill="#1B1F3B"/>
<path d="M36.5993 11.9736C35.644 11.2856 34.5877 10.7001 33.4555 10.2311C32.5126 9.86036 32.1679 9.86036 31.5009 10.262C30.9459 10.5944 30.5863 10.9034 29.9477 10.7872C28.7545 10.3405 27.6891 9.68931 26.8219 8.87664C25.8402 8.16005 25.0543 7.27823 24.5167 6.29006C24.3809 5.75742 24.7539 5.46329 25.1508 5.00356C25.6313 4.45115 25.6447 4.16567 25.1881 3.38463C24.6271 2.44539 23.9225 1.56984 23.0918 0.779502C22.4055 0.211021 22.2518 0.334604 21.8743 0.447064C21.4854 0.583358 21.1123 0.748824 20.7597 0.941395C20.1825 1.21315 19.7152 1.62037 19.4169 2.11172C19.1513 2.58752 18.8425 3.47113 20.4106 5.78213C21.5666 7.55008 23.0306 9.16741 24.7554 10.5821C26.4671 12.0142 28.4237 13.23 30.5625 14.1907C33.3526 15.4883 34.4209 15.2337 34.9938 15.0138C35.589 14.769 36.0814 14.3815 36.4068 13.9015C36.6393 13.6095 36.839 13.3005 37.0036 12.9784C37.1349 12.6682 37.2886 12.5409 36.5993 11.9736Z" fill="#1B1F3B"/>
<path d="M4.27427 2.21533L34.1151 26.9319" stroke="#1B1F3B"/>
</svg>
