<svg width="29" height="28" viewBox="0 0 29 28" fill="none" xmlns="http://www.w3.org/2000/svg">
<path d="M14.4 1.84082L18.386 9.91582L27.3 11.2158L20.85 17.4978L22.372 26.3728L14.4 22.1838L6.428 26.3768L7.95 17.5018L1.5 11.2188L10.414 9.91882L14.4 1.84082Z" stroke="#1B1F3B" stroke-width="2" stroke-linecap="round" stroke-linejoin="round"/>
<path d="M14.741 16.1269L16.155 14.7269C16.2013 14.6797 16.2293 14.6177 16.2343 14.5518C16.2392 14.4859 16.2207 14.4204 16.182 14.3669C16.1605 14.3347 16.1319 14.3078 16.0984 14.2884C16.0648 14.269 16.0273 14.2576 15.9887 14.255C15.95 14.2524 15.9113 14.2587 15.8755 14.2734C15.8396 14.2881 15.8077 14.3109 15.782 14.3399L14.368 15.7539L12.954 14.3399C12.9284 14.3109 12.8964 14.2881 12.8606 14.2734C12.8248 14.2587 12.786 14.2524 12.7474 14.255C12.7087 14.2576 12.6712 14.269 12.6377 14.2884C12.6042 14.3078 12.5755 14.3347 12.554 14.3669C12.5153 14.4204 12.4968 14.4859 12.5018 14.5518C12.5067 14.6177 12.5348 14.6797 12.581 14.7269L13.995 16.1269L12.581 17.5269C12.5348 17.5741 12.5067 17.6361 12.5018 17.702C12.4968 17.7678 12.5153 17.8333 12.554 17.8869C12.5755 17.9191 12.6042 17.9459 12.6377 17.9653C12.6712 17.9847 12.7087 17.9962 12.7474 17.9988C12.786 18.0014 12.8248 17.9951 12.8606 17.9804C12.8964 17.9657 12.9284 17.9429 12.954 17.9139L14.368 16.4999L15.782 17.9139C15.8077 17.9429 15.8396 17.9657 15.8755 17.9804C15.9113 17.9951 15.95 18.0014 15.9887 17.9988C16.0273 17.9962 16.0648 17.9847 16.0984 17.9653C16.1319 17.9459 16.1605 17.9191 16.182 17.8869C16.2207 17.8333 16.2392 17.7678 16.2343 17.702C16.2293 17.6361 16.2013 17.5741 16.155 17.5269L14.741 16.1269Z" fill="#1B1F3B" stroke="#1B1F3B"/>
</svg>
