<svg width="23" height="22" viewBox="0 0 23 22" fill="none" xmlns="http://www.w3.org/2000/svg">
<path d="M22.7734 8.99884C22.7734 8.66929 22.5263 8.46615 22.0319 8.38952L15.3869 7.42313L12.4086 1.40103C12.2438 1.03935 12.0275 0.858398 11.7597 0.858398C11.492 0.858398 11.2757 1.03935 11.1109 1.40103L8.13128 7.42313L1.48629 8.38952C0.991962 8.47191 0.744751 8.67505 0.744751 8.99884C0.773911 9.24391 0.891721 9.46989 1.07596 9.6341L5.89572 14.3204L4.75749 20.9382C4.74345 21.0261 4.73479 21.1148 4.73155 21.2038C4.72581 21.3712 4.77436 21.536 4.86996 21.6735C4.91771 21.7378 4.98092 21.789 5.0537 21.8225C5.12649 21.856 5.20656 21.8707 5.28648 21.8651C5.47363 21.8574 5.65582 21.8029 5.81659 21.7068L11.7597 18.5827L17.7028 21.7068C17.8628 21.8048 18.0455 21.8594 18.233 21.8651C18.311 21.8696 18.3889 21.8543 18.4595 21.8209C18.5302 21.7874 18.5912 21.7367 18.6371 21.6735C18.7323 21.5358 18.7808 21.3712 18.7755 21.2038C18.7768 21.1151 18.7723 21.0264 18.7619 20.9382L17.6237 14.3204L22.4286 9.6341C22.6219 9.47535 22.7456 9.2474 22.7734 8.99884Z" fill="#6D80C5"/>
</svg>
