<svg width="17" height="22" viewBox="0 0 17 22" fill="none" xmlns="http://www.w3.org/2000/svg">
<path d="M15.5532 9.55108C15.5532 15.4241 8.49223 20.4581 8.49223 20.4581C8.49223 20.4581 1.43314 15.4251 1.43314 9.55108C1.41789 8.54926 1.58924 7.55422 1.93719 6.62392C2.28515 5.69363 2.80275 4.84669 3.45985 4.13246C4.11695 3.41823 4.90039 2.85099 5.76454 2.4638C6.62868 2.0766 7.55624 1.8772 8.49317 1.8772C9.4301 1.8772 10.3577 2.0766 11.2218 2.4638C12.0859 2.85099 12.8694 3.41823 13.5265 4.13246C14.1836 4.84669 14.7012 5.69363 15.0491 6.62392C15.3971 7.55422 15.5684 8.54926 15.5532 9.55108V9.55108Z" stroke="#242B4C" stroke-width="1.8" stroke-linecap="round" stroke-linejoin="round"/>
<path d="M10.8478 9.55118C10.8478 10.049 10.7097 10.5356 10.4511 10.9495C10.1925 11.3635 9.82488 11.6861 9.3948 11.8766C8.96473 12.0671 8.49149 12.1169 8.03492 12.0198C7.57836 11.9227 7.15898 11.683 6.82981 11.331C6.50065 10.979 6.27648 10.5305 6.18567 10.0422C6.09485 9.55397 6.14146 9.04789 6.3196 8.58797C6.49775 8.12804 6.79942 7.73494 7.18648 7.45837C7.57353 7.1818 8.02859 7.03418 8.4941 7.03418C9.11833 7.03418 9.71699 7.29936 10.1584 7.77139C10.5998 8.24342 10.8478 8.88363 10.8478 9.55118Z" stroke="#242B4C" stroke-width="1.8" stroke-linecap="round" stroke-linejoin="round"/>
</svg>
