<svg width="24" height="22" viewBox="0 0 24 22" fill="none" xmlns="http://www.w3.org/2000/svg">
<path d="M22.3334 9.52378H4.82579L10.1844 3.0876C10.4349 2.78613 10.5555 2.39748 10.5195 2.00714C10.4835 1.61679 10.2939 1.25673 9.99246 1.00617C9.69099 0.755601 9.30234 0.635052 8.912 0.671041C8.52165 0.707031 8.16159 0.896609 7.91103 1.19807L0.530076 10.0552C0.480418 10.1257 0.436012 10.1997 0.397218 10.2766C0.397218 10.3505 0.397219 10.3947 0.293885 10.4685C0.226975 10.6378 0.191941 10.818 0.190552 11C0.191941 11.182 0.226975 11.3621 0.293885 11.5314C0.293885 11.6052 0.293885 11.6495 0.397218 11.7233C0.436012 11.8003 0.480418 11.8743 0.530076 11.9447L7.91103 20.8019C8.04982 20.9685 8.22363 21.1025 8.42009 21.1944C8.61654 21.2862 8.83083 21.3337 9.04769 21.3333C9.39261 21.334 9.72687 21.2139 9.99246 20.9938C10.1419 20.8699 10.2655 20.7177 10.3561 20.5459C10.4466 20.3742 10.5024 20.1862 10.5202 19.9929C10.5381 19.7995 10.5176 19.6046 10.4599 19.4192C10.4023 19.2337 10.3087 19.0615 10.1844 18.9124L4.82579 12.4762H22.3334C22.7249 12.4762 23.1004 12.3206 23.3772 12.0438C23.6541 11.767 23.8096 11.3915 23.8096 11C23.8096 10.6085 23.6541 10.233 23.3772 9.95615C23.1004 9.67931 22.7249 9.52378 22.3334 9.52378Z" fill="black"/>
</svg>
