<svg width="7" height="12" viewBox="0 0 7 12" fill="none" xmlns="http://www.w3.org/2000/svg">
<path d="M4.77437 6.02305L2.30434 3.41029C1.81527 2.8934 1.31762 2.38515 0.840162 1.85726C0.73168 1.76605 0.6517 1.64479 0.60986 1.50825C0.56802 1.37172 0.566104 1.22577 0.604476 1.08819C0.642847 0.950613 0.719855 0.827345 0.825992 0.733341C0.932129 0.639336 1.06285 0.57866 1.20233 0.558719C1.32957 0.549269 1.45738 0.565974 1.57811 0.607817C1.69884 0.649659 1.80998 0.715777 1.90495 0.80224C3.3946 2.34507 4.86186 3.9099 6.32829 5.47473C6.4096 5.54889 6.47395 5.6402 6.51684 5.74227C6.55973 5.84434 6.58017 5.95471 6.57663 6.06562C6.5731 6.17653 6.54565 6.28529 6.49634 6.38432C6.44703 6.48336 6.37704 6.57025 6.29117 6.63892C4.84305 8.17756 3.39362 9.71492 1.94293 11.2509C1.87964 11.3367 1.79921 11.408 1.70696 11.46C1.6147 11.5121 1.51267 11.5439 1.40751 11.5533C1.30235 11.5626 1.19649 11.5493 1.09672 11.5143C0.996962 11.4792 0.905536 11.4232 0.828543 11.3499C0.75282 11.2751 0.693008 11.1854 0.652746 11.0863C0.612484 10.9871 0.59265 10.8806 0.594463 10.7734C0.596275 10.6662 0.619737 10.5604 0.663326 10.4628C0.706915 10.3651 0.769703 10.2774 0.847908 10.2053C1.26965 9.74185 1.70611 9.29254 2.13714 8.8377L4.58865 6.24538C4.64205 6.1841 4.69234 6.11653 4.77437 6.02305Z" fill="#1B1F3B"/>
</svg>
