<svg width="12" height="12" viewBox="0 0 12 12" fill="none" xmlns="http://www.w3.org/2000/svg">
<path d="M11.5533 2.4706L9.49826 0.408153C9.23005 0.155313 8.87859 0.0102366 8.51075 0.00052145C8.1429 -0.0091937 7.78432 0.11713 7.50324 0.355463L0.753161 7.12991C0.510732 7.37527 0.359785 7.69686 0.325656 8.0407L0.00315225 11.1795C-0.00695114 11.2898 0.00730304 11.4009 0.0448986 11.505C0.0824942 11.6091 0.142505 11.7036 0.220655 11.7817C0.290735 11.8515 0.373848 11.9067 0.465228 11.9441C0.556607 11.9816 0.654455 12.0006 0.753161 12H0.820661L3.9482 11.714C4.2908 11.6797 4.61123 11.5282 4.85571 11.2849L11.6058 4.51046C11.8678 4.23268 12.0094 3.862 11.9995 3.47964C11.9897 3.09728 11.8292 2.73443 11.5533 2.4706ZM3.81319 10.2085L1.56317 10.4193L1.76567 8.16113L6.00322 3.96098L8.02824 5.99331L3.81319 10.2085ZM9.00325 4.98467L6.99323 2.96739L8.45575 1.46196L10.5033 3.51687L9.00325 4.98467Z" fill="#1B1F3B"/>
</svg>
