<svg width="20" height="18" viewBox="0 0 20 18" fill="none" xmlns="http://www.w3.org/2000/svg">
<path d="M6.34108e-09 5.47654L9.68546 10.5138C9.78261 10.5643 9.8905 10.5907 10 10.5907C10.1095 10.5907 10.2174 10.5643 10.3145 10.5138L20 5.47745V14.2274C20 14.9821 19.7113 15.7082 19.193 16.2568C18.6747 16.8053 17.9662 17.1347 17.2127 17.1775L17.0455 17.182H2.95455C2.19987 17.182 1.47379 16.8933 0.925245 16.375C0.376697 15.8567 0.0472715 15.1482 0.00454557 14.3947L6.34108e-09 14.2274V5.47654ZM2.95455 0.818359H17.0455C17.8001 0.81831 18.5262 1.10704 19.0748 1.62533C19.6233 2.14362 19.9527 2.85217 19.9955 3.60563L20 3.7729V3.94018L10 9.14018L6.34108e-09 3.94018V3.7729C-4.94061e-05 3.01823 0.288686 2.29215 0.806974 1.7436C1.32526 1.19506 2.03381 0.865631 2.78727 0.822905L2.95455 0.818359H17.0455H2.95455Z" fill="#1B1F3B"/>
</svg>
