<svg width="22" height="20" viewBox="0 0 22 20" fill="none" xmlns="http://www.w3.org/2000/svg">
<path d="M10.7431 5C13.5049 5 15.7431 7.23828 15.7431 10C15.7431 12.7617 13.5049 15 10.7431 15C9.68259 15 8.69626 14.668 7.88571 14.1035C7.60251 13.8887 7.53298 13.5156 7.73141 13.2324C7.92868 12.9492 8.31735 12.8809 8.60056 13.0781C9.20798 13.502 9.94626 13.75 10.7431 13.75C12.8134 13.75 14.4931 12.0703 14.4931 10C14.4931 7.91211 12.8134 6.25 10.7431 6.25C9.6904 6.25 8.77048 6.66914 8.09079 7.34766L8.69235 7.94922C8.98727 8.24414 8.77829 8.75 8.36227 8.75H6.21188C5.95309 8.75 5.74313 8.54102 5.74313 8.28125V6.13164C5.74313 5.71406 6.24802 5.50488 6.54333 5.8002L7.20759 6.46445C8.11227 5.56035 9.36227 5 10.7256 5H10.7431ZM10.7431 7.5C11.0029 7.5 11.2119 7.70898 11.2119 7.96875V9.80664L12.4638 11.0742C12.6631 11.2578 12.6631 11.5547 12.4638 11.7207C12.2978 11.9199 12.0009 11.9199 11.8174 11.7207L10.4111 10.3145C10.3232 10.2441 10.2744 10.125 10.2744 10V7.96875C10.2744 7.70898 10.4834 7.5 10.7431 7.5Z" fill="white"/>
<path d="M12.5142 0.00378099C7 -0.147886 2.4825 4.28295 2.4825 9.75378H0.543329C0.0558289 9.75378 -0.182504 10.3388 0.164162 10.6746L3.18666 13.7079C3.40333 13.9246 3.73916 13.9246 3.95583 13.7079L6.97833 10.6746C7.05319 10.5982 7.10377 10.5014 7.12369 10.3964C7.14362 10.2913 7.13199 10.1827 7.09029 10.0842C7.04858 9.98572 6.97866 9.90179 6.88933 9.84299C6.8 9.78419 6.69527 9.75315 6.58833 9.75378H4.64916C4.64916 5.52878 8.09416 2.11628 12.3408 2.17045C16.3708 2.22461 19.7617 5.61545 19.8158 9.64545C19.87 13.8813 16.4575 17.3371 12.2325 17.3371C10.4883 17.3371 8.87416 16.7413 7.59583 15.7338C7.38833 15.5703 7.12799 15.4888 6.86433 15.5048C6.60066 15.5208 6.35207 15.6331 6.16583 15.8204C5.71083 16.2754 5.74333 17.0446 6.2525 17.4346C7.95455 18.7806 10.0625 19.51 12.2325 19.5038C17.7033 19.5038 22.1342 14.9863 21.9825 9.47211C21.8417 4.39128 17.595 0.144614 12.5142 0.00378099ZM11.9617 5.42045C11.5175 5.42045 11.1492 5.78878 11.1492 6.23295V10.2196C11.1492 10.5988 11.355 10.9563 11.68 11.1513L15.06 13.1554C15.45 13.3829 15.9483 13.2529 16.1758 12.8738C16.4033 12.4838 16.2733 11.9854 15.8942 11.7579L12.7742 9.90545V6.22211C12.7742 5.78878 12.4058 5.42045 11.9617 5.42045Z" fill="black"/>
</svg>
