<svg width="28" height="29" viewBox="0 0 28 29" fill="none" xmlns="http://www.w3.org/2000/svg">
<path d="M14.8682 11.9788L18.7492 8.13482C18.8761 8.00509 18.953 7.83465 18.9664 7.65366C18.9797 7.47266 18.9287 7.29278 18.8222 7.14582C18.7624 7.05802 18.6834 6.98497 18.5912 6.93223C18.499 6.87948 18.396 6.84841 18.29 6.84138C18.184 6.83435 18.0777 6.85153 17.9794 6.89163C17.881 6.93173 17.793 6.99369 17.7222 7.07282L13.8412 10.9538L9.96017 7.07282C9.8893 6.99369 9.80134 6.93173 9.70297 6.89163C9.6046 6.85153 9.49839 6.83435 9.39239 6.84138C9.28639 6.84841 9.18339 6.87948 9.09118 6.93223C8.99896 6.98497 8.91997 7.05802 8.86017 7.14582C8.75368 7.29278 8.70259 7.47266 8.71595 7.65366C8.72931 7.83465 8.80626 8.00509 8.93317 8.13482L12.8162 11.9788L8.93617 15.8228C8.80926 15.9525 8.73231 16.123 8.71895 16.304C8.7056 16.485 8.75668 16.6649 8.86317 16.8118C8.92297 16.8996 9.00197 16.9727 9.09418 17.0254C9.18639 17.0782 9.28939 17.1092 9.39539 17.1163C9.50139 17.1233 9.6076 17.1061 9.70597 17.066C9.80434 17.0259 9.8923 16.964 9.96317 16.8848L13.8442 13.0038L17.7252 16.8848C17.796 16.964 17.884 17.0259 17.9824 17.066C18.0807 17.1061 18.187 17.1233 18.293 17.1163C18.399 17.1092 18.502 17.0782 18.5942 17.0254C18.6864 16.9727 18.7654 16.8996 18.8252 16.8118C18.9317 16.6649 18.9827 16.485 18.9694 16.304C18.956 16.123 18.8791 15.9525 18.7522 15.8228L14.8682 11.9788Z" fill="#1B1F3B" stroke="#1B1F3B"/>
<path d="M25.4001 1.62305H2.28409C1.94355 1.62305 1.61696 1.75832 1.37616 1.99912C1.13536 2.23992 1.00009 2.56651 1.00009 2.90705V26.023C0.997121 26.2773 1.07048 26.5266 1.21068 26.7387C1.35088 26.9508 1.55148 27.116 1.78655 27.2129C2.02162 27.3098 2.28036 27.334 2.52931 27.2823C2.77827 27.2307 3.00601 27.1055 3.18309 26.923L8.19209 22.171H25.4001C25.7406 22.171 26.0672 22.0358 26.308 21.795C26.5488 21.5542 26.6841 21.2276 26.6841 20.887V2.90705C26.6841 2.56651 26.5488 2.23992 26.308 1.99912C26.0672 1.75832 25.7406 1.62305 25.4001 1.62305V1.62305Z" stroke="#1B1F3B" stroke-width="2"/>
</svg>
