<svg width="27" height="27" viewBox="0 0 27 27" fill="none" xmlns="http://www.w3.org/2000/svg">
<path d="M26 1L1 26" stroke="#343433" stroke-width="2"/>
<path d="M12.6642 5.50532L12.6618 5.50539C9.22158 5.59248 6.49383 7.1463 4.47266 8.94009C2.44941 10.7357 1.15863 12.7513 0.606869 13.7026C0.536856 13.824 0.5 13.9618 0.5 14.1019C0.5 14.2422 0.5369 14.38 0.606992 14.5015L12.6642 5.50532ZM12.6642 5.50532C16.3805 5.39345 19.348 7.06576 21.5087 8.97493C23.6711 10.8857 24.9908 13.0049 25.3927 13.7019L25.8253 13.4525L25.3929 13.7022C25.4631 13.8237 25.5 13.9616 25.5 14.1019C25.5 14.2423 25.4631 14.3801 25.3929 14.5017L25.3921 14.503M12.6642 5.50532L25.3921 14.503M25.3921 14.503C24.8481 15.4519 23.5576 17.4677 21.5324 19.2636C19.5108 21.0564 16.7819 22.6095 13.3445 22.6983H13.026C9.3621 22.6983 6.46768 21.0175 4.37092 19.1342M25.3921 14.503L4.37092 19.1342M4.37092 19.1342C2.27272 17.2496 1.00415 15.1886 0.607111 14.5017L4.37092 19.1342ZM10.1954 18.2993C11.0255 18.854 12.0016 19.1501 13 19.1501C14.3389 19.1501 15.6229 18.6183 16.5696 17.6715C17.5163 16.7248 18.0482 15.4408 18.0482 14.1019C18.0482 13.1035 17.7521 12.1275 17.1974 11.2973C16.6427 10.4671 15.8543 9.82009 14.9319 9.43801C14.0094 9.05592 12.9944 8.95595 12.0151 9.15074C11.0359 9.34552 10.1364 9.82632 9.43039 10.5323C8.72439 11.2383 8.24359 12.1378 8.04881 13.1171C7.85402 14.0963 7.95399 15.1114 8.33608 16.0338C8.71816 16.9562 9.3652 17.7446 10.1954 18.2993Z" fill="#343433" stroke="#343433"/>
<path d="M14.4492 14.1019C14.4492 14.9023 13.8004 15.5512 13 15.5512C12.1996 15.5512 11.5508 14.9023 11.5508 14.1019C11.5508 13.3016 12.1996 12.6527 13 12.6527C13.8004 12.6527 14.4492 13.3016 14.4492 14.1019Z" fill="#343433" stroke="#343433"/>
<path d="M12.6642 5.50532L12.6618 5.50539C9.22158 5.59248 6.49383 7.1463 4.47266 8.94009C2.44941 10.7357 1.15863 12.7513 0.606869 13.7026C0.536856 13.824 0.5 13.9618 0.5 14.1019C0.5 14.2422 0.5369 14.38 0.606992 14.5015L12.6642 5.50532ZM12.6642 5.50532C16.3805 5.39345 19.348 7.06576 21.5087 8.97493C23.6711 10.8857 24.9908 13.0049 25.3927 13.7019L25.8253 13.4525L25.3929 13.7022C25.4631 13.8237 25.5 13.9616 25.5 14.1019C25.5 14.2423 25.4631 14.3801 25.3929 14.5017L25.3921 14.503M12.6642 5.50532L25.3921 14.503M25.3921 14.503C24.8481 15.4519 23.5576 17.4677 21.5324 19.2636C19.5108 21.0564 16.7819 22.6095 13.3445 22.6983H13.026C9.3621 22.6983 6.46768 21.0175 4.37092 19.1342M25.3921 14.503L4.37092 19.1342M4.37092 19.1342C2.27272 17.2496 1.00415 15.1886 0.607111 14.5017L4.37092 19.1342ZM10.1954 18.2993C11.0255 18.854 12.0016 19.1501 13 19.1501C14.3389 19.1501 15.6229 18.6183 16.5696 17.6715C17.5163 16.7248 18.0482 15.4408 18.0482 14.1019C18.0482 13.1035 17.7521 12.1275 17.1974 11.2973C16.6427 10.4671 15.8543 9.82009 14.9319 9.43801C14.0094 9.05592 12.9944 8.95595 12.0151 9.15074C11.0359 9.34552 10.1364 9.82632 9.43039 10.5323C8.72439 11.2383 8.24359 12.1378 8.04881 13.1171C7.85402 14.0963 7.95399 15.1114 8.33608 16.0338C8.71816 16.9562 9.3652 17.7446 10.1954 18.2993Z" fill="#343433" stroke="#343433"/>
</svg>
