<svg width="26" height="19" viewBox="0 0 26 19" fill="none" xmlns="http://www.w3.org/2000/svg">
<path d="M25.8259 8.45219C24.9942 7.00976 20.42 -0.228363 12.6491 0.0055437C5.463 0.187471 1.30465 6.50296 0.174098 8.45219C0.0600444 8.64973 0 8.87382 0 9.10193C0 9.33004 0.0600444 9.55412 0.174098 9.75167C0.992772 11.1681 5.37203 18.1983 13.026 18.1983H13.3509C20.537 18.0164 24.7083 11.7009 25.8259 9.75167C25.94 9.55412 26 9.33004 26 9.10193C26 8.87382 25.94 8.64973 25.8259 8.45219ZM13 13.6501C12.1005 13.6501 11.2211 13.3834 10.4732 12.8836C9.72521 12.3839 9.14226 11.6735 8.79802 10.8424C8.45378 10.0114 8.36371 9.09688 8.5392 8.21462C8.71469 7.33236 9.14787 6.52195 9.78394 5.88587C10.42 5.24979 11.2304 4.81662 12.1127 4.64113C12.995 4.46563 13.9094 4.5557 14.7405 4.89995C15.5716 5.24419 16.2819 5.82714 16.7817 6.57509C17.2814 7.32303 17.5482 8.20238 17.5482 9.10193C17.5482 10.3082 17.069 11.465 16.2161 12.318C15.3631 13.1709 14.2063 13.6501 13 13.6501Z" fill="#1B1F3B"/>
<path d="M13 11.0512C14.0765 11.0512 14.9492 10.1785 14.9492 9.10194C14.9492 8.02541 14.0765 7.15271 13 7.15271C11.9235 7.15271 11.0508 8.02541 11.0508 9.10194C11.0508 10.1785 11.9235 11.0512 13 11.0512Z" fill="#1B1F3B"/>
</svg>
