<svg width="29" height="29" viewBox="0 0 29 29" fill="none" xmlns="http://www.w3.org/2000/svg">
<path d="M10.7829 16.853C10.4358 16.853 10.1028 16.9909 9.85734 17.2364C9.61185 17.4819 9.47394 17.8149 9.47394 18.162V26.013H2.93194V18.162C2.92252 17.8213 2.78053 17.4976 2.53616 17.2599C2.2918 17.0222 1.96435 16.8892 1.62344 16.8892C1.28254 16.8892 0.955082 17.0222 0.710719 17.2599C0.466355 17.4976 0.324363 17.8213 0.314941 18.162V27.322C0.314941 27.6692 0.452854 28.0021 0.698339 28.2476C0.943824 28.4931 1.27677 28.631 1.62394 28.631H10.7839C11.1311 28.631 11.4641 28.4931 11.7095 28.2476C11.955 28.0021 12.0929 27.6692 12.0929 27.322V18.162C12.0929 17.99 12.059 17.8197 11.9932 17.6609C11.9274 17.502 11.8308 17.3576 11.7092 17.2361C11.5875 17.1145 11.4431 17.0181 11.2842 16.9524C11.1252 16.8867 10.9549 16.8529 10.7829 16.853Z" fill="#1B1F3B" stroke="white" stroke-width="0.5"/>
<path d="M26.4851 16.853C26.1379 16.853 25.805 16.9909 25.5595 17.2364C25.314 17.4819 25.1761 17.8149 25.1761 18.162V26.013H18.6341V18.162C18.6247 17.8213 18.4827 17.4976 18.2383 17.2599C17.9939 17.0222 17.6665 16.8892 17.3256 16.8892C16.9847 16.8892 16.6572 17.0222 16.4129 17.2599C16.1685 17.4976 16.0265 17.8213 16.0171 18.162V27.322C16.0171 27.6692 16.155 28.0021 16.4005 28.2476C16.646 28.4931 16.9789 28.631 17.3261 28.631H26.4861C26.8333 28.631 27.1662 28.4931 27.4117 28.2476C27.6572 28.0021 27.7951 27.6692 27.7951 27.322V18.162C27.7951 17.99 27.7612 17.8197 27.6954 17.6609C27.6295 17.502 27.533 17.3576 27.4113 17.2361C27.2897 17.1145 27.1453 17.0181 26.9863 16.9524C26.8274 16.8867 26.6571 16.8529 26.4851 16.853Z" fill="#1B1F3B" stroke="white" stroke-width="0.5"/>
<path d="M20.595 10.3109V11.0959L18.895 9.39589C18.7691 9.25361 18.6123 9.14208 18.4366 9.06987C18.2609 8.99766 18.0709 8.96669 17.8814 8.97934C17.6918 8.99199 17.5077 9.04792 17.3431 9.14284C17.1785 9.23776 17.0379 9.36914 16.932 9.52689C16.7421 9.78944 16.6511 10.1107 16.6751 10.4338C16.6991 10.757 16.8365 11.0612 17.063 11.2929L20.99 15.1509C21.1065 15.2778 21.248 15.3792 21.4057 15.4485C21.5634 15.5179 21.7338 15.5537 21.906 15.5537C22.0783 15.5537 22.2487 15.5179 22.4063 15.4485C22.564 15.3792 22.7056 15.2778 22.822 15.1509L26.748 11.2909C26.9746 11.0592 27.112 10.755 27.136 10.4318C27.16 10.1087 27.0689 9.78744 26.879 9.52489C26.7732 9.36714 26.6325 9.23576 26.468 9.14084C26.3034 9.04593 26.1193 8.98999 25.9297 8.97734C25.7401 8.96469 25.5502 8.99566 25.3745 9.06787C25.1988 9.14008 25.0419 9.25161 24.916 9.39389L23.216 11.0939V10.3109C23.216 7.88137 22.2509 5.55137 20.533 3.83344C18.8151 2.11551 16.485 1.15039 14.0555 1.15039C11.626 1.15039 9.29601 2.11551 7.57808 3.83344C5.86015 5.55137 4.89503 7.88137 4.89503 10.3109V14.2369C4.8902 14.4118 4.92047 14.5858 4.98405 14.7488C5.04763 14.9118 5.14324 15.0604 5.26523 15.1858C5.38721 15.3112 5.53309 15.4109 5.69425 15.4789C5.85542 15.547 6.02859 15.5821 6.20353 15.5821C6.37848 15.5821 6.55165 15.547 6.71281 15.4789C6.87397 15.4109 7.01985 15.3112 7.14184 15.1858C7.26382 15.0604 7.35943 14.9118 7.42301 14.7488C7.4866 14.5858 7.51687 14.4118 7.51203 14.2369V10.3109C7.53331 8.58972 8.23198 6.94626 9.45662 5.73667C10.6813 4.52707 12.3332 3.84878 14.0545 3.84878C15.7758 3.84878 17.4278 4.52707 18.6524 5.73667C19.8771 6.94626 20.5758 8.58972 20.597 10.3109H20.595Z" fill="#1B1F3B" stroke="white" stroke-width="0.5"/>
</svg>
