<svg width="29" height="29" viewBox="0 0 29 29" fill="none" xmlns="http://www.w3.org/2000/svg">
<path d="M17.7862 7.25924L18.2282 6.8173L17.7862 7.25924C18.6578 8.13085 19.1475 9.31302 19.1475 10.5457C19.1475 11.7783 18.6578 12.9605 17.7862 13.8321C16.9146 14.7037 15.7324 15.1934 14.4998 15.1934C13.2671 15.1934 12.085 14.7037 11.2133 13.8321C10.3417 12.9605 9.85205 11.7783 9.85205 10.5457C9.85205 9.31302 10.3417 8.13085 11.2133 7.25924C12.085 6.38762 13.2671 5.89795 14.4998 5.89795C15.7324 5.89795 16.9146 6.38762 17.7862 7.25924ZM16.8059 12.8518C17.4175 12.2402 17.7611 11.4106 17.7611 10.5457C17.7611 9.68071 17.4175 8.85117 16.8059 8.23954C16.1943 7.62792 15.3647 7.28431 14.4998 7.28431C13.6348 7.28431 12.8053 7.62792 12.1936 8.23954C11.582 8.85117 11.2384 9.68071 11.2384 10.5457C11.2384 11.4106 11.582 12.2402 12.1936 12.8518C12.8053 13.4634 13.6348 13.807 14.4998 13.807C15.3647 13.807 16.1943 13.4634 16.8059 12.8518Z" fill="black" stroke="#1B1F3B" stroke-width="1.25"/>
<path d="M14.586 19.2727C13.0209 19.2716 11.4788 19.6486 10.0907 20.3715C8.70255 21.0945 7.50963 22.1421 6.61337 23.4251L6.34736 23.8059L14.5 26.3636L14.4993 26.8636C14.4996 26.8636 14.4998 26.8636 14.5001 26.8636C17.3886 26.8675 20.1867 25.856 22.4051 24.0058L22.7618 23.7083L22.4913 23.3307C21.5913 22.0742 20.4045 21.0505 19.0294 20.3448C17.6546 19.6391 16.1314 19.2716 14.586 19.2727ZM14.586 19.2727L14.5857 19.7727L14.5853 19.2727C14.5855 19.2727 14.5858 19.2727 14.586 19.2727ZM2.13636 14.4999V14.5C2.13636 17.3707 3.11612 20.0145 4.7576 22.1134L5.15673 22.6237L5.54925 22.1083C6.60881 20.7168 7.97573 19.5892 9.54321 18.8134C11.1107 18.0377 12.8363 17.6348 14.5852 17.6364H14.5862C16.3124 17.6347 18.0163 18.0271 19.568 18.7837C21.1197 19.5403 22.4782 20.6411 23.54 22.0022L23.9388 22.5133L24.3318 21.9978C25.5221 20.4367 26.3235 18.6146 26.6698 16.6822C27.0161 14.7499 26.8972 12.7629 26.3231 10.8856C25.7489 9.00833 24.736 7.29475 23.3681 5.88665C22.0003 4.47856 20.3168 3.41643 18.4569 2.78815C16.597 2.15987 14.6143 1.9835 12.6727 2.27364C10.7312 2.56377 8.88662 3.31207 7.29168 4.45662C5.69674 5.60116 4.39728 7.10905 3.5008 8.85552C2.60432 10.602 2.13661 12.5368 2.13636 14.4999ZM0.5 14.5C0.5 6.76819 6.76819 0.5 14.5 0.5C22.2318 0.5 28.5 6.76819 28.5 14.5C28.5 22.2318 22.2318 28.5 14.5 28.5C6.76819 28.5 0.5 22.2318 0.5 14.5Z" fill="black" stroke="#1B1F3B"/>
</svg>
