<svg width="27" height="29" viewBox="0 0 27 29" fill="none" xmlns="http://www.w3.org/2000/svg">
<path d="M20.293 27.6043H1V24.1313C5.34116 21.9402 10.2971 21.2863 15.058 22.2763C16.8788 22.6547 18.6396 23.2791 20.292 24.1323L20.293 27.6043Z" stroke="#1B1F3B" stroke-width="1.8"/>
<path d="M10.6438 19.6944C11.7712 19.6944 12.8732 19.3601 13.8106 18.7338C14.748 18.1075 15.4785 17.2173 15.91 16.1757C16.3414 15.1342 16.4543 13.9881 16.2343 12.8824C16.0144 11.7767 15.4715 10.7611 14.6744 9.96393C13.8772 9.16677 12.8616 8.6239 11.7559 8.40396C10.6502 8.18402 9.50409 8.2969 8.46255 8.72832C7.42101 9.15974 6.53079 9.89033 5.90447 10.8277C5.27815 11.765 4.94385 12.8671 4.94385 13.9944C4.94385 15.5062 5.54438 16.956 6.61334 18.0249C7.6823 19.0939 9.13211 19.6944 10.6438 19.6944V19.6944Z" stroke="#1B1F3B" stroke-width="1.8"/>
<path d="M22.9172 4.41334L25.8352 1.52334C25.9306 1.42587 25.9884 1.29784 25.9984 1.16189C26.0085 1.02593 25.9702 0.890784 25.8902 0.780341C25.8457 0.713966 25.7865 0.658688 25.7173 0.618754C25.648 0.578821 25.5705 0.555295 25.4907 0.549984C25.411 0.544672 25.3311 0.557717 25.2571 0.588116C25.1832 0.618515 25.1172 0.665459 25.0642 0.725341L22.1462 3.64334L19.2282 0.725341C19.1753 0.665459 19.1093 0.618515 19.0354 0.588116C18.9614 0.557717 18.8815 0.544672 18.8017 0.549984C18.722 0.555295 18.6445 0.578821 18.5752 0.618754C18.506 0.658688 18.4468 0.713966 18.4022 0.780341C18.3223 0.890784 18.284 1.02593 18.2941 1.16189C18.3041 1.29784 18.3619 1.42587 18.4572 1.52334L21.3752 4.41334L18.4572 7.30334C18.3619 7.40081 18.3041 7.52884 18.2941 7.6648C18.284 7.80076 18.3223 7.9359 18.4022 8.04634C18.4468 8.11272 18.506 8.16799 18.5752 8.20793C18.6445 8.24786 18.722 8.27139 18.8017 8.2767C18.8815 8.28201 18.9614 8.26897 19.0354 8.23857C19.1093 8.20817 19.1753 8.16122 19.2282 8.10134L22.1472 5.18934L25.0652 8.10734C25.1182 8.16722 25.1842 8.21417 25.2581 8.24457C25.3321 8.27496 25.412 8.28801 25.4917 8.2827C25.5715 8.27739 25.649 8.25386 25.7183 8.21393C25.7875 8.17399 25.8467 8.11872 25.8912 8.05234C25.9712 7.9419 26.0095 7.80676 25.9994 7.6708C25.9894 7.53484 25.9316 7.40681 25.8362 7.30934L22.9172 4.41334Z" fill="#1B1F3B" stroke="#1B1F3B"/>
</svg>
