<svg width="28" height="27" viewBox="0 0 28 27" fill="none" xmlns="http://www.w3.org/2000/svg">
<path d="M26.063 1.45411H17.619C17.4946 1.45411 17.3753 1.50352 17.2873 1.59148C17.1994 1.67943 17.15 1.79872 17.15 1.92311V10.3671C17.1483 10.4605 17.175 10.5523 17.2263 10.6303C17.2777 10.7083 17.3514 10.7691 17.4379 10.8045C17.5243 10.8399 17.6195 10.8485 17.7108 10.8289C17.8022 10.8094 17.8856 10.7628 17.95 10.6951L19.78 8.95911H26.066C26.1904 8.95911 26.3097 8.9097 26.3976 8.82174C26.4856 8.73379 26.535 8.6145 26.535 8.49011V1.92311C26.535 1.86127 26.5227 1.80004 26.499 1.74294C26.4752 1.68584 26.4404 1.634 26.3965 1.59041C26.3527 1.54682 26.3006 1.51234 26.2434 1.48895C26.1861 1.46555 26.1248 1.45372 26.063 1.45411V1.45411Z" stroke="#1B1F3B" stroke-width="1.8"/>
<path d="M18.548 25.807H1V22.648C4.94859 20.6548 9.45645 20.0597 13.787 20.96C15.4432 21.304 17.0449 21.8719 18.548 22.648V25.807Z" stroke="#1B1F3B" stroke-width="1.8"/>
<path d="M9.77489 18.6162C10.8008 18.6162 11.8037 18.312 12.6567 17.742C13.5098 17.172 14.1746 16.3618 14.5672 15.4139C14.9597 14.4661 15.0624 13.4231 14.8622 12.4169C14.6619 11.4107 14.1678 10.4864 13.4423 9.76107C12.7168 9.0357 11.7925 8.54176 10.7862 8.34173C9.77997 8.14171 8.737 8.24457 7.78922 8.63731C6.84144 9.03006 6.03141 9.69505 5.46157 10.5482C4.89174 11.4013 4.58769 12.4043 4.58789 13.4302C4.58789 14.8059 5.13438 16.1252 6.10713 17.098C7.07988 18.0707 8.39921 18.6172 9.77489 18.6172V18.6162Z" stroke="#1B1F3B" stroke-width="1.8"/>
</svg>
