<svg width="16" height="27" viewBox="0 0 16 27" fill="none" xmlns="http://www.w3.org/2000/svg">
<path d="M8.32884 11.7225C5.07384 10.8765 4.02884 10.0095 4.02884 8.64748C4.02884 7.08449 5.46984 5.98748 7.89984 5.98748C10.4518 5.98748 11.3998 7.20648 11.4838 8.99848H14.6528C14.6217 7.70049 14.149 6.45188 13.3128 5.45871C12.4765 4.46553 11.3266 3.78714 10.0528 3.53548V0.396484H5.75284V3.49648C2.97184 4.10548 0.734844 5.89648 0.734844 8.67248C0.734844 11.9845 3.48084 13.6335 7.47384 14.5935C11.0658 15.4535 11.7738 16.7085 11.7738 18.0555C11.7738 19.0375 11.0738 20.6145 7.90284 20.6145C4.94984 20.6145 3.78084 19.2885 3.62984 17.6035H0.464844C0.643844 20.7435 2.98784 22.5035 5.74784 23.0945V26.2055H10.0478V23.1205C12.8368 22.5825 15.0658 20.9695 15.0658 18.0205C15.0658 13.9635 11.5818 12.5725 8.32684 11.7205L8.32884 11.7225Z" fill="#1B1F3B" stroke="white" stroke-width="0.3"/>
</svg>
