<svg width="29" height="26" viewBox="0 0 29 26" fill="none" xmlns="http://www.w3.org/2000/svg">
<path d="M27.7887 22.0304L16.0777 1.73032C15.8597 1.37819 15.5109 1.12702 15.1078 1.03196C14.7046 0.936895 14.2803 1.00576 13.9278 1.22336C13.7222 1.35086 13.5488 1.52438 13.4217 1.73032L1.70982 22.0304C1.60717 22.2078 1.54044 22.4038 1.51353 22.607C1.48662 22.8103 1.49991 23.0169 1.55284 23.2149C1.60577 23.413 1.69741 23.5987 1.82213 23.7614C1.94684 23.9242 2.10239 24.0608 2.27989 24.1634C2.51057 24.2966 2.77134 24.3685 3.0377 24.3724H26.4618C26.6669 24.3694 26.8694 24.326 27.0577 24.2447C27.246 24.1634 27.4164 24.0458 27.5592 23.8986C27.702 23.7514 27.8144 23.5775 27.89 23.3868C27.9656 23.1961 28.003 22.9924 27.9999 22.7873C27.995 22.5212 27.9222 22.2607 27.7887 22.0304Z" stroke="#1B1F3B" stroke-width="1.8" stroke-miterlimit="10" stroke-linecap="round"/>
<path d="M14.7495 21.2495C14.3355 21.2495 13.9385 21.085 13.6458 20.7922C13.353 20.4995 13.1885 20.1025 13.1885 19.6885C13.1885 19.2745 13.353 18.8774 13.6458 18.5847C13.9385 18.2919 14.3355 18.1274 14.7495 18.1274C15.1635 18.1274 15.5605 18.2919 15.8533 18.5847C16.146 18.8774 16.3105 19.2745 16.3105 19.6885C16.3105 20.1025 16.146 20.4995 15.8533 20.7922C15.5605 21.085 15.1635 21.2495 14.7495 21.2495Z" fill="#1B1F3B"/>
<path d="M16.3096 15.0024C16.3096 15.4165 16.1453 15.8136 15.8525 16.1065C15.5598 16.3994 15.1626 16.5641 14.7485 16.5644C14.3343 16.5644 13.937 16.3998 13.644 16.1069C13.3511 15.8139 13.1865 15.4166 13.1865 15.0024V8.75537C13.1865 8.3411 13.3511 7.94381 13.644 7.65088C13.937 7.35795 14.3343 7.19336 14.7485 7.19336C15.1626 7.19362 15.5598 7.35834 15.8525 7.65125C16.1453 7.94415 16.3096 8.34128 16.3096 8.75537V15.0024Z" fill="#1B1F3B"/>
</svg>
