<svg width="28" height="28" viewBox="0 0 28 28" fill="none" xmlns="http://www.w3.org/2000/svg">
<path d="M13.571 18.4767C13.1944 18.4721 12.8348 18.3186 12.571 18.0497L12.357 17.8357C12.357 17.7647 12.286 17.6937 12.215 17.6217C12.144 17.5497 12.215 17.4077 12.144 17.3367V17.0517C12.1486 16.675 12.3021 16.3155 12.571 16.0517C12.6979 15.9135 12.852 15.8032 13.0237 15.7277C13.1955 15.6523 13.381 15.6133 13.5685 15.6133C13.7561 15.6133 13.9416 15.6523 14.1133 15.7277C14.2851 15.8032 14.4392 15.9135 14.566 16.0517C14.835 16.3155 14.9885 16.675 14.993 17.0517V17.3367C14.922 17.4077 14.922 17.4787 14.851 17.6217C14.78 17.7647 14.78 17.7637 14.78 17.8357L14.566 18.0497C14.3035 18.3174 13.946 18.4708 13.571 18.4767Z" fill="#1B1F3B"/>
<path d="M13.5708 14.2027C13.2918 14.1992 13.02 14.1138 12.789 13.9572C12.5581 13.8006 12.3782 13.5796 12.2717 13.3217C12.1652 13.0637 12.1368 12.7802 12.19 12.5063C12.2432 12.2324 12.3756 11.9801 12.5708 11.7807C13.0317 11.3953 13.5643 11.1047 14.1378 10.9257L14.3518 10.7837C14.7788 10.6519 15.1438 10.3702 15.3794 9.99056C15.615 9.61087 15.7053 9.15881 15.6338 8.71772C15.5514 8.32132 15.3505 7.95929 15.0579 7.67949C14.7652 7.3997 14.3945 7.21531 13.9948 7.15072C13.5477 7.05332 13.0813 7.09723 12.6601 7.27636C12.239 7.4555 11.8838 7.76103 11.6438 8.15072C11.5605 8.31997 11.4444 8.47099 11.3023 8.59503C11.1601 8.71906 10.9948 8.81363 10.8158 8.87326C10.6368 8.93289 10.4478 8.95639 10.2596 8.94239C10.0715 8.92839 9.88803 8.87718 9.71984 8.79172C9.38607 8.5967 9.14048 8.28036 9.03428 7.90866C8.92808 7.53697 8.96948 7.13863 9.14984 6.79672C9.68014 5.86871 10.4871 5.12951 11.4579 4.68237C12.4287 4.23524 13.5149 4.10251 14.5648 4.30272C15.5191 4.49856 16.3966 4.96575 17.0918 5.64818C17.787 6.3306 18.2703 7.19923 18.4838 8.14972C18.664 9.22922 18.4733 10.3379 17.9429 11.2952C17.4125 12.2525 16.5736 13.002 15.5628 13.4217H15.2778L14.5658 13.7777C14.2878 14.0251 13.9368 14.175 13.5658 14.2047L13.5708 14.2027Z" fill="#1B1F3B"/>
<path d="M25.2561 1.46777H2.27706C1.93838 1.46777 1.61357 1.60231 1.37409 1.8418C1.1346 2.08128 1.00006 2.40609 1.00006 2.74477V25.7238C0.997532 25.9763 1.07072 26.2238 1.21018 26.4344C1.34965 26.645 1.54899 26.8089 1.78252 26.9051C2.01604 27.0014 2.27303 27.0254 2.52034 26.9742C2.76766 26.923 2.99396 26.7988 3.17006 26.6178L8.14906 21.8948H25.2561C25.5947 21.8948 25.9196 21.7602 26.159 21.5207C26.3985 21.2813 26.5331 20.9565 26.5331 20.6178V2.74477C26.5331 2.40609 26.3985 2.08128 26.159 1.8418C25.9196 1.60231 25.5947 1.46777 25.2561 1.46777V1.46777Z" stroke="#1B1F3B" stroke-width="2"/>
</svg>
