<svg width="31" height="37" viewBox="0 0 31 37" fill="none" xmlns="http://www.w3.org/2000/svg">
<path d="M15.5 31C24.0604 31 31 24.0604 31 15.5C31 6.93959 24.0604 0 15.5 0C6.93959 0 0 6.93959 0 15.5C0 24.0604 6.93959 31 15.5 31Z" fill="#1B1F3B"/>
<path d="M15.844 35.6741C15.7537 35.816 15.6291 35.9327 15.4816 36.0136C15.3342 36.0945 15.1687 36.137 15.0005 36.137C14.8324 36.137 14.6669 36.0945 14.5195 36.0136C14.372 35.9327 14.2474 35.816 14.157 35.6741L8.97905 27.5371C8.88284 27.386 8.829 27.2118 8.82316 27.0327C8.81732 26.8536 8.85969 26.6763 8.94585 26.5192C9.032 26.3621 9.15878 26.2311 9.31291 26.1397C9.46705 26.0484 9.64289 26.0002 9.82205 26.0001H20.178C20.3573 26 20.5333 26.0481 20.6875 26.1394C20.8418 26.2306 20.9687 26.3617 21.055 26.5188C21.1413 26.6759 21.1837 26.8533 21.1779 27.0324C21.1721 27.2116 21.1183 27.3859 21.022 27.5371L15.844 35.6741Z" fill="#1B1F3B"/>
<path d="M15.5 19C17.433 19 19 17.433 19 15.5C19 13.567 17.433 12 15.5 12C13.567 12 12 13.567 12 15.5C12 17.433 13.567 19 15.5 19Z" fill="white"/>
</svg>
