<svg width="25" height="25" viewBox="0 0 25 25" fill="none" xmlns="http://www.w3.org/2000/svg">
<path d="M0 10.406H10.5305V0H0V10.406ZM3.5105 3.469H7.01998V6.937H3.5105V3.469ZM14.04 0V10.406H24.5704V0H14.04ZM21.0599 6.937H17.5505V3.469H21.061L21.0599 6.937ZM0 24.28H10.5305V13.874H0V24.28ZM3.5105 17.343H7.01998V20.812H3.5105V17.343ZM22.8157 13.874H24.5704V20.811H19.3082V19.077H17.5505V24.277H14.04V13.874H19.3022V15.608H22.8127L22.8157 13.874ZM22.8157 22.546H24.5704V24.28H22.8157V22.546ZM19.3052 22.546H21.0599V24.28H19.3052V22.546Z" fill="#6D80C5"/>
</svg>
