<svg width="20" height="21" viewBox="0 0 20 21" fill="none" xmlns="http://www.w3.org/2000/svg">
<path d="M10 19.5039C14.9706 19.5039 19 15.4745 19 10.5039C19 5.53334 14.9706 1.50391 10 1.50391C5.02944 1.50391 1 5.53334 1 10.5039C1 15.4745 5.02944 19.5039 10 19.5039Z" stroke="#1B1F3B" stroke-width="1.7" stroke-linecap="round" stroke-linejoin="round"/>
<path d="M9.99997 14.3608C12.1302 14.3608 13.8571 12.6339 13.8571 10.5036C13.8571 8.37339 12.1302 6.64648 9.99997 6.64648C7.86972 6.64648 6.14282 8.37339 6.14282 10.5036C6.14282 12.6339 7.86972 14.3608 9.99997 14.3608Z" stroke="#1B1F3B" stroke-width="1.7" stroke-linecap="round" stroke-linejoin="round"/>
<path d="M6.88119 12.2861L1 12.6425M7.86139 1.50391L8.21782 7.38509L7.86139 1.50391ZM11.7822 7.38509L12.1386 1.50391L11.7822 7.38509ZM7.86139 19.5039L8.21782 13.6227L7.86139 19.5039ZM11.7822 13.6227L12.1386 19.5039L11.7822 13.6227ZM19 8.36529L13.1188 8.72173L19 8.36529ZM13.1188 12.2861L19 12.6425L13.1188 12.2861ZM1 8.36529L6.88119 8.72173L1 8.36529Z" stroke="#1B1F3B" stroke-width="1.7" stroke-linecap="round" stroke-linejoin="round"/>
</svg>
