<svg width="10" height="10" viewBox="0 0 10 10" fill="none" xmlns="http://www.w3.org/2000/svg">
<rect width="10" height="10" rx="2" fill="#CADC31"/>
<path d="M5.48113 4.49989L4.48868 4.49989C4.19094 4.49989 3.99245 4.29986 3.99245 3.9998C3.99245 3.69974 4.19094 3.49969 4.48868 3.49969L5.97735 3.49969C6.27509 3.49969 6.47358 3.29966 6.47358 2.9996C6.4775 2.93289 6.46736 2.8661 6.44381 2.80363C6.42026 2.74116 6.38384 2.68444 6.33695 2.63719C6.29007 2.58993 6.23378 2.55323 6.17179 2.5295C6.10981 2.50577 6.04354 2.49553 5.97735 2.49949L5.48113 2.49949C5.48113 2.20005 5.28263 2 4.9849 2C4.68716 2 4.48868 2.20005 4.48868 2.49949C4.09385 2.49949 3.7152 2.65757 3.43602 2.93893C3.15684 3.22029 3 3.60189 3 3.9998C3 4.3977 3.15684 4.77931 3.43602 5.06067C3.7152 5.34203 4.09385 5.50011 4.48868 5.50011L5.48113 5.50011C5.77886 5.50011 5.97735 5.70014 5.97735 6.0002C5.97735 6.30026 5.77886 6.49969 5.48113 6.49969L3.99245 6.49969C3.69472 6.49969 3.49684 6.69972 3.49684 6.99978C3.49684 7.29985 3.69472 7.49989 3.99245 7.49989L4.48868 7.49989C4.48868 7.79995 4.68716 8 4.9849 8C5.28263 8 5.48113 7.79995 5.48113 7.49989C5.67912 7.50394 5.87593 7.46814 6.06002 7.39457C6.24412 7.32101 6.4118 7.21116 6.55325 7.07147C6.69469 6.93178 6.80706 6.76506 6.88378 6.58106C6.96049 6.39706 7 6.19948 7 5.9999C7 5.80032 6.96049 5.60273 6.88378 5.41873C6.80706 5.23472 6.69469 5.068 6.55325 4.92831C6.4118 4.78862 6.24412 4.67879 6.06002 4.60523C5.87593 4.53166 5.67912 4.49584 5.48113 4.49989Z" fill="white"/>
</svg>
