<svg width="27" height="18" viewBox="0 0 27 18" fill="none" xmlns="http://www.w3.org/2000/svg">
<mask id="path-1-inside-1_1586_3253" fill="white">
<path d="M0 3C0 2.20435 0.355579 1.44129 0.988515 0.87868C1.62145 0.31607 2.47989 0 3.375 0H23.625C24.5201 0 25.3785 0.31607 26.0115 0.87868C26.6444 1.44129 27 2.20435 27 3V15C27 15.7956 26.6444 16.5587 26.0115 17.1213C25.3785 17.6839 24.5201 18 23.625 18H3.375C2.47989 18 1.62145 17.6839 0.988515 17.1213C0.355579 16.5587 0 15.7956 0 15V3ZM3.375 1.5C2.92745 1.5 2.49822 1.65804 2.18176 1.93934C1.86529 2.22064 1.6875 2.60218 1.6875 3V4.5H25.3125V3C25.3125 2.60218 25.1347 2.22064 24.8182 1.93934C24.5018 1.65804 24.0726 1.5 23.625 1.5H3.375ZM25.3125 7.5H1.6875V15C1.6875 15.3978 1.86529 15.7794 2.18176 16.0607C2.49822 16.342 2.92745 16.5 3.375 16.5H23.625C24.0726 16.5 24.5018 16.342 24.8182 16.0607C25.1347 15.7794 25.3125 15.3978 25.3125 15V7.5Z"/>
</mask>
<path d="M0 3C0 2.20435 0.355579 1.44129 0.988515 0.87868C1.62145 0.31607 2.47989 0 3.375 0H23.625C24.5201 0 25.3785 0.31607 26.0115 0.87868C26.6444 1.44129 27 2.20435 27 3V15C27 15.7956 26.6444 16.5587 26.0115 17.1213C25.3785 17.6839 24.5201 18 23.625 18H3.375C2.47989 18 1.62145 17.6839 0.988515 17.1213C0.355579 16.5587 0 15.7956 0 15V3ZM3.375 1.5C2.92745 1.5 2.49822 1.65804 2.18176 1.93934C1.86529 2.22064 1.6875 2.60218 1.6875 3V4.5H25.3125V3C25.3125 2.60218 25.1347 2.22064 24.8182 1.93934C24.5018 1.65804 24.0726 1.5 23.625 1.5H3.375ZM25.3125 7.5H1.6875V15C1.6875 15.3978 1.86529 15.7794 2.18176 16.0607C2.49822 16.342 2.92745 16.5 3.375 16.5H23.625C24.0726 16.5 24.5018 16.342 24.8182 16.0607C25.1347 15.7794 25.3125 15.3978 25.3125 15V7.5Z" fill="#1B1F3B"/>
<path d="M0 3H-3H0ZM3.375 0V-3V0ZM0 15H-3H0ZM3.375 1.5V-1.5V1.5ZM1.6875 3H-1.3125H1.6875ZM1.6875 4.5H-1.3125V7.5H1.6875V4.5ZM25.3125 4.5V7.5H28.3125V4.5H25.3125ZM23.625 1.5V-1.5V1.5ZM25.3125 7.5H28.3125V4.5H25.3125V7.5ZM1.6875 7.5V4.5H-1.3125V7.5H1.6875ZM1.6875 15H-1.3125H1.6875ZM3 3C3 3.05285 2.98756 3.09464 2.97616 3.1191C2.96522 3.14257 2.96044 3.13972 2.98161 3.12091L-1.00458 -1.36355C-2.2314 -0.273039 -3 1.28703 -3 3H3ZM2.98161 3.12091C3.03216 3.07597 3.16893 3 3.375 3V-3C1.79086 -3 0.210738 -2.44383 -1.00458 -1.36355L2.98161 3.12091ZM3.375 3H23.625V-3H3.375V3ZM23.625 3C23.8311 3 23.9678 3.07597 24.0184 3.12091L28.0046 -1.36355C26.7893 -2.44383 25.2091 -3 23.625 -3V3ZM24.0184 3.12091C24.0396 3.13972 24.0348 3.14257 24.0238 3.1191C24.0124 3.09464 24 3.05285 24 3H30C30 1.28703 29.2314 -0.27304 28.0046 -1.36355L24.0184 3.12091ZM24 3V15H30V3H24ZM24 15C24 14.9472 24.0124 14.9054 24.0238 14.8809C24.0348 14.8574 24.0396 14.8603 24.0184 14.8791L28.0046 19.3635C29.2314 18.273 30 16.713 30 15H24ZM24.0184 14.8791C23.9678 14.924 23.8311 15 23.625 15V21C25.2091 21 26.7893 20.4438 28.0046 19.3635L24.0184 14.8791ZM23.625 15H3.375V21H23.625V15ZM3.375 15C3.16893 15 3.03216 14.924 2.98161 14.8791L-1.00458 19.3635C0.210737 20.4438 1.79085 21 3.375 21V15ZM2.98161 14.8791C2.96044 14.8603 2.96522 14.8574 2.97616 14.8809C2.98756 14.9054 3 14.9472 3 15H-3C-3 16.713 -2.2314 18.273 -1.00458 19.3635L2.98161 14.8791ZM3 15V3H-3V15H3ZM3.375 -1.5C2.23841 -1.5 1.08751 -1.10186 0.188666 -0.302888L4.17485 4.18157C3.90894 4.41793 3.61649 4.5 3.375 4.5V-1.5ZM0.188666 -0.302888C-0.721691 0.506317 -1.3125 1.68486 -1.3125 3H4.6875C4.6875 3.51949 4.45227 3.93497 4.17485 4.18157L0.188666 -0.302888ZM-1.3125 3V4.5H4.6875V3H-1.3125ZM1.6875 7.5H25.3125V1.5H1.6875V7.5ZM28.3125 4.5V3H22.3125V4.5H28.3125ZM28.3125 3C28.3125 1.68485 27.7217 0.506316 26.8113 -0.302888L22.8252 4.18157C22.5477 3.93497 22.3125 3.5195 22.3125 3H28.3125ZM26.8113 -0.302888C25.9125 -1.10186 24.7616 -1.5 23.625 -1.5V4.5C23.3835 4.5 23.0911 4.41793 22.8252 4.18157L26.8113 -0.302888ZM23.625 -1.5H3.375V4.5H23.625V-1.5ZM25.3125 4.5H1.6875V10.5H25.3125V4.5ZM-1.3125 7.5V15H4.6875V7.5H-1.3125ZM-1.3125 15C-1.3125 16.3151 -0.72169 17.4937 0.188666 18.3029L4.17485 13.8184C4.45227 14.065 4.6875 14.4805 4.6875 15H-1.3125ZM0.188666 18.3029C1.08751 19.1019 2.23841 19.5 3.375 19.5V13.5C3.61649 13.5 3.90894 13.5821 4.17485 13.8184L0.188666 18.3029ZM3.375 19.5H23.625V13.5H3.375V19.5ZM23.625 19.5C24.7616 19.5 25.9125 19.1019 26.8113 18.3029L22.8252 13.8184C23.0911 13.5821 23.3835 13.5 23.625 13.5V19.5ZM26.8113 18.3029C27.7217 17.4937 28.3125 16.3151 28.3125 15H22.3125C22.3125 14.4805 22.5477 14.065 22.8252 13.8184L26.8113 18.3029ZM28.3125 15V7.5H22.3125V15H28.3125Z" fill="#1B1F3B" mask="url(#path-1-inside-1_1586_3253)"/>
</svg>
