<svg width="60" height="42" viewBox="0 0 60 42" fill="none" xmlns="http://www.w3.org/2000/svg">
<path d="M28.4068 39.2346C36.2566 35.4492 58.0815 23.0917 58.4601 22.779C58.8388 22.4663 60.8593 21.3279 57.9709 19.7726C54.4274 17.8662 39.8333 13.779 35.2561 15.8336C30.6816 17.8881 4.46745 31.1179 3.93399 31.4333C3.40053 31.746 -1.09656 33.8417 1.10085 35.6522C3.00803 37.383 8.29011 39.6927 11.1841 40.5293C16.8697 42.1696 22.4613 42.1038 28.4068 39.2373V39.2346Z" fill="black" fill-opacity="0.1"/>
<path fill-rule="evenodd" clip-rule="evenodd" d="M30.3304 30.1715C30.2032 30.7915 30.0014 31.4333 29.7223 32.0725C29.4182 32.7665 29.0506 33.3946 28.6443 33.9377L27.1241 37.3364L24.2909 36.0664C24.2716 36.0581 24.2495 36.0499 24.2301 36.0417C22.486 35.2846 22.1184 32.2837 23.4065 29.3349C24.6945 26.3861 27.1545 24.6114 28.8986 25.3657C28.9179 25.3739 28.9345 25.3822 28.9539 25.3904L31.8838 26.7016L30.3331 30.1688L30.3304 30.1715Z" fill="black"/>
<path d="M32.6271 33.3692C33.9117 30.4231 33.5369 27.4265 31.7899 26.6763C30.0429 25.926 27.5852 27.7061 26.3005 30.6523C25.0159 33.5984 25.3907 36.595 27.1377 37.3452C28.8847 38.0955 31.3424 36.3154 32.6271 33.3692Z" fill="black"/>
<path d="M31.9358 33.0302C32.8997 30.8195 32.6192 28.5714 31.3093 28.0089C29.9994 27.4463 28.1561 28.7824 27.1921 30.993C26.2282 33.2037 26.5086 35.4518 27.8185 36.0143C29.1285 36.5769 30.9718 35.2408 31.9358 33.0302Z" fill="url(#paint0_linear_577_7513)"/>
<path fill-rule="evenodd" clip-rule="evenodd" d="M29.2583 31.0247C29.2168 31.0658 29.1726 31.1124 29.1339 31.1591L28.3655 29.8671C28.6364 29.5269 28.9321 29.2444 29.2362 29.0305L29.2555 31.0247H29.2583ZM29.3025 35.312C28.8851 35.4739 28.4733 35.4931 28.1112 35.3367C28.1057 35.3367 28.1029 35.334 28.0974 35.3312L29.2085 33.3672C29.2334 33.3672 29.2583 33.3672 29.2804 33.3617L29.2997 35.312H29.3025ZM30.6182 34.3273L29.8608 33.049C29.7834 33.1231 29.7033 33.1834 29.6231 33.2328L29.6425 35.1475C29.9797 34.9554 30.3114 34.6757 30.6182 34.3273ZM30.1289 30.7421C30.1759 30.7613 30.2174 30.7888 30.2561 30.8217L31.3479 28.8933C31.2484 28.8083 31.1378 28.7369 31.0162 28.6848C30.5822 28.4956 30.0764 28.5586 29.5761 28.822L29.5955 30.7805C29.7807 30.6927 29.9659 30.6735 30.1262 30.7421H30.1289ZM31.5552 32.8104L30.2727 32.4812C30.2202 32.5882 30.1593 32.6869 30.0958 32.7747L30.8476 34.042C31.1074 33.6964 31.3424 33.2986 31.5331 32.8598C31.5414 32.8433 31.5469 32.8241 31.5552 32.8076V32.8104ZM28.7994 31.6994C28.7911 31.7159 28.7856 31.7324 28.7773 31.7488L27.4865 31.4169C27.5197 31.3291 27.5556 31.2414 27.5943 31.1536C27.7519 30.7915 27.9398 30.4596 28.1444 30.1606L28.9183 31.4635C28.8768 31.5376 28.8354 31.6172 28.7994 31.6994ZM30.4026 32.1658C30.4385 32.056 30.4662 31.9463 30.4855 31.8421L32.0057 30.9478C31.9808 31.4334 31.873 31.96 31.6796 32.4922L30.4026 32.1658ZM27.3732 31.7406C27.1825 32.3303 27.0996 32.9091 27.1161 33.4276L28.6115 32.547C28.6115 32.3989 28.6281 32.2371 28.6695 32.0725L27.3704 31.7406H27.3732ZM27.8044 35.1475L28.8796 33.2493C28.7829 33.1697 28.711 33.0518 28.664 32.9119L27.1465 33.8034C27.2267 34.3849 27.4478 34.8622 27.8016 35.1475H27.8044ZM31.5884 29.1594L30.4579 31.1536C30.4827 31.2386 30.5021 31.3319 30.5076 31.4334L32.0057 30.5528C31.9808 29.996 31.8399 29.5105 31.5884 29.1594Z" fill="#4D4C4C"/>
<path fill-rule="evenodd" clip-rule="evenodd" d="M30.3248 30.1167C30.1977 30.7366 29.9959 31.3758 29.7195 32.0094C29.4182 32.7007 29.0506 33.3261 28.6471 33.8692L27.1241 37.2733L24.2937 36.0033C24.2716 35.9951 24.2522 35.9868 24.2301 35.9759C22.486 35.2215 22.1184 32.2179 23.4065 29.2718C24.6945 26.3231 27.1545 24.5483 28.8986 25.3027C28.9179 25.3109 28.9345 25.3191 28.9539 25.3273L31.8838 26.6385L30.3276 30.114L30.3248 30.1167Z" fill="black"/>
<path d="M31.9031 26.4465C30.159 25.6922 27.6272 27.6233 26.3391 30.5693C25.0511 33.5154 25.4215 36.5135 27.1656 37.2706C28.9097 38.0277 31.3669 36.2529 32.655 33.3069C33.943 30.3608 33.6473 27.2036 31.9031 26.4465Z" fill="black"/>
<path d="M31.7785 32.9077C32.6508 30.7543 32.3521 28.6074 31.1114 28.1124C29.8707 27.6174 28.1577 28.9618 27.2854 31.1152C26.4131 33.2686 26.7118 35.4156 27.9526 35.9106C29.1933 36.4056 30.9063 35.0611 31.7785 32.9077Z" fill="url(#paint1_linear_577_7513)"/>
<path fill-rule="evenodd" clip-rule="evenodd" d="M29.9545 33.101L29.1806 34.906C29.7528 34.7277 30.3498 34.1983 30.8114 33.4412L29.9545 33.101ZM30.4078 32.1849C30.4465 32.0669 30.4769 31.949 30.4991 31.8365L31.367 29.8149C31.6627 30.4814 31.6378 31.4963 31.2564 32.5222L30.4078 32.1849ZM27.9313 31.2001C28.5642 29.76 29.6975 28.863 30.5682 29.0797L29.9352 30.5527C29.5399 30.5335 29.07 30.9258 28.7798 31.5347L27.9313 31.1974V31.2001ZM28.1275 34.7688L28.7605 33.2958C28.6057 33.1285 28.5283 32.8569 28.5311 32.5387L27.6079 32.1711C27.3508 33.3122 27.5443 34.3409 28.1275 34.7688Z" fill="#484747"/>
<path fill-rule="evenodd" clip-rule="evenodd" d="M52.9267 18.6122C52.9157 19.1307 52.8493 19.6765 52.7167 20.2334C52.5757 20.8368 52.3739 21.3964 52.1252 21.8984L51.3955 24.8966L48.9051 24.2821C48.8857 24.2794 48.8664 24.2739 48.847 24.2712C47.3185 23.9146 46.5695 21.5308 47.1748 18.9469C47.7801 16.3629 49.5132 14.5553 51.0417 14.9118C51.0582 14.9146 51.0748 14.9201 51.0914 14.9228L53.6675 15.5565L52.924 18.615L52.9267 18.6122Z" fill="black"/>
<path d="M55.2727 20.8534C55.8755 18.2706 55.1236 15.8917 53.5933 15.54C52.063 15.1882 50.3338 16.9969 49.731 19.5797C49.1283 22.1625 49.8802 24.5414 51.4105 24.8931C52.9408 25.2448 54.67 23.4362 55.2727 20.8534Z" fill="black"/>
<path d="M54.66 20.6824C55.1123 18.7446 54.5482 16.9597 53.4001 16.6958C52.252 16.4319 50.9547 17.7889 50.5024 19.7268C50.0502 21.6646 50.6143 23.4495 51.7624 23.7133C52.9105 23.9772 54.2078 22.6202 54.66 20.6824Z" fill="url(#paint2_linear_577_7513)"/>
<path fill-rule="evenodd" clip-rule="evenodd" d="M52.1911 19.4489C52.1635 19.4901 52.1358 19.5312 52.1082 19.5778L51.29 18.6397C51.4587 18.3215 51.6577 18.0472 51.8733 17.8305L52.1884 19.4489H52.1911ZM52.8683 22.9244C52.5532 23.1191 52.2215 23.1932 51.9009 23.1191H51.8898L52.5007 21.3581C52.52 21.3553 52.5422 21.3499 52.5615 21.3444L52.8683 22.9244ZM53.7887 21.9314L52.9816 21.007C52.9291 21.0783 52.8766 21.1386 52.8186 21.1908L53.1198 22.7406C53.3631 22.5349 53.5925 22.2606 53.7887 21.9314ZM52.8573 19.0923C52.8987 19.1006 52.9374 19.117 52.9733 19.139L53.5731 17.4108C53.4792 17.356 53.3797 17.3148 53.2719 17.2901C52.8904 17.2024 52.4924 17.3285 52.1248 17.6138L52.4344 19.202C52.5726 19.1033 52.7191 19.0594 52.86 19.0923H52.8573ZM54.325 20.5626L53.2359 20.4858C53.2083 20.5791 53.1751 20.6696 53.1364 20.7519L53.9352 21.6681C54.0955 21.3499 54.2255 20.9933 54.3167 20.6065C54.3194 20.59 54.325 20.5763 54.3277 20.5599L54.325 20.5626ZM51.923 20.0689C51.9202 20.0826 51.9175 20.0963 51.9147 20.1127L50.8146 20.0359C50.8285 19.9591 50.845 19.8823 50.8616 19.8055C50.9363 19.4873 51.0385 19.1911 51.1601 18.9168L51.9838 19.8604C51.9589 19.9262 51.9396 19.9975 51.923 20.0689ZM53.2967 20.2087C53.3106 20.1127 53.3161 20.0195 53.3161 19.9317L54.4162 18.9826C54.4687 19.3803 54.4604 19.8247 54.383 20.2856L53.2995 20.2087H53.2967ZM50.7704 20.3102C50.7041 20.8177 50.7234 21.3005 50.8146 21.7174L51.8981 20.782C51.876 20.6613 51.8677 20.5297 51.876 20.3898L50.7704 20.313V20.3102ZM51.63 23.0149L52.2188 21.3142C52.1276 21.2648 52.0529 21.1798 51.9949 21.0701L50.8948 22.0192C51.0468 22.48 51.2983 22.8338 51.63 23.0149ZM53.8081 17.5919L53.1889 19.3776C53.2221 19.4434 53.2497 19.5175 53.2719 19.597L54.3554 18.6617C54.2531 18.2118 54.0651 17.8387 53.8081 17.5919Z" fill="#4D4C4C"/>
<path fill-rule="evenodd" clip-rule="evenodd" d="M52.9376 18.6643C52.9293 19.1883 52.8602 19.7396 52.7275 20.3019C52.5838 20.9109 52.3793 21.476 52.1305 21.9807L51.4036 24.9624L48.9159 24.3479C48.8966 24.3452 48.8772 24.3397 48.8579 24.337C47.3294 23.9804 46.5803 21.5967 47.1856 19.0127C47.791 16.4288 49.524 14.6211 51.0525 14.9777C51.0691 14.9804 51.0829 14.9859 51.0995 14.9886L53.6756 15.6195L52.9348 18.6643H52.9376Z" fill="black"/>
<path d="M55.315 20.8718C55.9246 18.2594 55.1638 15.8533 53.6157 15.4975C52.0675 15.1416 50.3183 16.9709 49.7086 19.5832C49.099 22.1955 49.8598 24.6016 51.4079 24.9575C52.9561 25.3133 54.7053 23.4841 55.315 20.8718Z" fill="black"/>
<path d="M54.5926 21.1497C55.1747 19.3177 54.792 17.5651 53.738 17.2353C52.6839 16.9055 51.3576 18.1233 50.7755 19.9553C50.1935 21.7874 50.5761 23.5399 51.6302 23.8697C52.6842 24.1996 54.0106 22.9818 54.5926 21.1497Z" fill="url(#paint3_linear_577_7513)"/>
<path fill-rule="evenodd" clip-rule="evenodd" d="M53.2195 21.3965L52.8021 22.9326C53.2443 22.7049 53.6672 22.2057 53.9547 21.5473L53.2195 21.3992V21.3965ZM53.4821 20.5626C53.4986 20.4803 53.5069 20.398 53.5125 20.3185L54.0017 18.5245C54.3168 19.021 54.4163 19.8384 54.2228 20.7135L53.4821 20.5626ZM51.3206 20.1237C51.6744 18.8701 52.5063 17.9814 53.2526 18.0335L52.9044 19.3145C52.5754 19.3556 52.2299 19.7397 52.0613 20.2746L51.3206 20.1237ZM51.9038 22.9765L52.2521 21.6982C52.1083 21.5912 52.0143 21.391 51.9757 21.1469L51.1658 20.9823C51.0939 21.9286 51.3759 22.7186 51.9038 22.9792V22.9765Z" fill="url(#paint4_linear_577_7513)"/>
<path fill-rule="evenodd" clip-rule="evenodd" d="M16.1455 13.7653C16.9333 13.0521 18.0334 12.0618 19.4624 10.9564C20.6841 9.95791 22.1573 8.87441 23.9069 7.8485C24.6062 7.43704 25.3304 7.0777 26.0656 6.75951C31.5329 3.95337 35.6928 3.42121 39.2888 3.75587C39.5376 3.77781 39.9273 3.74764 40.3806 3.70923C41.1518 3.6434 42.1026 3.56385 42.8489 3.72021C43.164 3.78604 51.3317 6.65527 54.3335 7.95C56.4479 8.86343 56.7271 9.52451 56.9068 9.94968C56.9234 9.98534 56.9372 10.021 56.951 10.0539C57.1113 10.405 57.2219 11.2115 57.2053 11.8012C57.2053 11.9027 57.2163 12.0015 57.2412 12.1002C57.3214 12.4184 57.4181 13.0356 57.4458 13.2935C57.6392 15.0188 57.5867 16.6153 57.2661 18.3187C57.1611 18.8783 55.4556 20.3651 55.4418 20.195C55.4363 20.1456 55.4418 20.0414 55.4501 19.8905C55.4695 19.5202 55.4999 18.8783 55.428 18.1816C55.3561 17.4711 55.0189 16.1984 53.8193 15.839C52.6225 15.4797 51.3151 16.5303 50.4306 18.1075C49.4605 19.8329 49.4798 21.4102 49.4964 22.6391C49.5019 23.0066 49.5047 23.3413 49.4826 23.6403C49.466 23.8487 49.3333 24.0298 49.1454 24.1258L34.1477 31.9298C34.0371 31.9874 33.921 32.0093 33.8105 32.0038L33.2411 32.3028C33.2162 31.8557 33.2494 31.7103 33.2908 31.6061C33.2743 31.5403 33.2715 31.4662 33.2825 31.3867C33.3047 31.2522 33.3268 31.1151 33.3351 30.9121C33.3682 30.2181 33.4926 27.316 31.4528 26.6412C29.6561 26.0459 27.4007 28.3089 26.3476 30.1358C25.9026 30.9094 25.499 32.0916 25.1977 33.2848C24.9269 34.4205 24.7472 35.5561 24.6947 36.3516C24.6615 36.368 24.6201 36.39 24.5675 36.4174L24.5399 36.4311C24.4791 36.5107 24.3989 36.5793 24.305 36.6259C23.9042 36.8234 23.2491 37.1279 22.4226 37.4406C20.0926 38.4253 16.433 39.5582 13.2626 38.6036C3.91466 35.792 1.96325 32.9996 1.55694 32.237C1.22802 31.6171 1.22525 31.0493 1.22249 30.5281C1.22249 30.4046 1.22249 30.2839 1.21696 30.166L1.20038 28.586C1.19485 28.1224 1.18932 27.6808 1.18379 27.2885C1.1755 26.6247 1.16721 26.1035 1.17273 25.8429C1.17273 25.7908 1.16721 25.7277 1.15891 25.6482C1.10363 25.1133 0.984781 23.9612 2.8892 22.0136C4.84614 20.0112 13.8597 14.9887 14.9404 14.6897C15.0371 14.6623 15.1505 14.6101 15.2749 14.5306C15.5043 14.3386 15.7945 14.078 16.1455 13.7625V13.7653Z" fill="url(#paint5_linear_577_7513)"/>
<path d="M15.6894 15.6718C15.1504 15.2412 15.1255 15.0272 15.2693 14.9284C16.1814 14.3058 16.5324 13.8971 18.2931 12.3308C21.6072 9.37924 22.9312 8.85258 23.249 8.75931C23.3016 8.74285 23.3568 8.75108 23.4066 8.77028L35.5324 13.4609C35.7591 13.5487 35.8226 13.8367 35.6596 14.015C32.8043 17.1119 31.7125 19.7178 29.7666 20.5407C26.8229 21.7833 17.4059 17.0461 15.6894 15.6718Z" fill="url(#paint6_linear_577_7513)"/>
<path d="M37.1935 14.1383C36.1764 15.5619 33.194 19.0539 32.55 20.2718C32.0276 21.2593 48.6809 12.7695 49.1646 12.498C50.1513 11.9439 52.5312 10.1691 52.3101 9.61226C52.0889 9.05816 50.0076 9.14868 48.7583 9.15965C46.7405 9.17885 46.3701 9.10753 43.7526 9.95514C41.1351 10.8027 38.8879 11.7628 37.1935 14.1356V14.1383Z" fill="url(#paint7_linear_577_7513)"/>
<path d="M52.2634 8.57549C52.1777 8.50417 40.6959 3.95345 40.2232 3.96716C38.8716 4.00008 38.6228 3.91779 38.6228 3.91779L49.6873 8.26004L52.2634 8.57824V8.57549Z" fill="url(#paint8_linear_577_7513)"/>
<path d="M15.9518 28.6025C12.1568 28.3886 11.0097 27.9277 10.6946 27.5327C10.4431 27.2173 26.2838 22.1701 33.8545 19.8604C31.3282 22.1262 28.976 24.6004 24.7636 26.5946C24.2826 26.8223 19.6888 28.8165 15.9518 28.6025Z" fill="url(#paint9_linear_577_7513)" fill-opacity="0.21"/>
<path d="M39.7613 18.3846C39.7613 18.5712 39.9603 18.6919 40.1289 18.6096L41.3589 18.0033C41.4474 17.9595 41.5026 17.8689 41.4999 17.7729C41.4999 17.5864 41.2981 17.4657 41.1295 17.548L39.9023 18.157C39.8138 18.2008 39.7613 18.2886 39.7613 18.3874V18.3846Z" fill="#323333"/>
<path d="M47.8239 14.7582C47.8239 14.9448 48.0229 15.0654 48.1915 14.9832L49.4215 14.3769C49.51 14.3331 49.5652 14.2453 49.5625 14.1465C49.5625 13.96 49.3635 13.8393 49.1921 13.9216L47.9649 14.5306C47.8764 14.5744 47.8239 14.6622 47.8239 14.761V14.7582Z" fill="#323333"/>
<path d="M25.7948 20.4501C27.7877 21.081 29.178 20.7628 30.0708 20.4062C31.1902 19.9591 32.3456 18.1322 33.8658 16.1627C34.9216 14.7966 35.1041 14.6019 35.5297 14.1822C35.8282 13.8887 35.9222 13.8064 35.9222 13.6199C35.9222 13.6199 35.8172 13.4909 35.1953 13.266C34.7143 13.0932 32.188 12.0015 31.0824 11.7162L21.5078 18.785C22.9174 19.2404 24.0175 19.885 25.7976 20.4473L25.7948 20.4501Z" fill="black"/>
<path d="M6.85021 28.5668C7.33668 28.8521 10.7309 30.8326 14.9986 30.3553C17.489 30.0755 19.7279 29.3404 21.0822 28.8768C21.5355 28.7204 21.8949 29.0853 21.6433 29.4912C21.2287 30.1633 20.546 30.9835 19.667 31.469C17.8981 32.4482 17.6023 32.6704 15.6703 32.9365C14.1058 33.1532 12.6713 32.8131 12.0549 32.6649C11.527 32.5388 10.1145 32.0395 9.63636 32.1657C9.45393 32.2151 9.21623 33.0517 8.9647 33.0188C8.71317 32.9859 6.25594 32.2837 4.53947 31.1947C2.47198 29.8835 1.67593 28.5092 1.68146 28.3227C1.68699 28.1362 1.58196 26.91 1.62065 26.729C1.66211 26.5507 1.37189 25.7278 1.35531 25.5934C1.32214 25.2971 1.30002 25.1353 1.33043 24.8143C1.41888 23.868 2.32272 22.4992 2.16517 23.0697C2.15135 23.1191 2.14029 23.174 2.13476 23.2261C2.06843 24.0545 1.94681 24.5921 2.44986 25.256C3.72685 26.9292 4.79929 27.3708 6.84192 28.5668H6.85021Z" fill="#211F1F"/>
<g opacity="0.68">
<path opacity="0.68" d="M34.416 30.5747L48.789 23.0944C48.742 22.2193 48.5375 20.1291 49.5104 18.2529L33.034 26.1803C33.6282 26.4162 34.3884 28.0867 34.4132 30.5747H34.416Z" fill="url(#paint10_linear_577_7513)"/>
</g>
<path d="M43.9463 22.2606L47.874 20.2801C47.9625 20.228 48.0205 20.1155 48.0205 19.9893V17.2984C48.0205 17.0653 47.8298 16.9116 47.6612 17.0076L43.7335 18.9881C43.6451 19.0403 43.587 19.1527 43.587 19.2789V21.9698C43.587 22.203 43.7777 22.3566 43.9463 22.2606Z" fill="white"/>
<path d="M39.2308 8.30934L36.3148 9.62052C36.2705 9.63972 36.218 9.64246 36.171 9.626L30.2256 7.39864C30.0653 7.3383 30.0625 7.11611 30.22 7.05028L32.9675 5.90916C33.009 5.89271 33.0559 5.88996 33.1002 5.90368L39.2142 7.95823C39.3773 8.01309 39.3884 8.23528 39.2308 8.30659V8.30934Z" fill="white"/>
<path d="M39.9965 20.2553L37.3873 21.5143C37.1109 21.646 36.8842 22.0218 36.8842 22.3537V25.4561C36.8842 25.7853 37.1081 25.9636 37.3873 25.8538L39.9965 24.817C40.2729 24.7073 40.4996 24.3287 40.4996 23.9749V20.653C40.4996 20.2992 40.2757 20.1236 39.9965 20.258V20.2553Z" fill="url(#paint11_linear_577_7513)"/>
<path d="M39.9964 24.8527L37.3871 25.8896C37.0941 26.0048 36.8564 25.8155 36.8564 25.4671V22.3675C36.8564 22.0191 37.0941 21.6214 37.3871 21.4815L39.9964 20.2224C40.2894 20.0798 40.5271 20.2663 40.5271 20.6421V23.9667C40.5271 24.3397 40.2894 24.7402 39.9964 24.8554V24.8527ZM37.3871 21.5501C37.1245 21.6762 36.9145 22.0301 36.9145 22.3401V25.4425C36.9145 25.7524 37.1273 25.9225 37.3871 25.8183L39.9964 24.7786C40.259 24.6744 40.469 24.3178 40.469 23.9859V20.6641C40.469 20.3321 40.2562 20.1648 39.9964 20.291L37.3871 21.5473V21.5501Z" fill="#C5D01C"/>
<path d="M37.8045 24.4438L37.7575 24.463L37.658 24.9458L37.705 24.9266L37.8045 24.4438Z" fill="#C5D01C"/>
<path d="M37.8736 24.4138L37.846 24.4247L37.7465 24.9103L37.7741 24.8993L37.8736 24.4138Z" fill="#C5D01C"/>
<path d="M37.9235 24.3918L37.9069 24.4L37.8074 24.8856L37.824 24.8773L37.9235 24.3918Z" fill="#C5D01C"/>
<path d="M37.4453 24.5948L37.2933 24.6579L37.1938 25.1379L37.3458 25.0749L37.4453 24.5948Z" fill="#C5D01C"/>
<path d="M37.6031 24.5289L37.5036 24.57L37.4041 25.05L37.5036 25.0089L37.6031 24.5289Z" fill="#C5D01C"/>
<path d="M37.7189 24.4796L37.6443 24.5098L37.5448 24.9925L37.6167 24.9624L37.7189 24.4796Z" fill="#C5D01C"/>
<path d="M39.6898 23.5306L39.8086 23.4812L39.9109 22.9737L39.7921 23.0231L39.6898 23.5306Z" fill="#C5D01C"/>
<path d="M39.8472 23.4618L40.0241 23.3878L40.1264 22.8776L39.9495 22.9571L39.8472 23.4618Z" fill="#C5D01C"/>
<path d="M39.5763 23.5771L39.6509 23.5469L39.756 23.0394L39.6813 23.0723L39.5763 23.5771Z" fill="#C5D01C"/>
<path d="M39.4823 23.6181L39.5403 23.5962L39.6426 23.0887L39.5873 23.1134L39.4823 23.6181Z" fill="#C5D01C"/>
<path d="M39.4131 23.6484L39.4462 23.632L39.5485 23.13L39.5153 23.1437L39.4131 23.6484Z" fill="#C5D01C"/>
<path d="M39.3582 23.673L39.3803 23.662L39.4798 23.1601L39.4605 23.1683L39.3582 23.673Z" fill="#C5D01C"/>
<path d="M40.0214 23.5085L39.9993 23.6264L39.7864 23.7169C39.7616 23.7279 39.7588 23.7526 39.7588 23.7608C39.7588 23.7773 39.7699 23.7883 39.7837 23.7828L39.8998 23.7334C39.9495 23.7115 39.9799 23.7279 39.9744 23.7663L39.9385 23.9474C39.9246 23.994 39.8942 24.0242 39.8583 24.0379L39.2861 24.2738C39.2613 24.2848 39.2447 24.2573 39.253 24.2162L39.3359 23.7938L39.6399 23.6648L39.6178 23.78L39.4188 23.8651L39.405 23.9364L39.593 23.8568L39.5708 23.972L39.3829 24.0516L39.3718 24.1092C39.3691 24.1284 39.3718 24.1229 39.3857 24.1174L39.8224 23.9336C39.839 23.9254 39.85 23.9062 39.85 23.887C39.85 23.887 39.85 23.8568 39.8251 23.8651L39.6731 23.9282C39.6399 23.9419 39.6261 23.9282 39.6317 23.8952L39.6731 23.6895C39.6814 23.6429 39.709 23.6319 39.7284 23.6264L40.0269 23.5002L40.0214 23.5085Z" fill="white"/>
<path d="M39.2475 23.8349C39.2862 23.8212 39.2807 23.8596 39.2696 23.9089L39.2365 24.0708C39.2282 24.1037 39.2199 24.1229 39.1839 24.1366L39.1452 24.1531L39.2116 24.3067L39.1093 24.3478L39.0374 24.197L39.0596 24.0845L39.1425 24.0488C39.1701 24.0379 39.1673 24.0351 39.1701 24.0187V24.0022C39.1812 23.9693 39.1701 23.9693 39.148 23.9803L38.996 24.0433L38.9214 24.4246L38.797 24.4767L38.8965 23.983L39.148 23.876L39.242 23.8349H39.2475Z" fill="white"/>
<path d="M38.7665 24.2602C38.8079 24.2355 38.8135 24.2602 38.8107 24.2848L38.7775 24.4549C38.772 24.4906 38.7499 24.4961 38.6891 24.5235L38.5426 24.5838L38.5675 24.4604L38.667 24.4193C38.6919 24.411 38.7084 24.337 38.678 24.3479L38.5813 24.3891L38.6034 24.2739L38.7029 24.2327C38.7416 24.2163 38.7388 24.1532 38.7029 24.1669L38.5619 24.2245L38.4873 24.603L38.3823 24.6469L38.4818 24.1559L38.7471 24.0435C38.8135 24.016 38.8356 24.038 38.8273 24.0846L38.8079 24.1779C38.7969 24.2245 38.7858 24.2437 38.7637 24.2574L38.7665 24.2602Z" fill="white"/>
<path d="M38.4294 24.1805L38.3298 24.6715L38.2193 24.7181L38.3188 24.2299L38.4294 24.1833V24.1805Z" fill="white"/>
<path d="M38.211 24.6085L38.1862 24.7292L37.9512 24.8252C37.8959 24.8471 37.8849 24.8389 37.907 24.7429L37.9816 24.3671L38.0977 24.3177L38.0645 24.4823L38.0341 24.6332C38.0258 24.6743 38.0397 24.6771 38.0811 24.6606L38.2083 24.6085H38.211Z" fill="white"/>
<path fill-rule="evenodd" clip-rule="evenodd" d="M38.8245 23.4454L38.7249 23.9419L38.8853 23.8733L38.9848 23.3741L38.8245 23.4427V23.4454ZM38.5315 23.6786L38.6476 23.5222L38.7996 23.4564L38.5702 23.7609L38.6697 23.9639L38.4845 24.0434L38.4347 23.9419L38.2993 24.123L38.1473 24.186L38.396 23.8569L38.3021 23.6703L38.4872 23.5908L38.5287 23.6786H38.5315ZM37.4203 24.0516L37.3954 24.1751L37.5032 24.1284L37.4286 24.4905L37.5779 24.4274L37.6525 24.0653L37.7686 24.016L37.7935 23.8898L37.4231 24.0489L37.4203 24.0516ZM37.9427 23.8267L38.1058 23.7554L38.1252 24.1943L37.9621 24.2628V24.1833L37.8183 24.2464L37.7658 24.3479L37.6414 24.4L37.9427 23.8267ZM37.9621 24.0873V23.9584L37.8736 24.1257L37.9621 24.0873ZM39.0815 23.3357L39.4021 23.1958C39.4021 23.1958 39.4215 23.1903 39.416 23.2123L39.3994 23.2946C39.3994 23.311 39.3883 23.322 39.3745 23.3247L39.17 23.4125C39.1534 23.418 39.1451 23.4372 39.1451 23.4482C39.1451 23.4591 39.1506 23.4728 39.1644 23.4674L39.3165 23.4015C39.3524 23.3851 39.3828 23.3823 39.369 23.4344L39.3275 23.6457C39.322 23.6703 39.3192 23.6841 39.2999 23.695L38.9433 23.8459C38.9433 23.8459 38.9323 23.8459 38.9323 23.8349L38.9544 23.7417C38.9544 23.728 38.9654 23.7252 38.9709 23.7197L39.1893 23.6265C39.1893 23.6265 39.2114 23.61 39.2114 23.5881C39.2114 23.5716 39.2031 23.5634 39.1921 23.5689L39.04 23.6347C39.0262 23.6402 39.0124 23.6429 39.0069 23.6347C38.9986 23.6292 38.9986 23.6127 39.0069 23.5826L39.0511 23.3631C39.0566 23.3467 39.0649 23.3357 39.0815 23.3302V23.3357Z" fill="white"/>
<path fill-rule="evenodd" clip-rule="evenodd" d="M38.1775 21.8601L38.0946 22.2743L38.4457 22.1125L38.1969 23.3167L38.6806 23.1055L38.9238 21.8903L39.308 21.7148L39.391 21.2923L38.1775 21.8601Z" fill="#C5D01C"/>
<path style="mix-blend-mode:multiply" opacity="0.5" d="M38.4844 21.9204C38.8658 21.7037 39.3329 21.2236 39.438 20.9164C39.3385 20.3596 38.8934 20.1539 38.3793 20.4611C37.879 20.7573 37.4866 21.4568 37.4755 22.0548C37.6496 22.2029 38.1057 22.1343 38.4844 21.9204Z" fill="url(#paint12_linear_577_7513)"/>
<path style="mix-blend-mode:multiply" opacity="0.5" d="M38.6448 22.1316C38.5177 22.6309 38.5204 23.259 38.6669 23.4181C39.1506 23.3413 39.6454 22.7927 39.8168 22.107C39.9826 21.4349 39.7587 20.8726 39.3137 20.8205C39.0677 21.0372 38.772 21.6324 38.6476 22.1316H38.6448Z" fill="url(#paint13_linear_577_7513)"/>
<path style="mix-blend-mode:multiply" opacity="0.5" d="M37.5278 22.6884C37.7102 23.067 38.111 23.3742 38.3681 23.2947C38.8297 22.7296 39.0093 21.9122 38.7633 21.391C38.5256 20.889 37.9313 20.8835 37.4172 21.3526C37.2873 21.7201 37.3454 22.3154 37.525 22.6884H37.5278Z" fill="url(#paint14_linear_577_7513)"/>
<path d="M8.49435 0.718502L10.6869 4.92524C10.7174 4.98301 10.7728 5.01977 10.8393 5.03028L15.74 5.70514C15.9063 5.72877 15.9728 5.92047 15.8509 6.03338L12.3029 9.30791C12.2558 9.35255 12.2336 9.41558 12.2447 9.4786L13.0818 14.1029C13.1095 14.2604 12.9376 14.3786 12.788 14.3051L8.40288 12.1229C8.34467 12.094 8.2726 12.094 8.2144 12.1229L3.82932 14.3051C3.67964 14.3786 3.50778 14.2604 3.5355 14.1029L4.3726 9.4786C4.38369 9.41558 4.36151 9.35255 4.31439 9.30791L0.77196 6.03075C0.65277 5.92047 0.719295 5.72615 0.882835 5.70251L5.78348 5.02765C5.85 5.01977 5.90544 4.98038 5.93593 4.92261L8.13124 0.718502C8.20608 0.576702 8.41951 0.576702 8.49435 0.718502Z" fill="#CADC31"/>
<defs>
<linearGradient id="paint0_linear_577_7513" x1="26.5748" y1="37.4855" x2="28.636" y2="33.4858" gradientUnits="userSpaceOnUse">
<stop stop-color="#3F3F3F"/>
<stop offset="1" stop-color="#5D5D5D"/>
</linearGradient>
<linearGradient id="paint1_linear_577_7513" x1="27.5901" y1="38.5588" x2="29.2247" y2="30.7524" gradientUnits="userSpaceOnUse">
<stop stop-color="#3F3F3F"/>
<stop offset="1" stop-color="#777676"/>
</linearGradient>
<linearGradient id="paint2_linear_577_7513" x1="50.9655" y1="25.0865" x2="52.0446" y2="21.5358" gradientUnits="userSpaceOnUse">
<stop stop-color="#3F3F3F"/>
<stop offset="1" stop-color="#5D5D5D"/>
</linearGradient>
<linearGradient id="paint3_linear_577_7513" x1="52.1746" y1="26.2301" x2="52.6388" y2="19.6542" gradientUnits="userSpaceOnUse">
<stop stop-color="#3F3F3F"/>
<stop offset="1" stop-color="#777676"/>
</linearGradient>
<linearGradient id="paint4_linear_577_7513" x1="53.1891" y1="21.7366" x2="51.6099" y2="17.4934" gradientUnits="userSpaceOnUse">
<stop stop-color="#3F3F3F"/>
<stop offset="1" stop-color="#777676"/>
</linearGradient>
<linearGradient id="paint5_linear_577_7513" x1="34.5706" y1="32.0587" x2="22.8278" y2="9.08136" gradientUnits="userSpaceOnUse">
<stop stop-color="#2E2E2E"/>
<stop offset="1" stop-color="#686868"/>
</linearGradient>
<linearGradient id="paint6_linear_577_7513" x1="13.8237" y1="-3.74079" x2="25.1486" y2="14.1755" gradientUnits="userSpaceOnUse">
<stop stop-color="#E8EAE8"/>
<stop offset="0.5" stop-color="#707072"/>
<stop offset="1" stop-color="#2F3133"/>
</linearGradient>
<linearGradient id="paint7_linear_577_7513" x1="56.3013" y1="39.5499" x2="42.1162" y2="14.0351" gradientUnits="userSpaceOnUse">
<stop stop-color="#E8EAE8"/>
<stop offset="0.5" stop-color="#707072"/>
<stop offset="1" stop-color="#2F3133"/>
</linearGradient>
<linearGradient id="paint8_linear_577_7513" x1="53.5625" y1="17.7867" x2="45.6697" y2="6.39591" gradientUnits="userSpaceOnUse">
<stop stop-color="#E8EAE8"/>
<stop offset="0.5" stop-color="#707072"/>
<stop offset="1" stop-color="#2F3133"/>
</linearGradient>
<linearGradient id="paint9_linear_577_7513" x1="24.0615" y1="28.7123" x2="22.2018" y2="23.4093" gradientUnits="userSpaceOnUse">
<stop stop-color="#ECEAEA"/>
<stop offset="1" stop-color="white" stop-opacity="0"/>
</linearGradient>
<linearGradient id="paint10_linear_577_7513" x1="39.9054" y1="20.3129" x2="42.6888" y2="26.7253" gradientUnits="userSpaceOnUse">
<stop stop-color="#464646" stop-opacity="0"/>
<stop offset="1" stop-color="#0F0F0F"/>
</linearGradient>
<linearGradient id="paint11_linear_577_7513" x1="38.6919" y1="25.8209" x2="38.6919" y2="19.4186" gradientUnits="userSpaceOnUse">
<stop stop-color="#232322"/>
<stop offset="1" stop-color="#343433"/>
</linearGradient>
<linearGradient id="paint12_linear_577_7513" x1="38.3904" y1="20.5999" x2="38.5168" y2="22.0456" gradientUnits="userSpaceOnUse">
<stop stop-color="white" stop-opacity="0"/>
<stop offset="1" stop-color="#C7C5C4"/>
</linearGradient>
<linearGradient id="paint13_linear_577_7513" x1="39.5998" y1="22.5046" x2="38.7105" y2="22.1944" gradientUnits="userSpaceOnUse">
<stop stop-color="white" stop-opacity="0"/>
<stop offset="1" stop-color="#C7C5C4"/>
</linearGradient>
<linearGradient id="paint14_linear_577_7513" x1="38.7627" y1="21.911" x2="37.4887" y2="22.5289" gradientUnits="userSpaceOnUse">
<stop stop-color="white" stop-opacity="0"/>
<stop offset="1" stop-color="#C7C5C4"/>
</linearGradient>
</defs>
</svg>
