<svg width="58" height="41" viewBox="0 0 58 41" fill="none" xmlns="http://www.w3.org/2000/svg">
<path d="M27.0566 37.8686C34.6674 34.1704 55.8273 22.0978 56.1945 21.7922C56.5616 21.4867 58.5206 20.3746 55.7201 18.8552C52.2846 16.9927 38.1351 12.9997 33.6973 15.0069C29.2621 17.0141 3.84658 29.9389 3.32937 30.2471C2.81217 30.5526 -1.54792 32.6 0.582545 34.3687C2.43163 36.0597 7.55279 38.3161 10.3586 39.1335C15.871 40.736 21.2923 40.6717 27.0566 37.8713V37.8686Z" fill="black" fill-opacity="0.1"/>
<path fill-rule="evenodd" clip-rule="evenodd" d="M28.9188 29.0113C28.7956 29.617 28.5999 30.2441 28.3293 30.8685C28.0345 31.5465 27.6781 32.1601 27.2841 32.6907L25.8102 36.0111L23.0634 34.7703C23.0446 34.7623 23.0232 34.7542 23.0045 34.7462C21.3135 34.0065 20.9571 31.0748 22.2059 28.194C23.4547 25.3132 25.8397 23.5793 27.5307 24.3163C27.5494 24.3243 27.5655 24.3323 27.5843 24.3404L30.4249 25.6213L28.9215 29.0086L28.9188 29.0113Z" fill="black"/>
<path d="M31.1478 32.1349C32.3934 29.2567 32.03 26.3292 30.3362 25.5962C28.6424 24.8633 26.2596 26.6024 25.014 29.4806C23.7685 32.3589 24.1319 35.2863 25.8257 36.0193C27.5195 36.7523 29.9023 35.0132 31.1478 32.1349Z" fill="black"/>
<path d="M30.4774 31.8041C31.412 29.6444 31.1401 27.4481 29.87 26.8985C28.6 26.3489 26.8128 27.6542 25.8783 29.8139C24.9437 31.9736 25.2156 34.1699 26.4856 34.7195C27.7556 35.2691 29.5428 33.9638 30.4774 31.8041Z" fill="url(#paint0_linear_577_7137)"/>
<path fill-rule="evenodd" clip-rule="evenodd" d="M27.8821 29.8476C27.8419 29.8878 27.799 29.9334 27.7615 29.9789L27.0165 28.7167C27.2791 28.3844 27.5659 28.1084 27.8607 27.8994L27.8794 29.8476H27.8821ZM27.925 34.0362C27.5203 34.1943 27.121 34.213 26.77 34.0603C26.7646 34.0603 26.7619 34.0576 26.7566 34.0549L27.8339 32.1362C27.858 32.1362 27.8821 32.1362 27.9035 32.1308L27.9223 34.0362H27.925ZM29.2006 33.0741L28.4663 31.8253C28.3913 31.8977 28.3136 31.9566 28.2358 32.0049L28.2546 33.8754C28.5815 33.6878 28.9031 33.4145 29.2006 33.0741ZM28.7262 29.5716C28.7718 29.5903 28.812 29.6171 28.8495 29.6493L29.9081 27.7654C29.8116 27.6823 29.7044 27.6126 29.5865 27.5617C29.1657 27.3768 28.6753 27.4384 28.1903 27.6957L28.209 29.6091C28.3886 29.5233 28.5681 29.5046 28.7236 29.5716H28.7262ZM30.109 31.5922L28.8656 31.2706C28.8147 31.3751 28.7557 31.4716 28.6941 31.5573L29.423 32.7954C29.6749 32.4578 29.9027 32.0692 30.0876 31.6404C30.0956 31.6243 30.101 31.6056 30.109 31.5895V31.5922ZM27.4372 30.5068C27.4292 30.5229 27.4238 30.539 27.4158 30.5551L26.1643 30.2308C26.1965 30.1451 26.2313 30.0593 26.2688 29.9735C26.4216 29.6198 26.6038 29.2956 26.8021 29.0034L27.5525 30.2764C27.5123 30.3487 27.4721 30.4264 27.4372 30.5068ZM28.9915 30.9624C29.0264 30.8552 29.0532 30.748 29.0719 30.6462L30.5459 29.7726C30.5217 30.2469 30.4172 30.7614 30.2296 31.2813L28.9915 30.9624ZM26.0545 30.547C25.8695 31.1232 25.7891 31.6886 25.8052 32.1951L27.255 31.3349C27.255 31.1902 27.2711 31.0321 27.3113 30.8713L26.0518 30.547H26.0545ZM26.4725 33.8754L27.515 32.0209C27.4212 31.9432 27.3515 31.828 27.3059 31.6913L25.8347 32.5623C25.9124 33.1304 26.1268 33.5967 26.4698 33.8754H26.4725ZM30.1412 28.0253L29.0451 29.9735C29.0693 30.0566 29.088 30.1477 29.0934 30.2469L30.5459 29.3867C30.5217 28.8427 30.3851 28.3683 30.1412 28.0253Z" fill="#4D4C4C"/>
<path fill-rule="evenodd" clip-rule="evenodd" d="M28.9159 28.9603C28.7927 29.5659 28.597 30.1903 28.329 30.8094C28.0369 31.4847 27.6805 32.0957 27.2893 32.6263L25.8127 35.952L23.0685 34.7112C23.0471 34.7032 23.0283 34.6951 23.0069 34.6844C21.3159 33.9475 20.9595 31.013 22.2083 28.1349C23.4571 25.2541 25.8422 23.5202 27.5331 24.2572C27.5519 24.2652 27.568 24.2733 27.5867 24.2813L30.4274 25.5623L28.9186 28.9576L28.9159 28.9603Z" fill="black"/>
<path d="M30.4461 25.3747C28.7551 24.6377 26.3004 26.5244 25.0516 29.4025C23.8028 32.2806 24.1619 35.2097 25.8529 35.9493C27.5438 36.689 29.9262 34.9551 31.175 32.077C32.4238 29.1988 32.1371 26.1143 30.4461 25.3747Z" fill="black"/>
<path d="M30.3241 31.6839C31.1698 29.5801 30.8802 27.4827 29.6773 26.9991C28.4743 26.5155 26.8135 27.8289 25.9678 29.9327C25.1221 32.0365 25.4117 34.134 26.6147 34.6175C27.8176 35.1011 29.4784 33.7877 30.3241 31.6839Z" fill="url(#paint1_linear_577_7137)"/>
<path fill-rule="evenodd" clip-rule="evenodd" d="M28.5576 31.8734L27.8072 33.6367C28.3619 33.4625 28.9408 32.9453 29.3883 32.2057L28.5576 31.8734ZM28.997 30.9783C29.0346 30.8631 29.064 30.7479 29.0855 30.638L29.9269 28.663C30.2137 29.3142 30.1896 30.3057 29.8198 31.3079L28.997 30.9783ZM26.5959 30.0163C27.2096 28.6094 28.3083 27.7331 29.1525 27.9448L28.5388 29.3838C28.1556 29.3651 27.7 29.7483 27.4186 30.3432L26.5959 30.0136V30.0163ZM26.7862 33.5027L27.3999 32.0637C27.2498 31.9002 27.1748 31.6349 27.1774 31.324L26.2824 30.9649C26.0331 32.0797 26.2207 33.0847 26.7862 33.5027Z" fill="#484747"/>
<path fill-rule="evenodd" clip-rule="evenodd" d="M50.8295 17.7183C50.8188 18.2248 50.7545 18.758 50.6258 19.302C50.4891 19.8916 50.2935 20.4383 50.0523 20.9287L49.3449 23.8578L46.9303 23.2575C46.9116 23.2548 46.8928 23.2494 46.8741 23.2468C45.3921 22.8984 44.6659 20.5696 45.2528 18.0452C45.8396 15.5208 47.5199 13.7548 49.0018 14.1032C49.0179 14.1058 49.034 14.1112 49.0501 14.1139L51.5477 14.7329L50.8268 17.7209L50.8295 17.7183Z" fill="black"/>
<path d="M53.1019 19.9117C53.6863 17.3884 52.9573 15.0644 51.4736 14.7207C49.9899 14.3771 48.3134 16.144 47.729 18.6673C47.1446 21.1906 47.8737 23.5146 49.3573 23.8583C50.841 24.2019 52.5175 22.435 53.1019 19.9117Z" fill="black"/>
<path d="M52.508 19.7447C52.9464 17.8515 52.3995 16.1078 51.2864 15.85C50.1733 15.5922 48.9155 16.918 48.477 18.8111C48.0386 20.7043 48.5855 22.448 49.6986 22.7058C50.8117 22.9636 52.0695 21.6379 52.508 19.7447Z" fill="url(#paint2_linear_577_7137)"/>
<path fill-rule="evenodd" clip-rule="evenodd" d="M50.1138 18.539C50.087 18.5792 50.0602 18.6194 50.0334 18.6649L49.2402 17.7484C49.4037 17.4376 49.5966 17.1696 49.8057 16.9579L50.1112 18.539H50.1138ZM50.7704 21.9343C50.4649 22.1246 50.1433 22.1969 49.8325 22.1246H49.8217L50.414 20.4041C50.4327 20.4015 50.4542 20.3961 50.4729 20.3907L50.7704 21.9343ZM51.6628 20.9642L50.8803 20.0611C50.8294 20.1308 50.7784 20.1898 50.7222 20.2407L51.0143 21.7548C51.2501 21.5538 51.4725 21.2858 51.6628 20.9642ZM50.7597 18.1906C50.7999 18.1986 50.8374 18.2147 50.8722 18.2362L51.4538 16.5479C51.3626 16.4943 51.2662 16.4541 51.1617 16.4299C50.7918 16.3442 50.4059 16.4675 50.0495 16.7462L50.3497 18.2978C50.4837 18.2013 50.6257 18.1584 50.7624 18.1906H50.7597ZM52.1827 19.627L51.1268 19.5519C51.1 19.6431 51.0679 19.7315 51.0303 19.8119L51.8048 20.707C51.9602 20.3961 52.0862 20.0477 52.1746 19.6699C52.1773 19.6538 52.1827 19.6404 52.1853 19.6243L52.1827 19.627ZM49.8539 19.1446C49.8512 19.158 49.8485 19.1714 49.8459 19.1875L48.7793 19.1125C48.7927 19.0374 48.8088 18.9624 48.8248 18.8874C48.8972 18.5765 48.9963 18.2871 49.1143 18.0191L49.9128 18.9409C49.8887 19.0053 49.87 19.0749 49.8539 19.1446ZM51.1858 19.2813C51.1992 19.1875 51.2045 19.0964 51.2045 19.0106L52.2711 18.0834C52.322 18.472 52.314 18.9061 52.2389 19.3563L51.1884 19.2813H51.1858ZM48.7364 19.3804C48.6721 19.8762 48.6908 20.3479 48.7793 20.7552L49.8298 19.8414C49.8083 19.7235 49.8003 19.5948 49.8083 19.4582L48.7364 19.3831V19.3804ZM49.5698 22.0228L50.1406 20.3613C50.0522 20.313 49.9798 20.2299 49.9236 20.1228L48.857 21.05C49.0044 21.5002 49.2483 21.8459 49.5698 22.0228ZM51.6815 16.7247L51.0813 18.4693C51.1134 18.5336 51.1402 18.606 51.1617 18.6837L52.2121 17.7699C52.113 17.3304 51.9308 16.9659 51.6815 16.7247Z" fill="#4D4C4C"/>
<path fill-rule="evenodd" clip-rule="evenodd" d="M50.8397 17.7698C50.8317 18.2817 50.7647 18.8203 50.6361 19.3697C50.4967 19.9646 50.2984 20.5166 50.0572 21.0097L49.3524 23.9227L46.9406 23.3224C46.9218 23.3197 46.9031 23.3144 46.8843 23.3117C45.4024 22.9633 44.6761 20.6345 45.263 18.1101C45.8499 15.5857 47.5301 13.8197 49.0121 14.1681C49.0282 14.1708 49.0416 14.1761 49.0577 14.1788L51.5553 14.7952L50.8371 17.7698H50.8397Z" fill="black"/>
<path d="M53.1435 19.9267C53.7345 17.3746 52.9969 15.0239 51.4959 14.6763C49.995 14.3287 48.299 16.1157 47.7079 18.6678C47.1169 21.2199 47.8545 23.5706 49.3555 23.9183C50.8564 24.2659 52.5524 22.4788 53.1435 19.9267Z" fill="black"/>
<path d="M52.4467 20.1978C53.0111 18.408 52.6401 16.6959 51.6181 16.3736C50.5962 16.0514 49.3103 17.2412 48.7459 19.031C48.1816 20.8208 48.5526 22.5329 49.5745 22.8552C50.5965 23.1774 51.8824 21.9877 52.4467 20.1978Z" fill="url(#paint3_linear_577_7137)"/>
<path fill-rule="evenodd" clip-rule="evenodd" d="M51.1137 20.4387L50.709 21.9394C51.1378 21.717 51.5478 21.2293 51.8265 20.5861L51.1137 20.4414V20.4387ZM51.3682 19.6241C51.3843 19.5437 51.3924 19.4633 51.3977 19.3856L51.8721 17.6329C52.1776 18.118 52.274 18.9166 52.0864 19.7714L51.3682 19.6241ZM49.2726 19.1953C49.6156 17.9706 50.4223 17.1023 51.1458 17.1533L50.8082 18.4047C50.4893 18.4449 50.1543 18.8201 49.9908 19.3427L49.2726 19.1953ZM49.8381 21.9823L50.1757 20.7335C50.0364 20.629 49.9453 20.4334 49.9077 20.1949L49.1225 20.0341C49.0529 20.9586 49.3262 21.7304 49.8381 21.985V21.9823Z" fill="url(#paint4_linear_577_7137)"/>
<path fill-rule="evenodd" clip-rule="evenodd" d="M15.1689 12.9859C15.9327 12.2891 16.9993 11.3217 18.3847 10.2417C19.5692 9.26628 20.9976 8.20775 22.6939 7.20549C23.3719 6.80351 24.074 6.45246 24.7868 6.14159C30.0876 3.40012 34.1207 2.88024 37.6072 3.20718C37.8484 3.22862 38.2262 3.19914 38.6657 3.16162C39.4134 3.0973 40.3353 3.01959 41.0588 3.17234C41.3643 3.23665 49.2832 6.03976 52.1935 7.30464C54.2436 8.19703 54.5142 8.84287 54.6884 9.25824C54.7045 9.29308 54.7179 9.32792 54.7313 9.36008C54.8867 9.70309 54.9939 10.491 54.9779 11.0671C54.9779 11.1663 54.9886 11.2628 55.0127 11.3592C55.0904 11.6701 55.1842 12.2731 55.211 12.525C55.3986 14.2106 55.3477 15.7702 55.0368 17.4344C54.935 17.9811 53.2815 19.4336 53.2681 19.2674C53.2628 19.2192 53.2681 19.1174 53.2762 18.97C53.2949 18.6082 53.3244 17.9811 53.2547 17.3004C53.1851 16.6063 52.8581 15.3629 51.6951 15.0118C50.5347 14.6608 49.2671 15.6872 48.4096 17.2281C47.469 18.9137 47.4877 20.4546 47.5038 21.6552C47.5092 22.0143 47.5118 22.3412 47.4904 22.6333C47.4743 22.837 47.3457 23.0138 47.1635 23.1076L32.6227 30.7318C32.5155 30.788 32.4029 30.8095 32.2957 30.8041L31.7437 31.0962C31.7196 30.6594 31.7517 30.5174 31.7919 30.4155C31.7759 30.3512 31.7732 30.2789 31.7839 30.2011C31.8053 30.0698 31.8268 29.9358 31.8348 29.7375C31.867 29.0595 31.9876 26.2243 30.0098 25.565C28.268 24.9835 26.0812 27.1944 25.0602 28.9791C24.6287 29.7349 24.2375 30.8899 23.9454 32.0556C23.6828 33.165 23.5086 34.2745 23.4577 35.0516C23.4255 35.0677 23.3853 35.0892 23.3344 35.116L23.3076 35.1294C23.2486 35.2071 23.1709 35.2741 23.0798 35.3196C22.6912 35.5126 22.0561 35.81 21.2548 36.1155C18.9957 37.0776 15.4476 38.1844 12.3739 37.2518C3.31066 34.505 1.42138 31.7769 1.02744 31.0319C0.708544 30.4263 0.705864 29.8715 0.703184 29.3624C0.703184 29.2418 0.703184 29.1239 0.697825 29.0086L0.681746 27.465C0.676386 27.0121 0.671026 26.5807 0.665667 26.1975C0.657627 25.549 0.649588 25.0398 0.654947 24.7852C0.654947 24.7343 0.649588 24.6726 0.641548 24.5949C0.587951 24.0724 0.472719 22.9468 2.31912 21.0442C4.21645 19.0879 12.9554 14.1811 14.0032 13.889C14.097 13.8622 14.2069 13.8113 14.3275 13.7336C14.5499 13.546 14.8313 13.2914 15.1716 12.9832L15.1689 12.9859Z" fill="url(#paint5_linear_577_7137)"/>
<path d="M14.727 14.8455C14.2044 14.4248 14.1803 14.2158 14.3197 14.1193C15.204 13.511 15.5443 13.1117 17.2514 11.5815C20.4645 8.698 21.7482 8.18348 22.0563 8.09236C22.1073 8.07628 22.1608 8.08432 22.2091 8.10308L33.9655 12.6856C34.1853 12.7714 34.2469 13.0527 34.0888 13.2269C31.3205 16.2525 30.262 18.7983 28.3754 19.6022C25.5214 20.8162 16.3912 16.1881 14.727 14.8455Z" fill="url(#paint6_linear_577_7137)"/>
<path d="M35.5758 13.3476C34.5896 14.7384 31.6981 18.1498 31.0737 19.3397C30.5672 20.3044 46.7132 12.0103 47.1822 11.745C48.1389 11.2037 50.4462 9.46986 50.2318 8.92586C50.0174 8.38453 47.9995 8.47297 46.7882 8.48369C44.832 8.50244 44.4729 8.43277 41.935 9.26084C39.3972 10.0889 37.2185 11.0268 35.5758 13.3449V13.3476Z" fill="url(#paint7_linear_577_7137)"/>
<path d="M50.1859 7.91291C50.1028 7.84323 38.9708 3.39739 38.5126 3.41079C37.2021 3.44294 36.9609 3.36255 36.9609 3.36255L47.6883 7.60473L50.1859 7.91559V7.91291Z" fill="url(#paint8_linear_577_7137)"/>
<path d="M14.9813 27.4808C11.3018 27.2718 10.1897 26.8216 9.88422 26.4357C9.64035 26.1275 24.9985 21.1966 32.3385 18.9402C29.8892 21.1537 27.6086 23.5709 23.5246 25.5192C23.0583 25.7416 18.6044 27.6898 14.9813 27.4808Z" fill="url(#paint9_linear_577_7137)" fill-opacity="0.21"/>
<path d="M38.063 17.4961C38.063 17.6783 38.2559 17.7963 38.4194 17.7159L39.6119 17.1236C39.6977 17.0807 39.7513 16.9923 39.7486 16.8985C39.7486 16.7163 39.553 16.5984 39.3895 16.6788L38.1997 17.2737C38.1139 17.3166 38.063 17.4023 38.063 17.4988V17.4961Z" fill="#323333"/>
<path d="M45.8828 13.9532C45.8828 14.1354 46.0758 14.2533 46.2392 14.1729L47.4318 13.5807C47.5175 13.5378 47.5711 13.452 47.5684 13.3555C47.5684 13.1733 47.3755 13.0554 47.2093 13.1358L46.0195 13.7307C45.9337 13.7736 45.8828 13.8594 45.8828 13.9558V13.9532Z" fill="#323333"/>
<path d="M24.5241 19.5143C26.4563 20.1306 27.8042 19.8198 28.6698 19.4714C29.7551 19.0346 30.8753 17.2498 32.3492 15.3257C33.3729 13.9911 33.5498 13.8009 33.9625 13.3909C34.2519 13.1041 34.343 13.0237 34.343 12.8415C34.343 12.8415 34.2412 12.7155 33.6382 12.4958C33.1719 12.327 30.7226 11.2604 29.6506 10.9817L20.3677 17.8876C21.7344 18.3325 22.801 18.9622 24.5268 19.5116L24.5241 19.5143Z" fill="black"/>
<path d="M6.15664 27.4436C6.62829 27.7223 9.91912 29.6571 14.0568 29.1908C16.4713 28.9175 18.642 28.1993 19.9551 27.7464C20.3946 27.5937 20.743 27.9501 20.4991 28.3467C20.0971 29.0032 19.4352 29.8045 18.583 30.2788C16.8679 31.2355 16.5812 31.4526 14.708 31.7126C13.1912 31.9243 11.8004 31.592 11.2028 31.4473C10.6909 31.324 9.32152 30.8363 8.85791 30.9595C8.68104 31.0078 8.45058 31.8251 8.20671 31.793C7.96285 31.7608 5.58047 31.0748 3.9163 30.0109C1.91178 28.7299 1.13999 27.3873 1.14535 27.2051C1.15071 27.0229 1.04888 25.825 1.08639 25.6481C1.12659 25.4739 0.845208 24.67 0.829129 24.5386C0.796971 24.2492 0.775532 24.0911 0.80501 23.7776C0.890765 22.853 1.76707 21.5158 1.61432 22.0732C1.60092 22.1214 1.5902 22.175 1.58484 22.2259C1.52053 23.0353 1.40261 23.5605 1.89034 24.209C3.12843 25.8437 4.1682 26.2752 6.1486 27.4436H6.15664Z" fill="#211F1F"/>
<path d="M32.8824 29.4057L46.8175 22.0978C46.772 21.243 46.5737 19.2009 47.517 17.3679L31.5425 25.1126C32.1186 25.3431 32.8556 26.9751 32.8797 29.4057H32.8824Z" fill="url(#paint10_linear_577_7137)"/>
<path d="M42.1233 21.2826L45.9313 19.3477C46.0171 19.2968 46.0734 19.1869 46.0734 19.0637V16.4347C46.0734 16.207 45.8884 16.0569 45.725 16.1507L41.9169 18.0855C41.8312 18.1364 41.7749 18.2463 41.7749 18.3696V20.9985C41.7749 21.2263 41.9598 21.3764 42.1233 21.2826Z" fill="white"/>
<path d="M37.5513 7.65298L34.7241 8.93394C34.6812 8.9527 34.6303 8.95538 34.5847 8.9393L28.8204 6.76328C28.665 6.70432 28.6623 6.48726 28.8151 6.42294L31.4788 5.30813C31.519 5.29205 31.5646 5.28937 31.6074 5.30277L37.5352 7.30996C37.6933 7.36356 37.7041 7.58063 37.5513 7.6503V7.65298Z" fill="white"/>
<path d="M38.2929 19.3263L35.7631 20.5564C35.4951 20.685 35.2754 21.0522 35.2754 21.3764V24.4073C35.2754 24.7289 35.4925 24.9031 35.7631 24.7959L38.2929 23.7829C38.5609 23.6757 38.7806 23.3059 38.7806 22.9602V19.7149C38.7806 19.3692 38.5635 19.1977 38.2929 19.329V19.3263Z" fill="url(#paint11_linear_577_7137)"/>
<path d="M38.2928 23.8152L35.7631 24.8282C35.479 24.9407 35.2485 24.7558 35.2485 24.4155V21.3873C35.2485 21.0469 35.479 20.6584 35.7631 20.5217L38.2928 19.2917C38.5769 19.1523 38.8074 19.3345 38.8074 19.7017V22.9496C38.8074 23.3141 38.5769 23.7053 38.2928 23.8179V23.8152ZM35.7631 20.5887C35.5085 20.712 35.3048 21.0577 35.3048 21.3605V24.3914C35.3048 24.6942 35.5112 24.8604 35.7631 24.7585L38.2928 23.7429C38.5474 23.641 38.7511 23.2926 38.7511 22.9684V19.7231C38.7511 19.3989 38.5447 19.2354 38.2928 19.3587L35.7631 20.586V20.5887Z" fill="#C5D01C"/>
<path d="M36.1647 23.4158L36.1219 23.4345L36.0254 23.9062L36.0683 23.8874L36.1647 23.4158Z" fill="#C5D01C"/>
<path d="M36.2341 23.3865L36.2073 23.3999L36.1108 23.8715L36.1376 23.8608L36.2341 23.3865Z" fill="#C5D01C"/>
<path d="M36.282 23.3679L36.2659 23.3733L36.1694 23.8476L36.1855 23.8396L36.282 23.3679Z" fill="#C5D01C"/>
<path d="M35.8191 23.5632L35.6717 23.6249L35.5752 24.0938L35.7226 24.0322L35.8191 23.5632Z" fill="#C5D01C"/>
<path d="M35.9691 23.4993L35.8753 23.5395L35.7788 24.0084L35.8726 23.9709L35.9691 23.4993Z" fill="#C5D01C"/>
<path d="M36.0819 23.4504L36.0122 23.4826L35.9131 23.9542L35.9854 23.9221L36.0819 23.4504Z" fill="#C5D01C"/>
<path d="M37.9951 22.5242L38.1104 22.476L38.2095 21.9802L38.0943 22.0311L37.9951 22.5242Z" fill="#C5D01C"/>
<path d="M38.1479 22.4592L38.3195 22.3842L38.4186 21.8884L38.2471 21.9635L38.1479 22.4592Z" fill="#C5D01C"/>
<path d="M37.8857 22.5719L37.9581 22.5397L38.0573 22.0466L37.9849 22.0788L37.8857 22.5719Z" fill="#C5D01C"/>
<path d="M37.7939 22.6124L37.8502 22.5883L37.9494 22.0925L37.8931 22.1166L37.7939 22.6124Z" fill="#C5D01C"/>
<path d="M37.7271 22.6391L37.7592 22.6257L37.8584 22.1326L37.8262 22.1486L37.7271 22.6391Z" fill="#C5D01C"/>
<path d="M37.6738 22.663L37.6926 22.655L37.7917 22.1619L37.7703 22.1699L37.6738 22.663Z" fill="#C5D01C"/>
<path d="M38.314 22.5019L38.2925 22.6172L38.0862 22.7056C38.0621 22.7163 38.0594 22.7404 38.0594 22.7485C38.0594 22.7646 38.0701 22.7753 38.0835 22.7699L38.1961 22.7217C38.2443 22.7002 38.2738 22.7163 38.2684 22.7538L38.2336 22.9307C38.2202 22.9763 38.1907 23.0057 38.1559 23.0191L37.6011 23.2496C37.577 23.2603 37.5609 23.2335 37.569 23.1933L37.6494 22.7806L37.9442 22.6547L37.9227 22.7672L37.7298 22.8503L37.7164 22.92L37.8986 22.8423L37.8772 22.9548L37.6949 23.0325L37.6842 23.0888C37.6815 23.1076 37.6842 23.1022 37.6976 23.0969L38.121 22.9173C38.1371 22.9093 38.1478 22.8905 38.1478 22.8718C38.1478 22.8718 38.1478 22.8423 38.1237 22.8503L37.9763 22.9119C37.9442 22.9253 37.9308 22.912 37.9361 22.8798L37.9763 22.6788C37.9844 22.6332 38.0112 22.6225 38.0299 22.6172L38.3193 22.4939L38.314 22.5019Z" fill="white"/>
<path d="M37.5667 22.8218C37.6042 22.8084 37.5989 22.846 37.5881 22.8942L37.556 23.0523C37.5479 23.0845 37.5399 23.1032 37.5051 23.1166L37.4675 23.1327L37.5319 23.2828L37.4327 23.323L37.363 23.1756L37.3845 23.0657L37.4649 23.0309C37.4917 23.0201 37.489 23.0175 37.4917 23.0014V22.9853C37.5024 22.9531 37.4917 22.9531 37.4702 22.9639L37.3228 23.0255L37.2505 23.398L37.1299 23.4489L37.2264 22.9665L37.4702 22.862L37.5613 22.8218H37.5667Z" fill="white"/>
<path d="M37.0966 23.2393C37.1368 23.2152 37.1422 23.2393 37.1395 23.2634L37.1073 23.4296C37.102 23.4644 37.0805 23.4698 37.0216 23.4966L36.8796 23.5555L36.9037 23.435L37.0001 23.3948C37.0243 23.3867 37.0403 23.3144 37.0109 23.3251L36.9171 23.3653L36.9385 23.2527L37.035 23.2125C37.0725 23.1964 37.0698 23.1348 37.035 23.1482L36.8983 23.2045L36.826 23.5743L36.7241 23.6172L36.8206 23.1375L37.0779 23.0276C37.1422 23.0008 37.1636 23.0223 37.1556 23.0678L37.1368 23.1589C37.1261 23.2045 37.1154 23.2232 37.0939 23.2366L37.0966 23.2393Z" fill="white"/>
<path d="M36.7735 23.1589L36.677 23.6386L36.5698 23.6842L36.6663 23.2072L36.7735 23.1616V23.1589Z" fill="white"/>
<path d="M36.561 23.5773L36.5369 23.6952L36.3091 23.789C36.2555 23.8104 36.2448 23.8024 36.2662 23.7086L36.3386 23.3414L36.4511 23.2932L36.419 23.454L36.3895 23.6014C36.3814 23.6416 36.3948 23.6443 36.435 23.6282L36.5583 23.5773H36.561Z" fill="white"/>
<path fill-rule="evenodd" clip-rule="evenodd" d="M37.156 22.4405L37.0595 22.9256L37.2149 22.8586L37.3114 22.3708L37.156 22.4378V22.4405ZM36.8719 22.6683L36.9845 22.5155L37.1319 22.4512L36.9094 22.7487L37.0059 22.947L36.8264 23.0247L36.7781 22.9256L36.6468 23.1024L36.4994 23.1641L36.7406 22.8425L36.6495 22.6603L36.829 22.5825L36.8692 22.6683H36.8719ZM35.7946 23.0327L35.7705 23.1533L35.875 23.1078L35.8027 23.4615L35.9474 23.3999L36.0197 23.0461L36.1323 22.9979L36.1564 22.8746L35.7973 23.0301L35.7946 23.0327ZM36.3011 22.813L36.4592 22.7433L36.478 23.1721L36.3199 23.2391V23.1614L36.1805 23.223L36.1296 23.3222L36.009 23.3731L36.3011 22.813ZM36.3199 23.0676V22.9416L36.2341 23.1051L36.3199 23.0676ZM37.4052 22.3333L37.7161 22.1966C37.7161 22.1966 37.7348 22.1913 37.7295 22.2127L37.7134 22.2931C37.7134 22.3092 37.7027 22.3199 37.6893 22.3226L37.491 22.4083C37.4749 22.4137 37.4668 22.4325 37.4668 22.4432C37.4668 22.4539 37.4722 22.4673 37.4856 22.4619L37.633 22.3976C37.6678 22.3815 37.6973 22.3789 37.6839 22.4298L37.6437 22.6361C37.6384 22.6603 37.6357 22.6737 37.6169 22.6844L37.2712 22.8318C37.2712 22.8318 37.2605 22.8318 37.2605 22.821L37.2819 22.7299C37.2819 22.7165 37.2927 22.7138 37.298 22.7085L37.5097 22.6174C37.5097 22.6174 37.5312 22.6013 37.5312 22.5799C37.5312 22.5638 37.5231 22.5557 37.5124 22.5611L37.365 22.6254C37.3516 22.6308 37.3382 22.6335 37.3329 22.6254C37.3248 22.6201 37.3248 22.604 37.3329 22.5745L37.3757 22.3601C37.3811 22.344 37.3891 22.3333 37.4052 22.328V22.3333Z" fill="white"/>
<path fill-rule="evenodd" clip-rule="evenodd" d="M36.5291 20.8914L36.4487 21.2961L36.7864 21.1379L36.5479 22.3171L37.0169 22.108L37.2527 20.9236L37.6252 20.7494L37.7056 20.3367L36.5291 20.8914Z" fill="#C5D01C"/>
<path style="mix-blend-mode:multiply" opacity="0.5" d="M36.8248 20.9506C37.1946 20.7389 37.6475 20.2699 37.7494 19.9698C37.6529 19.4257 37.2214 19.2248 36.723 19.5249C36.2379 19.8143 35.8574 20.4977 35.8467 21.0819C36.0155 21.2266 36.4577 21.1596 36.8248 20.9506Z" fill="url(#paint12_linear_577_7137)"/>
<path style="mix-blend-mode:multiply" opacity="0.5" d="M36.982 21.1596C36.8588 21.6474 36.8614 22.261 37.0035 22.4165C37.4725 22.3414 37.9521 21.8055 38.1183 21.1355C38.2791 20.4789 38.062 19.9296 37.6306 19.8787C37.3921 20.0904 37.1053 20.6719 36.9847 21.1596H36.982Z" fill="url(#paint13_linear_577_7137)"/>
<path style="mix-blend-mode:multiply" opacity="0.5" d="M35.8971 21.7011C36.074 22.0709 36.4625 22.371 36.7118 22.2933C37.1593 21.7413 37.3335 20.9427 37.095 20.4335C36.8645 19.9431 36.2884 19.9378 35.7899 20.396C35.664 20.7551 35.7202 21.3366 35.8944 21.7011H35.8971Z" fill="url(#paint14_linear_577_7137)"/>
<path d="M2.05763 2.95458L2.54 5.02219L2.05763 7.08081L3.85312 8.19552L4.95185 10.0024L7.00639 9.517L9.06093 10.0024L10.1597 8.19552L11.9552 7.08081L11.4728 5.02219L11.9552 2.95458L10.1686 1.83987L9.06093 0.032959L7.00639 0.527388L4.96078 0.0419486L3.84419 1.83987L2.05763 2.95458ZM7.01532 8.654C6.06768 8.654 5.15884 8.27515 4.48875 7.6008C3.81866 6.92645 3.44221 6.01183 3.44221 5.05815C3.44221 4.10447 3.81866 3.18986 4.48875 2.51551C5.15884 1.84115 6.06768 1.46231 7.01532 1.46231C8.98054 1.46231 10.5795 3.07145 10.5795 5.04916C10.5795 7.04485 8.98054 8.654 7.01532 8.654ZM6.99746 7.75503C5.51462 7.75503 4.32656 6.55043 4.32656 5.05815C4.32656 3.57487 5.51462 2.36127 6.99746 2.36127C8.4803 2.36127 9.68622 3.57487 9.68622 5.05815C9.68622 6.55043 8.4803 7.75503 6.99746 7.75503ZM10.4276 8.74389L9.28425 10.7576L7.42623 10.3351L9.68622 15.576L10.9368 13.5983H13.17L10.4276 8.74389ZM3.54941 8.80682L4.666 10.8295L6.56869 10.371L4.32656 15.576L3.07597 13.5983H0.842773L3.54941 8.80682Z" fill="#8D65C2"/>
<defs>
<linearGradient id="paint0_linear_577_7137" x1="25.4547" y1="36.2756" x2="27.4747" y2="32.3796" gradientUnits="userSpaceOnUse">
<stop stop-color="#3F3F3F"/>
<stop offset="1" stop-color="#5D5D5D"/>
</linearGradient>
<linearGradient id="paint1_linear_577_7137" x1="28.7225" y1="38.2698" x2="30.3295" y2="30.6507" gradientUnits="userSpaceOnUse">
<stop stop-color="#3F3F3F"/>
<stop offset="1" stop-color="#777676"/>
</linearGradient>
<linearGradient id="paint2_linear_577_7137" x1="49.095" y1="24.1498" x2="50.1592" y2="20.6835" gradientUnits="userSpaceOnUse">
<stop stop-color="#3F3F3F"/>
<stop offset="1" stop-color="#5D5D5D"/>
</linearGradient>
<linearGradient id="paint3_linear_577_7137" x1="48.7767" y1="24.8292" x2="49.2336" y2="18.4053" gradientUnits="userSpaceOnUse">
<stop stop-color="#3F3F3F"/>
<stop offset="1" stop-color="#777676"/>
</linearGradient>
<linearGradient id="paint4_linear_577_7137" x1="51.0842" y1="20.7737" x2="49.5326" y2="16.6334" gradientUnits="userSpaceOnUse">
<stop stop-color="#3F3F3F"/>
<stop offset="1" stop-color="#777676"/>
</linearGradient>
<linearGradient id="paint5_linear_577_7137" x1="33.5231" y1="28.2073" x2="16.2703" y2="3.55824" gradientUnits="userSpaceOnUse">
<stop stop-color="#C0D01F"/>
<stop offset="0.63" stop-color="#ADBD14"/>
<stop offset="1" stop-color="#C0D01F"/>
</linearGradient>
<linearGradient id="paint6_linear_577_7137" x1="12.9181" y1="-4.11696" x2="24.018" y2="13.31" gradientUnits="userSpaceOnUse">
<stop stop-color="#E8EAE8"/>
<stop offset="0.5" stop-color="#707072"/>
<stop offset="1" stop-color="#2F3133"/>
</linearGradient>
<linearGradient id="paint7_linear_577_7137" x1="54.1015" y1="38.1736" x2="40.1878" y2="13.3369" gradientUnits="userSpaceOnUse">
<stop stop-color="#E8EAE8"/>
<stop offset="0.5" stop-color="#707072"/>
<stop offset="1" stop-color="#2F3133"/>
</linearGradient>
<linearGradient id="paint8_linear_577_7137" x1="51.4454" y1="16.9145" x2="43.7141" y2="5.83872" gradientUnits="userSpaceOnUse">
<stop stop-color="#E8EAE8"/>
<stop offset="0.5" stop-color="#707072"/>
<stop offset="1" stop-color="#2F3133"/>
</linearGradient>
<linearGradient id="paint9_linear_577_7137" x1="22.8439" y1="27.5853" x2="21.0162" y2="22.4159" gradientUnits="userSpaceOnUse">
<stop stop-color="#ECEAEA"/>
<stop offset="1" stop-color="white" stop-opacity="0"/>
</linearGradient>
<linearGradient id="paint10_linear_577_7137" x1="38.2045" y1="19.3805" x2="42.7281" y2="28.4598" gradientUnits="userSpaceOnUse">
<stop stop-color="#C0D01F" stop-opacity="0.66"/>
<stop offset="1" stop-color="#99A820"/>
</linearGradient>
<linearGradient id="paint11_linear_577_7137" x1="37.028" y1="24.7637" x2="37.028" y2="18.509" gradientUnits="userSpaceOnUse">
<stop stop-color="#232322"/>
<stop offset="1" stop-color="#343433"/>
</linearGradient>
<linearGradient id="paint12_linear_577_7137" x1="36.7356" y1="19.6598" x2="36.86" y2="21.072" gradientUnits="userSpaceOnUse">
<stop stop-color="white" stop-opacity="0"/>
<stop offset="1" stop-color="#C7C5C4"/>
</linearGradient>
<linearGradient id="paint13_linear_577_7137" x1="37.9027" y1="21.5239" x2="37.0391" y2="21.225" gradientUnits="userSpaceOnUse">
<stop stop-color="white" stop-opacity="0"/>
<stop offset="1" stop-color="#C7C5C4"/>
</linearGradient>
<linearGradient id="paint14_linear_577_7137" x1="37.0971" y1="20.9459" x2="35.8584" y2="21.5422" gradientUnits="userSpaceOnUse">
<stop stop-color="white" stop-opacity="0"/>
<stop offset="1" stop-color="#C7C5C4"/>
</linearGradient>
</defs>
</svg>
