<svg width="58" height="40" viewBox="0 0 58 40" fill="none" xmlns="http://www.w3.org/2000/svg">
<path d="M27.4607 37.5384C35.0445 33.8533 56.1295 21.8234 56.4954 21.519C56.8612 21.2146 58.8132 20.1064 56.0227 18.5923C52.5993 16.7364 38.4999 12.7576 34.0779 14.7577C29.6584 16.7578 4.33291 29.6368 3.81754 29.9439C3.30216 30.2483 -1.04249 32.2885 1.08044 34.0509C2.92297 35.7359 8.02599 37.9843 10.8218 38.7988C16.3147 40.3956 21.7168 40.3315 27.4607 37.541V37.5384Z" fill="black" fill-opacity="0.1"/>
<path fill-rule="evenodd" clip-rule="evenodd" d="M29.3167 28.713C29.1939 29.3165 28.9989 29.9414 28.7292 30.5635C28.4355 31.2391 28.0803 31.8507 27.6878 32.3794L26.2191 35.6879L23.482 34.4516C23.4633 34.4436 23.4419 34.4355 23.4233 34.4275C21.7383 33.6905 21.3831 30.7692 22.6275 27.8985C23.8719 25.0279 26.2485 23.3002 27.9335 24.0346C27.9522 24.0426 27.9682 24.0506 27.9869 24.0586L30.8174 25.335L29.3194 28.7103L29.3167 28.713Z" fill="black"/>
<path d="M31.5373 31.8258C32.7784 28.9577 32.4163 26.0406 30.7285 25.3103C29.0407 24.5799 26.6663 26.3128 25.4252 29.1809C24.1841 32.0489 24.5462 34.966 26.234 35.6964C27.9218 36.4268 30.2961 34.6939 31.5373 31.8258Z" fill="black"/>
<path d="M30.8694 31.4959C31.8006 29.3438 31.5297 27.1553 30.2642 26.6076C28.9987 26.06 27.2178 27.3606 26.2865 29.5127C25.3552 31.6647 25.6262 33.8533 26.8917 34.4009C28.1572 34.9486 29.9381 33.6479 30.8694 31.4959Z" fill="url(#paint0_linear_577_7217)"/>
<path fill-rule="evenodd" clip-rule="evenodd" d="M28.2834 29.5461C28.2433 29.5861 28.2006 29.6315 28.1632 29.6769L27.4209 28.4192C27.6826 28.0881 27.9683 27.813 28.262 27.6047L28.2807 29.5461H28.2834ZM28.3261 33.7198C27.9229 33.8774 27.525 33.896 27.1752 33.7438C27.1698 33.7438 27.1672 33.7412 27.1618 33.7385L28.2353 31.8265C28.2593 31.8265 28.2834 31.8265 28.3047 31.8212L28.3234 33.7198H28.3261ZM29.5972 32.7612L28.8655 31.5168C28.7907 31.5889 28.7133 31.6476 28.6359 31.6957L28.6546 33.5596C28.9803 33.3727 29.3008 33.1003 29.5972 32.7612ZM29.1245 29.271C29.1699 29.2897 29.21 29.3164 29.2474 29.3485L30.3022 27.4712C30.206 27.3884 30.0992 27.319 29.9817 27.2683C29.5625 27.084 29.0738 27.1454 28.5905 27.4018L28.6092 29.3084C28.7881 29.223 28.967 29.2043 29.1219 29.271H29.1245ZM30.5024 31.2845L29.2634 30.964C29.2127 31.0682 29.1539 31.1643 29.0925 31.2497L29.8188 32.4834C30.0698 32.147 30.2968 31.7598 30.4811 31.3325C30.4891 31.3165 30.4944 31.2978 30.5024 31.2818V31.2845ZM27.8401 30.203C27.8321 30.219 27.8268 30.235 27.8187 30.251L26.5717 29.9279C26.6037 29.8425 26.6384 29.757 26.6758 29.6716C26.828 29.3191 27.0096 28.996 27.2072 28.7049L27.9549 29.9733C27.9149 30.0454 27.8748 30.1229 27.8401 30.203ZM29.3889 30.6569C29.4236 30.5501 29.4503 30.4433 29.469 30.3418L30.9377 29.4713C30.9137 29.9439 30.8095 30.4566 30.6226 30.9747L29.3889 30.6569ZM26.4622 30.243C26.278 30.8171 26.1978 31.3806 26.2139 31.8853L27.6585 31.0281C27.6585 30.8839 27.6745 30.7264 27.7146 30.5661L26.4595 30.243H26.4622ZM26.8788 33.5596L27.9175 31.7117C27.8241 31.6343 27.7547 31.5194 27.7093 31.3833L26.2432 32.2511C26.3207 32.8172 26.5343 33.2819 26.8761 33.5596H26.8788ZM30.5345 27.7302L29.4423 29.6716C29.4663 29.7543 29.485 29.8451 29.4904 29.9439L30.9377 29.0868C30.9137 28.5447 30.7775 28.072 30.5345 27.7302Z" fill="#4D4C4C"/>
<path fill-rule="evenodd" clip-rule="evenodd" d="M29.3138 28.6622C29.191 29.2657 28.996 29.8879 28.729 30.5047C28.4379 31.1776 28.0828 31.7865 27.6929 32.3152L26.2215 35.6291L23.4871 34.3927C23.4657 34.3847 23.4471 34.3767 23.4257 34.366C21.7407 33.6317 21.3856 30.7077 22.6299 27.8397C23.8743 24.9691 26.2509 23.2414 27.9359 23.9757C27.9546 23.9837 27.9706 23.9917 27.9893 23.9998L30.8199 25.2762L29.3165 28.6595L29.3138 28.6622Z" fill="black"/>
<path d="M30.8386 25.0893C29.1536 24.3549 26.7076 26.2348 25.4632 29.1028C24.2188 31.9707 24.5767 34.8894 26.2616 35.6264C27.9466 36.3634 30.3206 34.6357 31.5649 31.7678C32.8093 28.8998 32.5236 25.8263 30.8386 25.0893Z" fill="black"/>
<path d="M30.7168 31.3759C31.5595 29.2796 31.2709 27.1895 30.0722 26.7077C28.8735 26.2258 27.2187 27.5346 26.3759 29.6309C25.5332 31.7273 25.8218 33.8173 27.0205 34.2992C28.2192 34.781 29.874 33.4723 30.7168 31.3759Z" fill="url(#paint1_linear_577_7217)"/>
<path fill-rule="evenodd" clip-rule="evenodd" d="M28.956 31.5648L28.2084 33.3219C28.7611 33.1484 29.3379 32.633 29.7839 31.896L28.956 31.5648ZM29.394 30.6729C29.4314 30.5581 29.4607 30.4433 29.4821 30.3338L30.3206 28.3658C30.6063 29.0147 30.5823 30.0027 30.2138 31.0014L29.394 30.6729ZM27.0014 29.7143C27.6129 28.3124 28.7077 27.4392 29.5489 27.6501L28.9374 29.0841C28.5555 29.0654 28.1015 29.4473 27.8212 30.0401L27.0014 29.7116V29.7143ZM27.191 33.1884L27.8025 31.7544C27.6529 31.5915 27.5781 31.3272 27.5808 31.0174L26.6889 30.6596C26.4406 31.7705 26.6275 32.7718 27.191 33.1884Z" fill="#484747"/>
<path fill-rule="evenodd" clip-rule="evenodd" d="M51.1495 17.4601C51.1389 17.9648 51.0748 18.4962 50.9466 19.0383C50.8104 19.6257 50.6155 20.1705 50.3751 20.6592L49.6702 23.5778L47.2642 22.9797C47.2455 22.977 47.2268 22.9717 47.2081 22.969C45.7314 22.6219 45.0078 20.3013 45.5926 17.7859C46.1774 15.2704 47.8517 13.5107 49.3284 13.8578C49.3444 13.8605 49.3604 13.8658 49.3764 13.8685L51.8652 14.4853L51.1469 17.4628L51.1495 17.4601Z" fill="black"/>
<path d="M53.4138 19.6454C53.9961 17.1311 53.2697 14.8152 51.7913 14.4728C50.3129 14.1304 48.6423 15.8911 48.06 18.4054C47.4776 20.9198 48.2041 23.2356 49.6825 23.578C51.1609 23.9204 52.8315 22.1597 53.4138 19.6454Z" fill="black"/>
<path d="M52.8219 19.4789C53.2588 17.5925 52.7138 15.8549 51.6047 15.598C50.4955 15.3411 49.2421 16.6622 48.8052 18.5486C48.3683 20.4351 48.9133 22.1726 50.0225 22.4295C51.1316 22.6864 52.385 21.3654 52.8219 19.4789Z" fill="url(#paint2_linear_577_7217)"/>
<path fill-rule="evenodd" clip-rule="evenodd" d="M50.4364 18.2772C50.4097 18.3172 50.383 18.3573 50.3563 18.4027L49.5659 17.4894C49.7288 17.1797 49.921 16.9126 50.1293 16.7017L50.4337 18.2772H50.4364ZM51.0906 21.6605C50.7862 21.8501 50.4658 21.9222 50.156 21.8501H50.1453L50.7355 20.1357C50.7542 20.1331 50.7755 20.1277 50.7942 20.1224L51.0906 21.6605ZM51.9799 20.6938L51.2001 19.7939C51.1494 19.8633 51.0987 19.9221 51.0426 19.9728L51.3336 21.4816C51.5686 21.2813 51.7903 21.0143 51.9799 20.6938ZM51.08 17.93C51.12 17.938 51.1574 17.9541 51.1921 17.9754L51.7716 16.2931C51.6808 16.2397 51.5847 16.1996 51.4805 16.1756C51.112 16.0902 50.7275 16.213 50.3723 16.4907L50.6714 18.0368C50.8049 17.9407 50.9464 17.898 51.0826 17.93H51.08ZM52.4979 19.3613L51.4458 19.2866C51.4191 19.3773 51.3871 19.4655 51.3497 19.5456L52.1214 20.4375C52.2763 20.1277 52.4018 19.7806 52.4899 19.4041C52.4926 19.388 52.4979 19.3747 52.5006 19.3587L52.4979 19.3613ZM50.1774 18.8807C50.1747 18.894 50.1721 18.9074 50.1694 18.9234L49.1066 18.8486C49.1199 18.7738 49.136 18.6991 49.152 18.6243C49.2241 18.3146 49.3229 18.0262 49.4404 17.7591L50.2361 18.6777C50.2121 18.7418 50.1934 18.8112 50.1774 18.8807ZM51.5046 19.0169C51.5179 18.9234 51.5232 18.8326 51.5232 18.7471L52.586 17.8232C52.6368 18.2104 52.6288 18.643 52.554 19.0916L51.5072 19.0169H51.5046ZM49.0639 19.1157C48.9998 19.6097 49.0185 20.0796 49.1066 20.4855L50.1534 19.575C50.132 19.4575 50.124 19.3293 50.132 19.1931L49.0639 19.1183V19.1157ZM49.8943 21.7486L50.4631 20.093C50.375 20.0449 50.3029 19.9622 50.2468 19.8553L49.184 20.7793C49.3309 21.2279 49.5739 21.5724 49.8943 21.7486ZM51.9986 16.4693L51.4004 18.2077C51.4325 18.2718 51.4592 18.3439 51.4805 18.4214L52.5273 17.5108C52.4285 17.0728 52.2469 16.7097 51.9986 16.4693Z" fill="#4D4C4C"/>
<path fill-rule="evenodd" clip-rule="evenodd" d="M51.16 17.5108C51.152 18.0209 51.0853 18.5576 50.9571 19.105C50.8182 19.6978 50.6206 20.2479 50.3803 20.7393L49.678 23.6419L47.2747 23.0438C47.256 23.0411 47.2373 23.0358 47.2186 23.0331C45.7419 22.686 45.0183 20.3654 45.6031 17.85C46.1879 15.3345 47.8622 13.5747 49.3389 13.9219C49.3549 13.9246 49.3682 13.9299 49.3843 13.9326L51.873 14.5467L51.1574 17.5108H51.16Z" fill="black"/>
<path d="M53.4553 19.6606C54.0443 17.1175 53.3093 14.7751 51.8136 14.4287C50.318 14.0823 48.628 15.8631 48.0391 18.4062C47.4501 20.9492 48.1851 23.2916 49.6808 23.638C51.1764 23.9844 52.8664 22.2036 53.4553 19.6606Z" fill="black"/>
<path d="M52.761 19.9308C53.3234 18.1473 52.9537 16.4412 51.9354 16.1201C50.9171 15.799 49.6357 16.9846 49.0733 18.768C48.511 20.5515 48.8807 22.2576 49.899 22.5787C50.9173 22.8998 52.1987 21.7142 52.761 19.9308Z" fill="url(#paint3_linear_577_7217)"/>
<path fill-rule="evenodd" clip-rule="evenodd" d="M51.4325 20.1706L51.0293 21.666C51.4565 21.4444 51.8651 20.9584 52.1428 20.3175L51.4325 20.1733V20.1706ZM51.6862 19.3588C51.7022 19.2787 51.7102 19.1986 51.7155 19.1212L52.1882 17.3748C52.4926 17.8581 52.5887 18.6539 52.4018 19.5057L51.6862 19.3588ZM49.598 18.9316C49.9398 17.7112 50.7435 16.846 51.4645 16.8968L51.1281 18.1438C50.8103 18.1839 50.4765 18.5577 50.3136 19.0784L49.598 18.9316ZM50.1614 21.7087L50.4979 20.4643C50.359 20.3602 50.2682 20.1653 50.2308 19.9276L49.4484 19.7674C49.379 20.6887 49.6514 21.4577 50.1614 21.7114V21.7087Z" fill="url(#paint4_linear_577_7217)"/>
<path fill-rule="evenodd" clip-rule="evenodd" d="M15.6151 12.7443C16.3762 12.05 17.439 11.086 18.8196 10.0099C19.9998 9.03787 21.4231 7.98309 23.1135 6.98438C23.7891 6.58383 24.4887 6.23401 25.199 5.92425C30.4809 3.19249 34.4998 2.67445 37.9739 3.00023C38.2143 3.02159 38.5908 2.99222 39.0287 2.95483C39.7737 2.89074 40.6923 2.8133 41.4133 2.96551C41.7177 3.0296 49.6086 5.82278 52.5086 7.08318C54.5514 7.9724 54.8211 8.61596 54.9947 9.02986C55.0107 9.06457 55.0241 9.09929 55.0374 9.13133C55.1923 9.47314 55.2991 10.2582 55.2831 10.8323C55.2831 10.9311 55.2938 11.0273 55.3178 11.1234C55.3952 11.4332 55.4887 12.034 55.5154 12.285C55.7023 13.9647 55.6516 15.5188 55.3418 17.1771C55.2404 17.7218 53.5928 19.1691 53.5794 19.0036C53.5741 18.9555 53.5794 18.854 53.5874 18.7072C53.6061 18.3467 53.6355 17.7218 53.566 17.0436C53.4966 16.3519 53.1708 15.1129 52.0119 14.7631C50.8557 14.4133 49.5926 15.436 48.7381 16.9715C47.8008 18.6511 47.8195 20.1865 47.8355 21.3829C47.8408 21.7407 47.8435 22.0665 47.8221 22.3575C47.8061 22.5605 47.6779 22.7367 47.4964 22.8302L33.0071 30.4273C32.9003 30.4834 32.7881 30.5047 32.6813 30.4994L32.1312 30.7905C32.1072 30.3552 32.1392 30.2137 32.1793 30.1122C32.1633 30.0481 32.1606 29.976 32.1713 29.8986C32.1926 29.7677 32.214 29.6342 32.222 29.4366C32.254 28.761 32.3742 25.9358 30.4035 25.2789C28.6678 24.6994 26.4888 26.9025 25.4714 28.6809C25.0415 29.4339 24.6516 30.5849 24.3605 31.7465C24.0988 32.852 23.9253 33.9575 23.8745 34.7319C23.8425 34.7479 23.8024 34.7693 23.7517 34.796L23.725 34.8093C23.6662 34.8868 23.5888 34.9535 23.498 34.9989C23.1108 35.1912 22.4779 35.4876 21.6795 35.792C19.4284 36.7507 15.8929 37.8535 12.83 36.9243C3.79888 34.1872 1.91629 31.4687 1.52375 30.7264C1.20598 30.1229 1.20331 29.5701 1.20064 29.0628C1.20064 28.9426 1.20064 28.8251 1.1953 28.7103L1.17928 27.1722C1.17394 26.7209 1.1686 26.2909 1.16326 25.9091C1.15524 25.2629 1.14723 24.7555 1.15257 24.5018C1.15257 24.4511 1.14723 24.3897 1.13922 24.3122C1.08582 23.7915 0.970991 22.67 2.81086 20.774C4.70146 18.8247 13.4094 13.9353 14.4535 13.6442C14.547 13.6175 14.6565 13.5668 14.7767 13.4893C14.9983 13.3024 15.2787 13.0487 15.6178 12.7416L15.6151 12.7443Z" fill="url(#paint5_linear_577_7217)"/>
<path d="M15.1745 14.5975C14.6537 14.1783 14.6297 13.97 14.7686 13.8738C15.6498 13.2677 15.9889 12.8698 17.6899 11.345C20.8917 8.47174 22.1708 7.95903 22.4778 7.86824C22.5286 7.85222 22.582 7.86023 22.6301 7.87892L34.3448 12.4452C34.5638 12.5307 34.6252 12.811 34.4677 12.9846C31.7092 15.9994 30.6544 18.5363 28.7745 19.3374C25.9306 20.547 16.8327 15.9353 15.1745 14.5975Z" fill="url(#paint6_linear_577_7217)"/>
<path d="M35.9497 13.1048C34.967 14.4907 32.0857 17.89 31.4635 19.0756C30.9588 20.037 47.0476 11.7723 47.5149 11.5079C48.4682 10.9685 50.7674 9.24077 50.5538 8.69869C50.3401 8.15929 48.3294 8.24741 47.1224 8.25809C45.173 8.27678 44.8152 8.20735 42.2864 9.03249C39.7576 9.85762 37.5866 10.7922 35.9497 13.1021V13.1048Z" fill="url(#paint7_linear_577_7217)"/>
<path d="M50.5087 7.68918C50.4259 7.61975 39.3333 3.18965 38.8767 3.203C37.5709 3.23505 37.3305 3.15494 37.3305 3.15494L48.0199 7.38209L50.5087 7.69185V7.68918Z" fill="url(#paint8_linear_577_7217)"/>
<path d="M15.428 27.1881C11.7616 26.9799 10.6534 26.5312 10.349 26.1467C10.106 25.8396 25.4097 20.9262 32.7238 18.6778C30.2831 20.8835 28.0106 23.2921 23.941 25.2335C23.4764 25.4551 19.0383 27.3964 15.428 27.1881Z" fill="url(#paint9_linear_577_7217)" fill-opacity="0.21"/>
<path d="M38.4279 17.2384C38.4279 17.42 38.6202 17.5375 38.7831 17.4574L39.9714 16.8672C40.0568 16.8245 40.1102 16.7364 40.1076 16.6429C40.1076 16.4613 39.9126 16.3438 39.7498 16.4239L38.5641 17.0168C38.4787 17.0595 38.4279 17.1449 38.4279 17.2411V17.2384Z" fill="#323333"/>
<path d="M46.2197 13.7083C46.2197 13.8898 46.4119 14.0073 46.5748 13.9272L47.7631 13.3371C47.8486 13.2943 47.902 13.2089 47.8993 13.1128C47.8993 12.9312 47.7071 12.8137 47.5415 12.8938L46.3559 13.4866C46.2704 13.5293 46.2197 13.6148 46.2197 13.7109V13.7083Z" fill="#323333"/>
<path d="M24.9373 19.2492C26.8626 19.8634 28.2058 19.5536 29.0683 19.2065C30.1498 18.7712 31.266 16.9928 32.7347 15.0755C33.7548 13.7457 33.931 13.5561 34.3423 13.1475C34.6306 12.8618 34.7214 12.7817 34.7214 12.6001C34.7214 12.6001 34.62 12.4746 34.0191 12.2556C33.5545 12.0874 31.1138 11.0246 30.0457 10.7469L20.7956 17.6283C22.1575 18.0716 23.2203 18.6991 24.94 19.2466L24.9373 19.2492Z" fill="black"/>
<path d="M6.6349 27.1508C7.10488 27.4285 10.3841 29.3565 14.5071 28.8919C16.913 28.6195 19.076 27.9038 20.3845 27.4526C20.8224 27.3004 21.1696 27.6555 20.9266 28.0507C20.526 28.705 19.8664 29.5034 19.0173 29.976C17.3083 30.9293 17.0225 31.1456 15.156 31.4047C13.6445 31.6156 12.2586 31.2845 11.6632 31.1403C11.1531 31.0175 9.78858 30.5315 9.32661 30.6543C9.15036 30.7024 8.92071 31.5168 8.67771 31.4848C8.43471 31.4527 6.06078 30.7691 4.4025 29.709C2.40508 28.4326 1.63602 27.0947 1.64136 26.9132C1.6467 26.7316 1.54523 25.5379 1.58262 25.3617C1.62267 25.1881 1.34228 24.387 1.32626 24.2562C1.29422 23.9678 1.27286 23.8102 1.30223 23.4978C1.38768 22.5765 2.26088 21.244 2.10867 21.7994C2.09532 21.8475 2.08464 21.9009 2.0793 21.9517C2.01521 22.7581 1.89772 23.2815 2.38372 23.9277C3.61742 25.5566 4.65351 25.9865 6.62689 27.1508H6.6349Z" fill="#211F1F"/>
<path d="M33.266 29.1054L47.1518 21.8234C47.1064 20.9716 46.9088 18.9368 47.8488 17.1103L31.9309 24.8275C32.505 25.0572 33.2393 26.6834 33.2634 29.1054H33.266Z" fill="url(#paint10_linear_577_7217)"/>
<path d="M42.4736 21.0118L46.2681 19.0838C46.3536 19.033 46.4096 18.9235 46.4096 18.8007V16.1811C46.4096 15.9541 46.2254 15.8046 46.0625 15.8981L42.2679 17.826C42.1825 17.8768 42.1264 17.9863 42.1264 18.1091V20.7287C42.1264 20.9557 42.3107 21.1052 42.4736 21.0118Z" fill="white"/>
<path d="M37.9179 7.4303L35.1007 8.70673C35.0579 8.72542 35.0072 8.72809 34.9618 8.71207L29.2179 6.54375C29.063 6.485 29.0603 6.2687 29.2126 6.20462L31.8669 5.09375C31.9069 5.07773 31.9523 5.07506 31.9951 5.08841L37.9019 7.0885C38.0594 7.14191 38.0701 7.3582 37.9179 7.42763V7.4303Z" fill="white"/>
<path d="M38.6577 19.0623L36.1369 20.288C35.8698 20.4162 35.6509 20.782 35.6509 21.1052V24.1253C35.6509 24.4458 35.8672 24.6193 36.1369 24.5125L38.6577 23.5031C38.9247 23.3963 39.1437 23.0278 39.1437 22.6833V19.4495C39.1437 19.1051 38.9274 18.9342 38.6577 19.065V19.0623Z" fill="url(#paint11_linear_577_7217)"/>
<path d="M38.6575 23.5353L36.1367 24.5447C35.8537 24.6568 35.624 24.4726 35.624 24.1335V21.116C35.624 20.7768 35.8537 20.3896 36.1367 20.2534L38.6575 19.0278C38.9406 18.8889 39.1702 19.0705 39.1702 19.4363V22.6728C39.1702 23.0359 38.9406 23.4258 38.6575 23.538V23.5353ZM36.1367 20.3202C35.883 20.443 35.6801 20.7875 35.6801 21.0893V24.1094C35.6801 24.4112 35.8857 24.5767 36.1367 24.4753L38.6575 23.4632C38.9112 23.3617 39.1142 23.0146 39.1142 22.6915V19.4577C39.1142 19.1346 38.9085 18.9717 38.6575 19.0945L36.1367 20.3175V20.3202Z" fill="#C5D01C"/>
<path d="M36.5373 23.1374L36.4946 23.1561L36.3984 23.6261L36.4412 23.6074L36.5373 23.1374Z" fill="#C5D01C"/>
<path d="M36.6067 23.108L36.58 23.1213L36.4839 23.5913L36.5106 23.5806L36.6067 23.108Z" fill="#C5D01C"/>
<path d="M36.6549 23.0892L36.6389 23.0945L36.5427 23.5672L36.5587 23.5592L36.6549 23.0892Z" fill="#C5D01C"/>
<path d="M36.193 23.2841L36.0461 23.3455L35.95 23.8128L36.0968 23.7514L36.193 23.2841Z" fill="#C5D01C"/>
<path d="M36.3427 23.2202L36.2492 23.2602L36.1531 23.7275L36.2465 23.6901L36.3427 23.2202Z" fill="#C5D01C"/>
<path d="M36.4546 23.1719L36.3852 23.204L36.2864 23.674L36.3585 23.6419L36.4546 23.1719Z" fill="#C5D01C"/>
<path d="M38.3613 22.2481L38.4762 22.2L38.575 21.706L38.4601 21.7567L38.3613 22.2481Z" fill="#C5D01C"/>
<path d="M38.5134 22.184L38.6843 22.1092L38.7831 21.6152L38.6122 21.6899L38.5134 22.184Z" fill="#C5D01C"/>
<path d="M38.2517 22.2962L38.3238 22.2641L38.4226 21.7728L38.3505 21.8048L38.2517 22.2962Z" fill="#C5D01C"/>
<path d="M38.1609 22.3362L38.217 22.3122L38.3158 21.8182L38.2597 21.8422L38.1609 22.3362Z" fill="#C5D01C"/>
<path d="M38.094 22.3629L38.126 22.3496L38.2248 21.8582L38.1928 21.8742L38.094 22.3629Z" fill="#C5D01C"/>
<path d="M38.041 22.387L38.0597 22.379L38.1585 21.8876L38.1371 21.8956L38.041 22.387Z" fill="#C5D01C"/>
<path d="M38.679 22.2267L38.6576 22.3415L38.452 22.4296C38.428 22.4403 38.4253 22.4644 38.4253 22.4724C38.4253 22.4884 38.436 22.4991 38.4494 22.4937L38.5615 22.4457C38.6096 22.4243 38.639 22.4403 38.6336 22.4777L38.5989 22.654C38.5855 22.6993 38.5562 22.7287 38.5215 22.7421L37.9687 22.9717C37.9447 22.9824 37.9286 22.9557 37.9367 22.9156L38.0168 22.5044L38.3105 22.3789L38.2891 22.4911L38.0969 22.5738L38.0835 22.6433L38.2651 22.5658L38.2437 22.678L38.0622 22.7554L38.0515 22.8115C38.0488 22.8302 38.0515 22.8249 38.0648 22.8195L38.4867 22.6406C38.5028 22.6326 38.5134 22.6139 38.5134 22.5952C38.5134 22.5952 38.5134 22.5658 38.4894 22.5738L38.3425 22.6353C38.3105 22.6486 38.2971 22.6353 38.3025 22.6032L38.3425 22.4029C38.3506 22.3575 38.3773 22.3469 38.396 22.3415L38.6844 22.2187L38.679 22.2267Z" fill="white"/>
<path d="M37.934 22.5444C37.9714 22.5311 37.9661 22.5685 37.9554 22.6165L37.9234 22.7741C37.9154 22.8061 37.9073 22.8248 37.8726 22.8382L37.8352 22.8542L37.8993 23.0037L37.8005 23.0438L37.7311 22.8969L37.7525 22.7874L37.8326 22.7527C37.8593 22.742 37.8566 22.7394 37.8593 22.7233V22.7073C37.87 22.6753 37.8593 22.6753 37.8379 22.6859L37.691 22.7474L37.6189 23.1185L37.4988 23.1693L37.5949 22.6886L37.8379 22.5845L37.9287 22.5444H37.934Z" fill="white"/>
<path d="M37.4666 22.9611C37.5067 22.9371 37.512 22.9611 37.5094 22.9852L37.4773 23.1507C37.472 23.1854 37.4506 23.1908 37.3919 23.2175L37.2503 23.2762L37.2744 23.1561L37.3705 23.116C37.3945 23.108 37.4106 23.0359 37.3812 23.0466L37.2877 23.0866L37.3091 22.9745L37.4052 22.9344C37.4426 22.9184 37.4399 22.857 37.4052 22.8703L37.269 22.9264L37.1969 23.2949L37.0955 23.3376L37.1916 22.8597L37.4479 22.7502C37.512 22.7235 37.5334 22.7448 37.5254 22.7902L37.5067 22.881C37.496 22.9264 37.4853 22.9451 37.464 22.9585L37.4666 22.9611Z" fill="white"/>
<path d="M37.1436 22.881L37.0475 23.359L36.9407 23.4044L37.0368 22.9291L37.1436 22.8837V22.881Z" fill="white"/>
<path d="M36.9327 23.2975L36.9087 23.415L36.6817 23.5085C36.6283 23.5298 36.6176 23.5218 36.639 23.4284L36.7111 23.0625L36.8232 23.0145L36.7912 23.1747L36.7618 23.3216C36.7538 23.3616 36.7672 23.3643 36.8072 23.3483L36.93 23.2975H36.9327Z" fill="white"/>
<path fill-rule="evenodd" clip-rule="evenodd" d="M37.5253 22.1653L37.4292 22.6486L37.5841 22.5819L37.6802 22.0959L37.5253 22.1626V22.1653ZM37.2423 22.3923L37.3544 22.2401L37.5013 22.176L37.2797 22.4724L37.3758 22.67L37.1969 22.7474L37.1488 22.6486L37.018 22.8249L36.8711 22.8863L37.1114 22.5658L37.0206 22.3843L37.1996 22.3068L37.2396 22.3923H37.2423ZM36.1688 22.7554L36.1448 22.8756L36.2489 22.8302L36.1768 23.1827L36.321 23.1213L36.3931 22.7688L36.5053 22.7207L36.5293 22.5979L36.1715 22.7528L36.1688 22.7554ZM36.6735 22.5365L36.8311 22.467L36.8497 22.8943L36.6922 22.961V22.8836L36.5533 22.945L36.5026 23.0438L36.3824 23.0946L36.6735 22.5365ZM36.6922 22.7901V22.6646L36.6067 22.8275L36.6922 22.7901ZM37.7737 22.0585L38.0834 21.9223C38.0834 21.9223 38.1021 21.9169 38.0968 21.9383L38.0808 22.0184C38.0808 22.0344 38.0701 22.0451 38.0567 22.0478L37.8591 22.1332C37.8431 22.1386 37.8351 22.1573 37.8351 22.168C37.8351 22.1786 37.8404 22.192 37.8538 22.1866L38.0007 22.1226C38.0354 22.1065 38.0648 22.1039 38.0514 22.1546L38.0113 22.3602C38.006 22.3843 38.0033 22.3976 37.9846 22.4083L37.6402 22.5552C37.6402 22.5552 37.6295 22.5552 37.6295 22.5445L37.6508 22.4537C37.6508 22.4403 37.6615 22.4377 37.6669 22.4323L37.8778 22.3415C37.8778 22.3415 37.8992 22.3255 37.8992 22.3041C37.8992 22.2881 37.8912 22.2801 37.8805 22.2855L37.7336 22.3495C37.7203 22.3549 37.7069 22.3576 37.7016 22.3495C37.6936 22.3442 37.6936 22.3282 37.7016 22.2988L37.7443 22.0852C37.7497 22.0692 37.7577 22.0585 37.7737 22.0531V22.0585Z" fill="white"/>
<path fill-rule="evenodd" clip-rule="evenodd" d="M36.9003 20.622L36.8202 21.0252L37.1566 20.8676L36.919 22.0426L37.3863 21.8343L37.6213 20.654L37.9924 20.4804L38.0726 20.0692L36.9003 20.622Z" fill="#C5D01C"/>
<path style="mix-blend-mode:multiply" opacity="0.5" d="M37.194 20.6806C37.5625 20.4696 38.0138 20.0023 38.1152 19.7032C38.0191 19.1612 37.5892 18.9609 37.0925 19.26C36.6092 19.5484 36.23 20.2293 36.2193 20.8114C36.3875 20.9556 36.8281 20.8889 37.194 20.6806Z" fill="url(#paint12_linear_577_7217)"/>
<path style="mix-blend-mode:multiply" opacity="0.5" d="M37.3512 20.8889C37.2283 21.3749 37.231 21.9865 37.3725 22.1413C37.8398 22.0666 38.3178 21.5325 38.4834 20.8649C38.6436 20.2107 38.4273 19.6633 37.9974 19.6125C37.7597 19.8235 37.474 20.4029 37.3538 20.8889H37.3512Z" fill="url(#paint13_linear_577_7217)"/>
<path style="mix-blend-mode:multiply" opacity="0.5" d="M36.2698 21.4284C36.4461 21.7969 36.8333 22.096 37.0816 22.0185C37.5275 21.4685 37.7011 20.6727 37.4635 20.1653C37.2338 19.6767 36.6597 19.6713 36.163 20.1279C36.0375 20.4858 36.0936 21.0652 36.2671 21.4284H36.2698Z" fill="url(#paint14_linear_577_7217)"/>
<path d="M3.50425 3.5336V6.13926C3.50435 7.06604 3.69703 7.98209 4.06938 8.82604C4.44173 9.66998 4.98515 10.4223 5.66323 11.0326L7.71004 12.8748L9.75686 11.0326C10.435 10.4223 10.9784 9.67002 11.3508 8.82607C11.7231 7.98212 11.9158 7.06605 11.9158 6.13926V3.5336L7.71004 1.91136L3.50425 3.5336ZM2.55725 2.35838L7.71004 0.371323L12.8628 2.3591C12.9964 2.4106 13.1115 2.50281 13.1928 2.62339C13.2741 2.74398 13.3177 2.88721 13.3178 3.03395V6.13926C13.3178 8.42985 12.356 10.6094 10.68 12.1185L7.71004 14.7912L4.74006 12.1185C3.91149 11.3728 3.24749 10.4535 2.79256 9.42225C2.33763 8.39103 2.1023 7.27168 2.10233 6.13926V3.03395C2.10238 2.88721 2.14596 2.74398 2.22725 2.62339C2.30854 2.50281 2.42367 2.4106 2.55725 2.3591V2.35838ZM6.96632 7.77447L9.44493 5.22504C9.57714 5.09371 9.7542 5.02104 9.93799 5.02268C10.1218 5.02432 10.2976 5.10015 10.4276 5.23383C10.5575 5.3675 10.6312 5.54834 10.6328 5.73738C10.6344 5.92642 10.5638 6.10855 10.4361 6.24453L7.4619 9.30442C7.33045 9.43958 7.15219 9.51551 6.96632 9.51551C6.78045 9.51551 6.60219 9.43958 6.47074 9.30442L4.98399 7.77519C4.85631 7.63921 4.78565 7.45709 4.78725 7.26805C4.78885 7.079 4.86257 6.89817 4.99253 6.76449C5.12249 6.63082 5.29831 6.55499 5.4821 6.55335C5.66589 6.5517 5.84295 6.62437 5.97516 6.75571L6.96632 7.77519V7.77447Z" fill="#649EFF"/>
<defs>
<linearGradient id="paint0_linear_577_7217" x1="25.8644" y1="35.9515" x2="27.8773" y2="32.0693" gradientUnits="userSpaceOnUse">
<stop stop-color="#3F3F3F"/>
<stop offset="1" stop-color="#5D5D5D"/>
</linearGradient>
<linearGradient id="paint1_linear_577_7217" x1="29.1208" y1="37.9385" x2="30.7221" y2="30.3463" gradientUnits="userSpaceOnUse">
<stop stop-color="#3F3F3F"/>
<stop offset="1" stop-color="#777676"/>
</linearGradient>
<linearGradient id="paint2_linear_577_7217" x1="49.421" y1="23.8684" x2="50.4814" y2="20.4143" gradientUnits="userSpaceOnUse">
<stop stop-color="#3F3F3F"/>
<stop offset="1" stop-color="#5D5D5D"/>
</linearGradient>
<linearGradient id="paint3_linear_577_7217" x1="49.104" y1="24.5457" x2="49.5593" y2="18.1446" gradientUnits="userSpaceOnUse">
<stop stop-color="#3F3F3F"/>
<stop offset="1" stop-color="#777676"/>
</linearGradient>
<linearGradient id="paint4_linear_577_7217" x1="51.4031" y1="20.5044" x2="49.857" y2="16.3787" gradientUnits="userSpaceOnUse">
<stop stop-color="#3F3F3F"/>
<stop offset="1" stop-color="#777676"/>
</linearGradient>
<linearGradient id="paint5_linear_577_7217" x1="33.9043" y1="27.9118" x2="16.7127" y2="3.35004" gradientUnits="userSpaceOnUse">
<stop stop-color="#C0D01F"/>
<stop offset="0.63" stop-color="#ADBD14"/>
<stop offset="1" stop-color="#C0D01F"/>
</linearGradient>
<linearGradient id="paint6_linear_577_7217" x1="13.372" y1="-4.29784" x2="24.4325" y2="13.0674" gradientUnits="userSpaceOnUse">
<stop stop-color="#E8EAE8"/>
<stop offset="0.5" stop-color="#707072"/>
<stop offset="1" stop-color="#2F3133"/>
</linearGradient>
<linearGradient id="paint7_linear_577_7217" x1="54.4097" y1="37.8428" x2="40.5453" y2="13.0941" gradientUnits="userSpaceOnUse">
<stop stop-color="#E8EAE8"/>
<stop offset="0.5" stop-color="#707072"/>
<stop offset="1" stop-color="#2F3133"/>
</linearGradient>
<linearGradient id="paint8_linear_577_7217" x1="51.7637" y1="16.6589" x2="44.0598" y2="5.62233" gradientUnits="userSpaceOnUse">
<stop stop-color="#E8EAE8"/>
<stop offset="0.5" stop-color="#707072"/>
<stop offset="1" stop-color="#2F3133"/>
</linearGradient>
<linearGradient id="paint9_linear_577_7217" x1="23.2628" y1="27.2923" x2="21.4416" y2="22.1412" gradientUnits="userSpaceOnUse">
<stop stop-color="#ECEAEA"/>
<stop offset="1" stop-color="white" stop-opacity="0"/>
</linearGradient>
<linearGradient id="paint10_linear_577_7217" x1="38.5693" y1="19.1157" x2="43.0769" y2="28.1628" gradientUnits="userSpaceOnUse">
<stop stop-color="#C0D01F" stop-opacity="0.66"/>
<stop offset="1" stop-color="#99A820"/>
</linearGradient>
<linearGradient id="paint11_linear_577_7217" x1="37.3973" y1="24.4805" x2="37.3973" y2="18.2479" gradientUnits="userSpaceOnUse">
<stop stop-color="#232322"/>
<stop offset="1" stop-color="#343433"/>
</linearGradient>
<linearGradient id="paint12_linear_577_7217" x1="37.1051" y1="19.3944" x2="37.2291" y2="20.8015" gradientUnits="userSpaceOnUse">
<stop stop-color="white" stop-opacity="0"/>
<stop offset="1" stop-color="#C7C5C4"/>
</linearGradient>
<linearGradient id="paint13_linear_577_7217" x1="38.2685" y1="21.2519" x2="37.408" y2="20.9541" gradientUnits="userSpaceOnUse">
<stop stop-color="white" stop-opacity="0"/>
<stop offset="1" stop-color="#C7C5C4"/>
</linearGradient>
<linearGradient id="paint14_linear_577_7217" x1="37.4656" y1="20.6759" x2="36.2313" y2="21.27" gradientUnits="userSpaceOnUse">
<stop stop-color="white" stop-opacity="0"/>
<stop offset="1" stop-color="#C7C5C4"/>
</linearGradient>
</defs>
</svg>
