<svg width="56" height="34" viewBox="0 0 56 34" fill="none" xmlns="http://www.w3.org/2000/svg">
<g clip-path="url(#clip0_577_6842)">
<path d="M26.4888 31.4794C33.9401 28.0826 54.6556 16.9908 55.0141 16.7104C55.3751 16.4301 57.2896 15.4069 54.5486 14.0122C51.1852 12.3022 37.3333 8.63446 32.989 10.4753C28.6473 12.3185 3.76419 24.193 3.25881 24.4757C2.75343 24.7583 -1.51615 26.6366 0.570095 28.2602C2.38 29.8137 7.39147 31.8882 10.1424 32.6381C15.5373 34.1098 20.845 34.0491 26.4888 31.477V31.4794Z" fill="black" fill-opacity="0.1"/>
<path fill-rule="evenodd" clip-rule="evenodd" d="M28.3136 23.345C28.1941 23.9033 28.0025 24.478 27.7361 25.0527C27.4473 25.6741 27.0987 26.2371 26.7129 26.7277L25.2689 29.7763L22.5802 28.6363C22.5603 28.6293 22.5404 28.6223 22.5229 28.6129C20.8674 27.9354 20.5164 25.2396 21.7412 22.5951C22.9636 19.9506 25.2988 18.355 26.9543 19.0325C26.9718 19.0395 26.9892 19.0465 27.0066 19.0535L29.7875 20.2309L28.3136 23.3426V23.345Z" fill="black"/>
<path d="M30.4915 26.2138C31.7109 23.5697 31.3552 20.8805 29.6971 20.2072C28.0391 19.5339 25.7064 21.1315 24.4871 23.7756C23.2678 26.4196 23.6234 29.1089 25.2815 29.7822C26.9396 30.4555 29.2722 28.8579 30.4915 26.2138Z" fill="black"/>
<path d="M29.8345 25.9121C30.7491 23.9288 30.483 21.9118 29.24 21.4071C27.9971 20.9024 26.2481 22.101 25.3334 24.0844C24.4188 26.0677 24.6849 28.0847 25.9278 28.5894C27.1708 29.0942 28.9198 27.8955 29.8345 25.9121Z" fill="url(#paint0_linear_577_6842)"/>
<path fill-rule="evenodd" clip-rule="evenodd" d="M27.4646 23.9781C27.3651 24.0435 27.268 24.1299 27.1759 24.2327L26.4489 23.074C26.7576 22.7096 27.0987 22.4176 27.4472 22.2166L27.4671 23.9781H27.4646ZM27.507 27.8887C27.0539 28.0967 26.5983 28.141 26.2049 27.9798C26.1477 27.9565 26.0929 27.9285 26.0406 27.8981L27.0688 26.181C27.1983 26.2278 27.3402 26.2184 27.4871 26.1647L27.507 27.8864V27.8887ZM28.702 26.9449L27.9875 25.8073C27.8779 25.9287 27.7609 26.0245 27.6414 26.0946L27.6588 27.814C28.0223 27.6178 28.3783 27.3234 28.702 26.9449ZM28.1219 23.8589C28.1667 23.8776 28.2065 23.901 28.2439 23.9314L29.282 22.2003C29.1874 22.1232 29.0829 22.0601 28.9683 22.0134C28.5551 21.8452 28.0771 21.9013 27.6016 22.1349L27.6215 23.8916C27.7982 23.8122 27.9725 23.7935 28.1244 23.8566L28.1219 23.8589ZM29.5409 25.5666L28.3285 25.2746C28.3235 25.2886 28.3161 25.3027 28.3111 25.3167C28.2489 25.4522 28.1717 25.5783 28.0895 25.6881L28.804 26.8258C29.0505 26.5174 29.2721 26.16 29.4563 25.7652C29.4862 25.6998 29.516 25.6344 29.5434 25.569L29.5409 25.5666ZM26.8622 24.721C26.8547 24.735 26.8497 24.7513 26.8423 24.7653L25.6174 24.4687C25.6498 24.3892 25.6821 24.3121 25.7195 24.2327C25.8962 23.8496 26.1128 23.5015 26.3493 23.1978L27.0763 24.3565C26.9966 24.464 26.9219 24.5878 26.8597 24.721H26.8622ZM28.3833 25.1391C28.443 24.9709 28.4779 24.8027 28.4854 24.6485L29.9094 23.8566C29.9094 24.3448 29.8048 24.8845 29.5957 25.4335L28.3833 25.1391ZM25.5626 24.6042C25.3435 25.1859 25.2489 25.7605 25.2664 26.2698L26.6854 25.4802C26.6854 25.3003 26.7178 25.1018 26.7875 24.8985L25.5626 24.6018V24.6042ZM25.9161 27.814L26.9369 26.111C26.8074 26.0105 26.7253 25.8446 26.6954 25.6414L25.2738 26.431C25.3261 27.0314 25.5427 27.5266 25.9161 27.814ZM29.3941 22.3031L28.3484 24.0458C28.4256 24.158 28.4704 24.3075 28.4829 24.478L29.9044 23.6884C29.8795 23.1114 29.7052 22.6208 29.3941 22.3031Z" fill="#4D4C4C"/>
<path fill-rule="evenodd" clip-rule="evenodd" d="M28.3086 23.2983C28.1891 23.8542 27.9974 24.4266 27.7335 24.9989C27.4472 25.618 27.0987 26.181 26.7153 26.6693L25.2689 29.7249L22.5826 28.5849C22.5627 28.5779 22.5403 28.5685 22.5204 28.5615C20.8649 27.8841 20.5138 25.1882 21.7387 22.5437C22.9636 19.8992 25.2963 18.3036 26.9518 18.9811C26.9692 18.9881 26.9867 18.9951 27.0041 19.0045L29.7824 20.1819L28.3061 23.3006L28.3086 23.2983Z" fill="black"/>
<path d="M29.8049 20.002C28.1493 19.3245 25.7469 21.0579 24.5245 23.7024C23.3022 26.3445 23.6532 29.0381 25.3088 29.7156C26.9643 30.393 29.297 28.7998 30.5194 26.1576C31.7418 23.5155 31.4604 20.6795 29.8049 20.002Z" fill="black"/>
<path d="M29.6873 25.7986C30.5155 23.8653 30.2324 21.9379 29.0549 21.4938C27.8774 21.0496 26.2514 22.2568 25.4232 24.1901C24.595 26.1234 24.8781 28.0507 26.0556 28.4949C27.2331 28.9391 28.859 27.7319 29.6873 25.7986Z" fill="url(#paint1_linear_577_6842)"/>
<path fill-rule="evenodd" clip-rule="evenodd" d="M28.2042 25.5456C27.9478 25.9824 27.5793 26.2698 27.2532 26.2978L26.6457 27.6364C27.4324 27.7672 28.4233 27.029 29.0158 25.8493L28.2042 25.5432V25.5456ZM28.3884 25.1508C28.5652 24.6532 28.5428 24.1719 28.3411 23.9033L28.9486 22.5647C29.5585 23.0529 29.668 24.2443 29.1925 25.4544L28.3884 25.1508ZM26.0383 24.2654C26.6383 22.9735 27.7162 22.1675 28.5428 22.3638L27.9428 23.686C27.5693 23.6697 27.1212 24.0224 26.8449 24.5691L26.0408 24.2654H26.0383ZM26.825 26.1436L26.225 27.4658C25.5877 27.0243 25.4433 25.8679 25.8715 24.6672L26.6831 24.9732C26.5437 25.4591 26.5984 25.9147 26.825 26.1436Z" fill="#484747"/>
<path fill-rule="evenodd" clip-rule="evenodd" d="M47.3463 14.9513C47.3363 15.4162 47.2716 15.9068 47.1471 16.4067C47.0127 16.9487 46.821 17.4509 46.587 17.8995L45.8949 20.5883L43.5298 20.037C43.5124 20.0347 43.4949 20.03 43.4775 20.0253C42.0261 19.7053 41.3141 17.5654 41.8892 15.2456C42.4643 12.9259 44.1074 11.3046 45.5588 11.6246C45.5737 11.6293 45.5912 11.6317 45.6061 11.6363L48.0508 12.204L47.3438 14.9489L47.3463 14.9513Z" fill="black"/>
<path d="M49.5758 16.9661C50.1481 14.647 49.434 12.511 47.9806 12.1952C46.5273 11.8793 44.8851 13.5032 44.3127 15.8222C43.7404 18.1413 44.4545 20.2773 45.9079 20.5931C47.3612 20.909 49.0034 19.2851 49.5758 16.9661Z" fill="black"/>
<path d="M48.9655 16.9481C49.3946 15.2098 48.8585 13.6085 47.7681 13.3715C46.6778 13.1345 45.4461 14.3516 45.017 16.09C44.588 17.8283 45.1241 19.4296 46.2144 19.6666C47.3048 19.9035 48.5365 18.6864 48.9655 16.9481Z" fill="url(#paint2_linear_577_6842)"/>
<path d="M48.8068 17.0575C49.3592 15.4136 48.9959 13.8409 47.9954 13.5449C46.9948 13.2489 45.736 14.3416 45.1836 15.9855C44.6312 17.6295 44.9945 19.2021 45.9951 19.4981C46.9956 19.7941 48.2545 18.7014 48.8068 17.0575Z" fill="url(#paint3_linear_577_6842)"/>
<path fill-rule="evenodd" clip-rule="evenodd" d="M47.645 16.8856C47.4882 17.2664 47.2268 17.5421 46.9629 17.6121L46.6268 18.7755C47.2915 18.7709 48.011 18.0467 48.3521 17.0211L47.6425 16.8856H47.645ZM47.7521 16.5305C47.8367 16.1077 47.7571 15.7269 47.5629 15.5353L47.899 14.3696C48.4591 14.6826 48.6981 15.6264 48.4566 16.666L47.7521 16.5305ZM45.7007 16.138C46.0368 15.012 46.826 14.2154 47.533 14.2621L47.2019 15.4115C46.8907 15.4489 46.5621 15.7923 46.4027 16.2735L45.7007 16.138ZM46.587 17.5491L46.2559 18.6961C45.6758 18.4274 45.4119 17.5187 45.6136 16.4955L46.3231 16.631C46.2733 17.0398 46.3754 17.3949 46.5895 17.5467L46.587 17.5491Z" fill="url(#paint4_linear_577_6842)"/>
<path d="M12.2859 29.573C16.5356 30.8906 21.9329 28.4167 23.1105 27.8537C23.2051 27.8069 23.2648 27.7205 23.2723 27.6201C23.4092 26.1016 23.7204 24.6415 24.5295 23.3146C25.5278 21.6746 27.6689 19.6445 29.3742 20.1795C31.3111 20.7869 31.1916 22.6722 31.1617 23.2936C31.1418 23.6814 31.1268 23.8239 31.1169 24.2327C31.1119 24.4359 31.2837 24.5364 31.4804 24.4499L43.8933 18.9974C43.9829 18.9577 44.0476 18.8806 44.0601 18.7872C44.207 17.6285 43.7265 16.4885 44.9737 14.3906C45.8152 12.9749 46.9504 12.0054 48.0882 12.3302C49.2259 12.6525 49.6168 14.1757 49.6665 14.5331C49.7661 15.0354 49.7736 15.3648 49.7412 15.6334C49.7562 15.7853 50.737 14.5588 50.8366 14.0566C51.1404 12.5264 51.1902 11.7975 51.0059 10.2487C50.9761 9.99638 50.8715 9.36329 50.7918 9.10866C50.7794 9.06894 50.7719 9.02456 50.7744 8.98251C50.8018 8.44987 50.6947 7.67194 50.5354 7.34255C50.3562 6.96877 49.7811 5.48767 48.6782 5.27742C46.6766 3.49964 39.778 1.43918 39.1158 1.40414C38.8494 1.39012 38.1499 1.20791 38.0876 1.17754C37.7515 1.007 36.1732 0.616867 35.6728 0.612195C31.9135 0.584162 25.9536 2.11665 22.2043 4.01825C19.7122 5.28209 15.2211 9.69502 14.3348 10.2463C8.89015 13.6314 5.81307 14.9256 4.5185 16.1474C2.97498 18.1891 3.39322 18.918 3.38575 19.2871C3.36335 19.4927 2.83805 23.0156 3.8737 24.5995C4.13511 24.8447 3.41314 26.8211 12.2909 29.573H12.2859Z" fill="url(#paint5_linear_577_6842)"/>
<path d="M16.0377 11.2813C15.5273 10.8958 14.5888 10.2627 14.7257 10.1739C15.5921 9.61562 16.2991 8.819 17.875 7.46639C21.4898 4.35702 22.1296 4.26357 22.1969 4.26591C22.2018 4.26591 22.2068 4.26591 22.2093 4.26824L33.4895 8.43354C33.5915 8.47092 33.6189 8.5924 33.5442 8.66715C30.7037 11.5219 29.6655 13.9468 27.7784 14.699C24.9852 15.8157 17.6659 12.5124 16.0377 11.2789V11.2813Z" fill="url(#paint6_linear_577_6842)"/>
<path d="M34.8264 8.95445C33.8604 10.2323 31.0298 13.365 30.4199 14.4607C29.9244 15.3484 45.7306 7.72799 46.1887 7.48503C47.1248 6.98744 49.0915 6.4805 48.4367 6.11139C47.782 5.74229 45.6883 4.7471 44.5008 4.75644C42.5863 4.77513 42.1407 4.97137 40.8287 5.37084C39.5167 5.77266 36.4346 6.82157 34.8264 8.95211V8.95445Z" fill="url(#paint7_linear_577_6842)"/>
<path d="M14.6684 21.9386C11.066 21.7447 9.97809 21.3312 9.67934 20.9785C9.44035 20.6958 24.4772 16.1661 31.6596 14.0916C29.2622 16.124 27.029 18.3457 23.0308 20.1352C22.5727 20.3407 18.2135 22.1302 14.6684 21.9386Z" fill="url(#paint8_linear_577_6842)" fill-opacity="0.21"/>
<path d="M36.6637 13.1314C36.6637 13.2366 36.7832 13.3066 36.8852 13.2576L38.2296 12.6315C38.2819 12.6058 38.3142 12.5567 38.3142 12.5007V12.3138C38.3117 12.2087 38.1923 12.1386 38.0902 12.1876L36.7458 12.8161C36.6935 12.8418 36.6612 12.8908 36.6612 12.9469V13.1314H36.6637Z" fill="#323333"/>
<path d="M44.4809 9.50347C44.4809 9.6086 44.6003 9.67868 44.7024 9.62962L46.0468 9.00354C46.0991 8.97784 46.1314 8.92879 46.1314 8.87272V8.68583C46.1289 8.5807 46.0094 8.51062 45.9074 8.55968L44.563 9.18809C44.5107 9.21379 44.4784 9.26285 44.4784 9.31892V9.50347H44.4809Z" fill="#323333"/>
<path d="M24.0091 14.6196C25.8987 15.1849 27.2207 14.8999 28.0671 14.5799C29.1302 14.1781 30.2256 12.5381 31.6695 10.772C32.6728 9.54553 32.7699 9.44041 33.1757 9.06196C33.4968 8.71388 33.6537 8.62978 33.5765 8.49895C33.5765 8.49895 33.6263 8.46391 33.0338 8.26067C32.5782 8.10415 30.009 7.15335 28.9634 6.75854L19.9213 13.274C21.313 13.8113 23.0507 14.4047 24.0091 14.6149V14.6196Z" fill="black"/>
<path d="M13.2493 23.3566C12.9729 22.6418 12.8609 22.2306 12.8609 22.2306C13.2916 22.2587 13.426 22.24 13.6899 22.2353C14.0086 22.2283 14.3322 22.2096 14.6658 22.1746C17.1106 21.9246 19.284 21.2424 20.3744 20.9201C20.581 20.8593 20.7404 21.0182 20.6333 21.1934C20.3146 21.7213 18.5495 23.7468 18.1861 23.8402C17.2873 24.0738 14.9546 24.1205 13.5605 24.2257C13.5605 24.2257 13.436 23.8215 13.2468 23.359L13.2493 23.3566Z" fill="#211F1F"/>
<path d="M3.27116 18.1845C3.64709 17.3809 4.37155 16.2735 4.15993 16.8459C4.14998 16.8739 4.14251 16.9043 4.13753 16.9347C4.05786 17.6892 4.11512 17.9625 4.6454 18.5583C4.54582 19.1516 4.43627 19.6259 4.35412 19.8665L3.43796 19.5488C3.38319 19.2871 3.36079 19.1189 3.35332 19.0605C3.32095 18.7965 3.27116 18.1845 3.27116 18.1845Z" fill="#211F1F"/>
<path d="M13.7125 22.247C13.7125 22.247 9.29602 22.5787 4.61566 18.5255L4.20488 18.8456C4.20488 18.8456 7.30686 22.5624 13.4112 23.2866C13.7374 23.3263 13.7125 22.2446 13.7125 22.2446V22.247Z" fill="#211F1F"/>
<path d="M37.2884 4.12803L34.652 5.24937C34.6121 5.26572 34.5673 5.26805 34.525 5.25404L29.1575 3.35477C29.0181 3.30572 29.0131 3.12116 29.1525 3.0651L31.6396 2.0886C31.677 2.07458 31.7193 2.07224 31.7566 2.08393L37.276 3.83835C37.4179 3.88274 37.4278 4.06963 37.2909 4.12803H37.2884Z" fill="white"/>
<path d="M31.7916 23.1955L43.3381 18.091C43.2958 17.3458 43.3804 15.1032 44.4783 13.879L30.1609 19.6913C30.6962 19.8922 32.1998 21.0509 31.7891 23.1978L31.7916 23.1955Z" fill="url(#paint9_linear_577_6842)"/>
<path d="M36.5741 15.1802L34.0223 16.2081C33.751 16.3179 33.5319 16.6333 33.5319 16.9159V19.5581C33.5319 19.8384 33.751 19.9879 34.0223 19.8922L36.5741 18.9951C36.8455 18.8993 37.0646 18.5839 37.0646 18.2896V15.5189C37.0646 15.2246 36.8455 15.0727 36.5741 15.1825V15.1802Z" fill="url(#paint10_linear_577_6842)"/>
<path d="M36.5741 19.0231L34.0223 19.9202C33.736 20.0206 33.502 19.8618 33.502 19.5651V16.9253C33.502 16.6286 33.736 16.2922 34.0223 16.1777L36.5741 15.1498C36.8604 15.0354 37.0944 15.1942 37.0944 15.5049V18.2756C37.0944 18.5863 36.8604 18.9227 36.5741 19.0231ZM34.0223 16.2361C33.7659 16.3389 33.5592 16.6379 33.5592 16.9019V19.5441C33.5592 19.808 33.7659 19.9506 34.0223 19.8594L36.5741 18.96C36.8305 18.8713 37.0371 18.5722 37.0371 18.2942V15.5259C37.0371 15.2479 36.8305 15.1054 36.5741 15.2082L34.0223 16.2338V16.2361Z" fill="#C5D01C"/>
<path d="M34.4281 18.6914L34.3858 18.7077L34.2887 19.1166L34.331 19.1025L34.4281 18.6914Z" fill="#C5D01C"/>
<path d="M34.5002 18.6657L34.4729 18.675L34.3733 19.0862L34.4007 19.0768L34.5002 18.6657Z" fill="#C5D01C"/>
<path d="M34.5475 18.6493L34.53 18.654L34.433 19.0651L34.4504 19.0581L34.5475 18.6493Z" fill="#C5D01C"/>
<path d="M34.0795 18.8199L33.9301 18.8759L33.833 19.2824L33.9824 19.2287L34.0795 18.8199Z" fill="#C5D01C"/>
<path d="M34.2314 18.7638L34.1368 18.7988L34.0397 19.2077L34.1343 19.1726L34.2314 18.7638Z" fill="#C5D01C"/>
<path d="M34.346 18.7217L34.2738 18.7474L34.1742 19.1586L34.2464 19.1329L34.346 18.7217Z" fill="#C5D01C"/>
<path d="M36.2753 17.9181L36.3898 17.8761L36.4894 17.4509L36.3749 17.4929L36.2753 17.9181Z" fill="#C5D01C"/>
<path d="M36.4296 17.862L36.6014 17.7966L36.701 17.3715L36.5292 17.4369L36.4296 17.862Z" fill="#C5D01C"/>
<path d="M36.1633 17.9578L36.2355 17.9321L36.3376 17.507L36.2654 17.535L36.1633 17.9578Z" fill="#C5D01C"/>
<path d="M36.0712 17.9928L36.1285 17.9718L36.228 17.549L36.1733 17.5676L36.0712 17.9928Z" fill="#C5D01C"/>
<path d="M36.0038 18.0162L36.0362 18.0045L36.1358 17.5817L36.1034 17.5957L36.0038 18.0162Z" fill="#C5D01C"/>
<path d="M35.9492 18.0372L35.9691 18.0302L36.0687 17.6074L36.0487 17.6144L35.9492 18.0372Z" fill="#C5D01C"/>
<path d="M36.5965 17.8994L36.5741 17.9975L36.365 18.0723C36.3401 18.0816 36.3376 18.1027 36.3376 18.1097C36.3376 18.1237 36.3476 18.133 36.36 18.1284L36.472 18.0863C36.5193 18.07 36.5517 18.0816 36.5442 18.1143L36.5094 18.2662C36.4969 18.3059 36.4671 18.3293 36.4322 18.3433L35.8721 18.5442C35.8496 18.5535 35.8322 18.5325 35.8397 18.4975L35.9218 18.1424L36.2206 18.0326L36.1982 18.1307L36.004 18.2008L35.9891 18.2615L36.1733 18.1938L36.1509 18.2919L35.9667 18.3596L35.9542 18.4087C35.9517 18.4227 35.9542 18.4204 35.9667 18.4157L36.3949 18.2615C36.4123 18.2545 36.4222 18.2382 36.4222 18.2218C36.4222 18.2218 36.4222 18.1961 36.3974 18.2054L36.248 18.2592C36.2156 18.2709 36.2032 18.2592 36.2081 18.2335L36.248 18.0606C36.2579 18.0209 36.2853 18.0115 36.3003 18.0069L36.5915 17.8994H36.5965Z" fill="white"/>
<path d="M35.8421 18.1727C35.8794 18.1611 35.8744 18.1938 35.8645 18.2358L35.8346 18.3713C35.8246 18.3993 35.8172 18.4157 35.7848 18.425L35.7475 18.4391L35.8122 18.5675L35.7126 18.6026L35.6429 18.4764L35.6653 18.3807L35.745 18.3503C35.7724 18.3409 35.7699 18.3386 35.7724 18.3246V18.3106C35.7823 18.2825 35.7724 18.2825 35.7524 18.2919L35.6056 18.3456L35.5309 18.6657L35.4089 18.71L35.506 18.2942L35.7524 18.2031L35.8445 18.1704L35.8421 18.1727Z" fill="white"/>
<path d="M35.369 18.5348C35.4089 18.5138 35.4139 18.5348 35.4114 18.5535L35.379 18.696C35.3715 18.7264 35.3541 18.7311 35.2944 18.7544L35.15 18.8058L35.1749 18.703L35.2719 18.668C35.2944 18.661 35.3118 18.5979 35.2844 18.6096L35.1898 18.6446L35.2122 18.5488L35.3093 18.5138C35.3466 18.4998 35.3441 18.446 35.3093 18.4601L35.1724 18.5091L35.0977 18.8268L34.9956 18.8642L35.0927 18.4507L35.3541 18.3549C35.4188 18.3316 35.4412 18.3503 35.4338 18.39L35.4163 18.4694C35.4064 18.5091 35.3939 18.5255 35.374 18.5348H35.369Z" fill="white"/>
<path d="M35.043 18.4671L34.9459 18.8806L34.8389 18.9203L34.936 18.5068L35.043 18.4671Z" fill="white"/>
<path d="M34.8264 18.8292L34.8015 18.932L34.5725 19.0137C34.5177 19.0324 34.5078 19.0254 34.5302 18.9437L34.6049 18.6259L34.7169 18.5839L34.6845 18.7241L34.6547 18.8525C34.6447 18.8876 34.6596 18.8899 34.6995 18.8759L34.8239 18.8315L34.8264 18.8292Z" fill="white"/>
<path fill-rule="evenodd" clip-rule="evenodd" d="M35.4288 17.8457L35.3317 18.2639L35.4886 18.2055L35.5857 17.7873L35.4288 17.8457ZM35.1401 18.0419L35.2546 17.9088L35.4015 17.8527L35.1774 18.1097L35.2745 18.2825L35.0952 18.348L35.0479 18.2615L34.916 18.4157L34.7691 18.4694L35.0106 18.1914L34.921 18.0349L35.1002 17.9672L35.1425 18.0419H35.1401ZM34.0521 18.3573L34.0272 18.4624L34.1318 18.4227L34.0571 18.7287L34.2015 18.675L34.2737 18.369L34.3882 18.3269L34.4131 18.2218L34.0496 18.3573H34.0521ZM34.5625 18.1657L34.7243 18.105L34.7442 18.4764L34.5824 18.5348V18.4671L34.4405 18.5208L34.3882 18.6073L34.2687 18.6517L34.5625 18.1657ZM34.5799 18.3877V18.2779L34.4953 18.418L34.5799 18.3853V18.3877ZM35.6728 17.7522L35.9865 17.6354C35.9989 17.6308 36.0064 17.6308 36.0014 17.6471L35.9865 17.7172C35.984 17.7312 35.9765 17.7406 35.9616 17.7429L35.7624 17.8177C35.7475 17.8223 35.7375 17.8387 35.7375 17.848C35.7375 17.8574 35.745 17.8691 35.755 17.8644L35.9043 17.8083C35.9392 17.7943 35.9691 17.792 35.9566 17.8363L35.9143 18.0139C35.9093 18.0349 35.9043 18.0466 35.8894 18.0536L35.5409 18.1821C35.5409 18.1821 35.5284 18.1821 35.5309 18.1727L35.5508 18.0957C35.5508 18.084 35.5608 18.0816 35.5683 18.0793L35.7824 17.9999C35.7824 17.9999 35.8048 17.9859 35.8048 17.9672C35.8048 17.9532 35.7973 17.9461 35.7848 17.9508L35.6355 18.0069C35.6205 18.0116 35.6106 18.0139 35.6031 18.0069C35.5956 18.0022 35.5932 17.9882 35.6031 17.9648L35.6454 17.7803C35.6504 17.7663 35.6604 17.7569 35.6753 17.7522H35.6728Z" fill="white"/>
<path fill-rule="evenodd" clip-rule="evenodd" d="M34.7966 16.5071L34.7145 16.8552L35.0555 16.722L34.8141 17.7382L35.2871 17.5607L35.5261 16.5398L35.902 16.3926L35.9841 16.0399L34.7966 16.5071Z" fill="#C5D01C"/>
<path style="mix-blend-mode:multiply" opacity="0.5" d="M35.0952 16.5608C35.4662 16.3833 35.9242 15.9815 36.0263 15.7245C35.9292 15.2573 35.4935 15.0774 34.9907 15.3274C34.5027 15.5703 34.1168 16.159 34.1069 16.666C34.2761 16.7945 34.7243 16.7407 35.0952 16.5632V16.5608Z" fill="url(#paint11_linear_577_6842)"/>
<path style="mix-blend-mode:multiply" opacity="0.5" d="M35.2546 16.7407C35.1301 17.1612 35.1326 17.6915 35.2745 17.8247C35.7475 17.7593 36.2305 17.3014 36.3998 16.7267C36.5641 16.1661 36.3425 15.6918 35.9068 15.6428C35.6678 15.8226 35.379 16.3202 35.2546 16.7407Z" fill="url(#paint12_linear_577_6842)"/>
<path style="mix-blend-mode:multiply" opacity="0.5" d="M34.1592 17.2033C34.336 17.5257 34.7318 17.785 34.9808 17.7196C35.4314 17.2453 35.6081 16.5585 35.3691 16.117C35.1351 15.6918 34.5575 15.6778 34.0547 16.0679C33.9277 16.3786 33.9849 16.8856 34.1617 17.2033H34.1592Z" fill="url(#paint13_linear_577_6842)"/>
<path d="M39.5415 17.1799L43.0792 15.4933C43.1589 15.4489 43.2111 15.3531 43.2111 15.2456V12.9539C43.2111 12.7553 43.0394 12.6245 42.8875 12.7063L39.3498 14.393C39.2702 14.4373 39.2179 14.5331 39.2179 14.6406V16.9323C39.2179 17.1309 39.3897 17.2617 39.5415 17.1799Z" fill="white"/>
</g>
<defs>
<linearGradient id="paint0_linear_577_6842" x1="25.1446" y1="30.1635" x2="26.9337" y2="26.4922" gradientUnits="userSpaceOnUse">
<stop stop-color="#3F3F3F"/>
<stop offset="1" stop-color="#5D5D5D"/>
</linearGradient>
<linearGradient id="paint1_linear_577_6842" x1="31.1022" y1="33.061" x2="32.4963" y2="26.0235" gradientUnits="userSpaceOnUse">
<stop stop-color="#3F3F3F"/>
<stop offset="1" stop-color="#777676"/>
</linearGradient>
<linearGradient id="paint2_linear_577_6842" x1="45.8199" y1="21.0954" x2="46.7445" y2="17.8791" gradientUnits="userSpaceOnUse">
<stop stop-color="#3F3F3F"/>
<stop offset="1" stop-color="#5D5D5D"/>
</linearGradient>
<linearGradient id="paint3_linear_577_6842" x1="43.8924" y1="20.997" x2="44.2854" y2="15.0927" gradientUnits="userSpaceOnUse">
<stop stop-color="#3F3F3F"/>
<stop offset="1" stop-color="#777676"/>
</linearGradient>
<linearGradient id="paint4_linear_577_6842" x1="47.4882" y1="17.6191" x2="46.1085" y2="13.7206" gradientUnits="userSpaceOnUse">
<stop stop-color="#3F3F3F"/>
<stop offset="1" stop-color="#777676"/>
</linearGradient>
<linearGradient id="paint5_linear_577_6842" x1="32.1152" y1="22.1769" x2="17.3922" y2="1.10894" gradientUnits="userSpaceOnUse">
<stop stop-color="#CADC31"/>
<stop offset="0.63" stop-color="#B1C126"/>
<stop offset="1" stop-color="#A3B12C"/>
</linearGradient>
<linearGradient id="paint6_linear_577_6842" x1="11.5764" y1="-2.59527" x2="23.6138" y2="10.4238" gradientUnits="userSpaceOnUse">
<stop stop-color="#E8EAE8"/>
<stop offset="0.5" stop-color="#707072"/>
<stop offset="1" stop-color="#2F3133"/>
</linearGradient>
<linearGradient id="paint7_linear_577_6842" x1="33.9824" y1="-2.30798" x2="38.1548" y2="8.6074" gradientUnits="userSpaceOnUse">
<stop stop-color="#E8EAE8"/>
<stop offset="0.5" stop-color="#707072"/>
<stop offset="1" stop-color="#2F3133"/>
</linearGradient>
<linearGradient id="paint8_linear_577_6842" x1="22.3636" y1="22.0368" x2="20.7663" y2="17.2212" gradientUnits="userSpaceOnUse">
<stop stop-color="#ECEAEA"/>
<stop offset="1" stop-color="white" stop-opacity="0"/>
</linearGradient>
<linearGradient id="paint9_linear_577_6842" x1="38.7114" y1="17.8144" x2="39.8888" y2="21.1975" gradientUnits="userSpaceOnUse">
<stop stop-color="#C7D930"/>
<stop offset="1" stop-color="#99A820"/>
</linearGradient>
<linearGradient id="paint10_linear_577_6842" x1="35.297" y1="19.8641" x2="35.297" y2="14.477" gradientUnits="userSpaceOnUse">
<stop stop-color="#232322"/>
<stop offset="1" stop-color="#343433"/>
</linearGradient>
<linearGradient id="paint11_linear_577_6842" x1="35.0089" y1="15.4501" x2="35.1088" y2="16.6567" gradientUnits="userSpaceOnUse">
<stop stop-color="white" stop-opacity="0"/>
<stop offset="1" stop-color="#C7C5C4"/>
</linearGradient>
<linearGradient id="paint12_linear_577_6842" x1="36.1768" y1="17.0795" x2="35.3259" y2="16.7652" gradientUnits="userSpaceOnUse">
<stop stop-color="white" stop-opacity="0"/>
<stop offset="1" stop-color="#C7C5C4"/>
</linearGradient>
<linearGradient id="paint13_linear_577_6842" x1="35.3401" y1="16.5337" x2="34.1622" y2="17.1405" gradientUnits="userSpaceOnUse">
<stop stop-color="white" stop-opacity="0"/>
<stop offset="1" stop-color="#C7C5C4"/>
</linearGradient>
<clipPath id="clip0_577_6842">
<rect width="56" height="33" fill="white" transform="translate(0 0.612183)"/>
</clipPath>
</defs>
</svg>
