<svg width="44" height="28" viewBox="0 0 44 28" fill="none" xmlns="http://www.w3.org/2000/svg">
<path d="M36.0308 26.3159C38.1903 25.7024 42.1297 24.0052 43.5518 22.7342C45.191 21.4059 41.8363 19.8673 41.4393 19.6379C41.0422 19.4067 21.4915 9.69171 18.0802 8.18372C14.6688 6.67573 3.78344 9.67642 1.14082 11.0774C-1.01278 12.2184 0.491417 13.0555 0.775044 13.2849C1.05867 13.5142 17.333 22.5889 23.1874 25.3679C27.6218 27.4722 31.7901 27.5219 36.0308 26.3178V26.3159Z" fill="black" fill-opacity="0.1"/>
<path fill-rule="evenodd" clip-rule="evenodd" d="M20.5977 16.1654L22.7826 15.2021C22.7963 15.1964 22.81 15.1907 22.8237 15.1849C24.1244 14.6307 25.9572 15.9341 26.9196 18.0996C27.88 20.2632 27.6062 22.4688 26.3054 23.023C26.2898 23.0288 26.2741 23.0364 26.2604 23.0421L24.1479 23.9748L23.0134 21.4806C22.7102 21.0793 22.4344 20.6186 22.2095 20.1103C22.0002 19.6401 21.8515 19.1699 21.7557 18.7131L20.5977 16.1673V16.1654Z" fill="black"/>
<path d="M24.1361 23.9762C25.4389 23.4253 25.7183 21.2252 24.7603 19.0619C23.8023 16.8987 21.9695 15.5916 20.6668 16.1425C19.364 16.6933 19.0846 18.8935 20.0426 21.0567C21.0006 23.22 22.8334 24.527 24.1361 23.9762Z" fill="black"/>
<path d="M23.6274 22.9993C24.604 22.5864 24.8131 20.9362 24.0944 19.3136C23.3758 17.6909 22.0015 16.7103 21.025 17.1232C20.0484 17.5361 19.8393 19.1863 20.5579 20.8089C21.2766 22.4316 22.6508 23.4123 23.6274 22.9993Z" fill="url(#paint0_linear_577_4708)"/>
<path fill-rule="evenodd" clip-rule="evenodd" d="M22.4364 17.7879C22.7102 17.9504 22.9782 18.1893 23.2207 18.4894L22.6496 19.4373C22.5792 19.3532 22.5009 19.2844 22.4227 19.229L22.4383 17.7879H22.4364ZM22.4031 21.018C22.5185 21.0619 22.632 21.0677 22.7317 21.0313L23.5396 22.4361C23.4985 22.461 23.4555 22.4839 23.4105 22.503C23.1014 22.6349 22.7454 22.5986 22.3875 22.4285L22.4031 21.0199V21.018ZM22.2681 22.3654L22.2818 20.9587C22.1879 20.9033 22.0941 20.823 22.0099 20.7236L21.4486 21.6544C21.7009 21.9621 21.9826 22.2049 22.2681 22.3654ZM22.3014 19.1583L22.317 17.721C21.9434 17.5299 21.5659 17.4821 21.2432 17.6216C21.1532 17.6599 21.071 17.7115 20.9967 17.7745L21.8124 19.1908C21.8417 19.1659 21.873 19.1468 21.9082 19.1315C22.0275 19.0799 22.1664 19.0952 22.3034 19.1602L22.3014 19.1583ZM20.8578 20.6873C21.0006 21.0103 21.1767 21.3027 21.3703 21.555L21.9317 20.6242C21.8672 20.5344 21.8065 20.4312 21.7576 20.3204C21.7517 20.3089 21.7478 20.2974 21.7439 20.2859L20.7913 20.5249C20.8128 20.5784 20.8344 20.6319 20.8598 20.6854L20.8578 20.6873ZM22.7259 19.5367L23.297 18.5887C23.4848 18.8372 23.653 19.122 23.7919 19.4354C23.8212 19.5004 23.8467 19.5635 23.8721 19.6285L22.9097 19.8712C22.9039 19.8597 22.8999 19.8464 22.8941 19.8349C22.8452 19.7259 22.7884 19.6266 22.7239 19.5367H22.7259ZM20.7463 20.4159C20.582 19.9687 20.4999 19.5253 20.4999 19.1258L21.6187 19.7737C21.6246 19.8999 21.652 20.0375 21.6989 20.1751L20.7463 20.4159ZM22.9528 19.9821C23.0095 20.1483 23.0349 20.3108 23.033 20.458L24.1479 21.104C24.1616 20.6873 24.0853 20.2171 23.9151 19.7412L22.9528 19.984V19.9821ZM24.142 21.2358L23.0251 20.5898C23.0017 20.7561 22.9371 20.8918 22.8354 20.974L23.6374 22.3673C23.9308 22.1322 24.101 21.727 24.142 21.2358ZM20.5038 18.992L21.6207 19.638C21.6305 19.4985 21.6657 19.3781 21.7263 19.2844L20.9048 17.8586C20.6603 18.1186 20.5233 18.5199 20.5038 18.992Z" fill="#4D4C4C"/>
<path fill-rule="evenodd" clip-rule="evenodd" d="M20.5996 16.1195L22.7826 15.1562C22.7963 15.1505 22.81 15.1448 22.8237 15.139C24.1244 14.5848 25.9572 15.8882 26.9196 18.0537C27.88 20.2173 27.6062 22.4229 26.3054 22.9771C26.2898 22.9848 26.2722 22.9905 26.2565 22.9962L24.146 23.9289L23.0095 21.429C22.7063 21.0295 22.4344 20.5689 22.2095 20.0624C22.0021 19.5942 21.8515 19.1259 21.7576 18.671L20.5977 16.1195H20.5996Z" fill="black"/>
<path d="M20.0206 21.0142C20.9811 23.1759 22.8139 24.4793 24.1146 23.9251C25.4154 23.3708 25.6912 21.1671 24.7308 19.0055C23.7704 16.8438 21.8828 15.4238 20.582 15.978C19.2813 16.5323 19.0602 18.8526 20.0206 21.0142Z" fill="black"/>
<path d="M23.5279 22.9264C24.4531 22.563 24.6755 20.9861 24.0248 19.4044C23.374 17.8227 22.0965 16.8351 21.1714 17.1985C20.2462 17.5619 20.0238 19.1387 20.6745 20.7204C21.3252 22.3021 22.6028 23.2897 23.5279 22.9264Z" fill="url(#paint1_linear_577_4708)"/>
<path fill-rule="evenodd" clip-rule="evenodd" d="M21.204 20.7618C21.6695 21.727 22.4461 22.3309 23.0661 22.2239L22.5889 21.1287C22.3326 21.1058 22.0431 20.8707 21.8417 20.5133L21.204 20.7637V20.7618ZM21.0651 20.435C20.6915 19.4449 20.7776 18.4702 21.2568 18.0707L21.7341 19.1659C21.5776 19.3857 21.558 19.7794 21.6969 20.1865L21.0651 20.435ZM22.9116 19.7125C22.6945 19.2653 22.3424 18.9767 22.049 18.99L21.5776 17.9083C22.227 17.7477 23.072 18.4071 23.5454 19.464L22.9136 19.7125H22.9116ZM23.0368 20.0451L23.6745 19.7947C24.0109 20.7771 23.8975 21.7232 23.3967 22.0844L22.9253 21.0026C23.1013 20.8134 23.1444 20.4426 23.0368 20.0451Z" fill="#474747"/>
<path fill-rule="evenodd" clip-rule="evenodd" d="M6.24414 9.59807L8.16498 9.13363C8.17672 9.13172 8.19041 9.1279 8.20214 9.12599C9.34252 8.86414 10.6335 10.1906 11.0854 12.0884C11.5372 13.9863 10.9797 15.7371 9.8374 15.9989C9.82371 16.0027 9.81001 16.0046 9.79632 16.0085L7.93808 16.4595L7.3943 14.2596C7.21043 13.8927 7.05981 13.4799 6.95419 13.0383C6.85639 12.6293 6.80748 12.228 6.7977 11.8476L6.24219 9.60189L6.24414 9.59807Z" fill="black"/>
<path d="M7.92805 16.4607C9.06994 16.2023 9.63106 14.4547 9.18134 12.5574C8.73163 10.6601 7.44138 9.33155 6.29948 9.58996C5.15759 9.84838 4.59647 11.5959 5.04618 13.4932C5.4959 15.3905 6.78615 16.7191 7.92805 16.4607Z" fill="black"/>
<path d="M7.68785 15.7016C8.54453 15.5077 8.96573 14.1976 8.62863 12.7754C8.29152 11.3532 7.32377 10.3574 6.46709 10.5513C5.6104 10.7452 5.1892 12.0553 5.5263 13.4775C5.86341 14.8997 6.83116 15.8954 7.68785 15.7016Z" fill="url(#paint2_linear_577_4708)"/>
<path d="M7.86336 15.5614C8.64947 15.3192 8.93492 14.0326 8.50092 12.6876C8.06692 11.3427 7.07782 10.4487 6.2917 10.6909C5.50559 10.9331 5.22014 12.2197 5.65414 13.5647C6.08814 14.9096 7.07724 15.8036 7.86336 15.5614Z" fill="url(#paint3_linear_577_4708)"/>
<path fill-rule="evenodd" clip-rule="evenodd" d="M6.0074 13.5373C6.27733 14.3763 6.84263 14.9669 7.36294 14.9726L7.09887 14.0208C6.89349 13.9635 6.68615 13.738 6.56292 13.4264L6.00544 13.5373H6.0074ZM5.92916 13.2449C5.73942 12.3963 5.9272 11.6241 6.36731 11.3661L6.63138 12.3198C6.47881 12.4765 6.41621 12.7881 6.48272 13.134L5.92916 13.2449ZM7.54094 12.9219C7.41575 12.53 7.15755 12.2472 6.91305 12.2166L6.65289 11.2763C7.20841 11.238 7.82848 11.8898 8.09254 12.811L7.54094 12.9219ZM7.60549 13.2162L8.16296 13.1053C8.3214 13.9425 8.1121 14.686 7.6583 14.9057L7.39815 13.9673C7.56637 13.8412 7.64656 13.5526 7.60744 13.2181L7.60549 13.2162Z" fill="url(#paint4_linear_577_4708)"/>
<path d="M40.96 19.7374C41.7738 18.4416 41.3591 15.5594 41.3434 15.3912C41.3376 15.0892 41.6642 14.4929 40.4534 12.8225C39.4363 11.8248 37.0186 10.7641 32.7407 7.99463C32.0444 7.54357 28.5157 3.93319 26.5577 2.89919C23.6099 1.34342 18.9271 0.0915417 15.9735 0.112566C15.5804 0.116388 14.3402 0.43557 14.0742 0.575092C14.0253 0.599939 13.4756 0.749017 13.2664 0.760485C12.7441 0.789154 7.32584 2.47489 5.75318 3.92936C4.88861 4.10329 4.43481 5.31312 4.29397 5.61892C4.16879 5.88841 4.08468 6.52486 4.10619 6.96063C4.10619 6.99504 4.10228 7.02944 4.0925 7.06384C4.02991 7.27217 3.94775 7.79012 3.92428 7.99654C3.77953 9.26371 3.82061 9.86002 4.05729 11.1119C4.13553 11.5228 4.90621 12.5262 4.91795 12.402C4.89252 12.1822 4.89839 11.9127 4.97663 11.5018C5.01575 11.2094 5.32285 9.96323 6.21677 9.69948C7.11068 9.43572 8.00068 10.2289 8.66378 11.3852C9.64571 13.1015 9.26624 14.0342 9.38165 14.9822C9.39143 15.0587 9.44228 15.1217 9.5127 15.1542L19.2655 19.6151C19.4201 19.6858 19.5531 19.6037 19.5511 19.4374C19.5433 19.1029 19.5316 18.9863 19.5159 18.669C19.4924 18.1607 19.3986 16.6183 20.9204 16.1213C22.2602 15.6837 23.9424 17.3445 24.7268 18.6863C25.3625 19.7718 25.607 20.9664 25.7146 22.2087C25.7224 22.2909 25.7674 22.3616 25.8418 22.3998C26.767 22.8605 31.0077 24.8845 34.3466 23.8065C41.3219 21.5551 40.7527 19.94 40.96 19.7374Z" fill="url(#paint5_linear_577_4708)"/>
<path d="M22.1742 11.6395C20.6916 11.0221 19.8759 9.04015 17.644 6.70459C17.5854 6.64342 17.6069 6.54404 17.6871 6.51346L26.5499 3.10567C26.5499 3.10567 26.5558 3.10376 26.5597 3.10376C26.6125 3.10376 27.1152 3.1783 29.9554 5.72219C31.1916 6.83073 31.7491 7.48056 32.4298 7.93735C32.5374 8.00998 31.7999 8.52793 31.399 8.84329C30.1197 9.85244 24.3689 12.5531 22.1742 11.6414V11.6395Z" fill="url(#paint6_linear_577_4708)"/>
<path d="M11.9206 4.00763C10.8898 3.67889 10.5396 3.51834 9.03542 3.50497C8.10435 3.49541 6.45931 4.31152 5.94292 4.6135C5.42848 4.91548 6.97375 5.32831 7.70923 5.73732C8.06914 5.9361 20.4881 12.1706 20.0988 11.4444C19.6196 10.5499 17.3936 7.98497 16.6366 6.93951C15.373 5.19644 12.9514 4.33637 11.9206 4.00954V4.00763Z" fill="url(#paint7_linear_577_4708)"/>
<path d="M25.9063 16.0851C22.7649 14.621 21.0103 12.8034 19.1267 11.1406C24.7718 12.8359 36.5863 16.5419 36.3966 16.775C36.1619 17.0655 35.3071 17.4019 32.4767 17.5606C29.6893 17.7173 26.2662 16.2533 25.9063 16.0851Z" fill="url(#paint8_linear_577_4708)" fill-opacity="0.21"/>
<path d="M15.195 10.204C15.195 10.1581 15.1696 10.118 15.1285 10.097L14.0722 9.58286C13.992 9.54463 13.9001 9.60006 13.8981 9.68607V9.83897C13.8962 9.88484 13.9216 9.92498 13.9627 9.946L15.019 10.4582C15.0992 10.4964 15.1911 10.441 15.193 10.355V10.204H15.195Z" fill="#333233"/>
<path d="M9.05294 7.23405C9.05294 7.18818 9.02752 7.14804 8.98644 7.12702L7.93017 6.61289C7.84998 6.57466 7.75804 6.63009 7.75609 6.7161V6.869C7.75413 6.91487 7.77956 6.955 7.82064 6.97603L8.8769 7.48825C8.9571 7.52647 9.04903 7.47105 9.05099 7.38504V7.23405H9.05294Z" fill="#333233"/>
<path d="M28.3474 10.4755L21.243 5.14502C20.4215 5.46802 18.4048 6.24782 18.0449 6.37396C17.5793 6.53833 17.6185 6.56891 17.6185 6.56891C17.5578 6.67594 17.6791 6.74475 17.9334 7.02953C18.2522 7.33915 18.3285 7.42516 19.1168 8.42857C20.2513 9.87349 21.112 11.2152 21.9472 11.5439C22.6122 11.8058 23.649 12.039 25.1355 11.5764C25.8867 11.4025 27.2539 10.917 28.3474 10.4794V10.4755Z" fill="black"/>
<path d="M33.5897 18.7206C33.8068 18.1357 33.8949 17.7993 33.8949 17.7993C33.5565 17.8223 33.4508 17.807 33.2435 17.8031C32.9931 17.7974 32.7388 17.7821 32.4767 17.7535C30.5559 17.549 28.8483 16.9909 27.9915 16.7271C27.8292 16.6774 27.704 16.8074 27.7881 16.9507C28.0385 17.3827 29.4253 19.0397 29.7109 19.1162C30.417 19.3073 32.2498 19.3455 33.3452 19.4315C33.3452 19.4315 33.443 19.1009 33.5917 18.7225L33.5897 18.7206Z" fill="#211F1F"/>
<path d="M41.4316 14.489C41.1362 13.8316 40.567 12.9256 40.7333 13.3939C40.7411 13.4168 40.7469 13.4417 40.7509 13.4665C40.8135 14.0838 40.7685 14.3075 40.3518 14.7948C40.4301 15.2803 40.5161 15.6683 40.5807 15.8651L41.3005 15.6052C41.3435 15.3911 41.3611 15.2535 41.367 15.2058C41.3924 14.9898 41.4316 14.489 41.4316 14.489Z" fill="#211F1F"/>
<path d="M33.2277 17.8127C33.2277 17.8127 36.6977 18.0841 40.3751 14.7681L40.6978 15.0299C40.6978 15.0299 38.2606 18.0707 33.4644 18.6632C33.2081 18.6957 33.2277 17.8108 33.2277 17.8108V17.8127Z" fill="#211F1F"/>
<path d="M14.704 2.98902L16.7755 3.90643C16.8068 3.91981 16.842 3.92172 16.8753 3.91025L21.0925 2.35639C21.202 2.31626 21.2059 2.16527 21.0964 2.1194L19.1423 1.32049C19.113 1.30902 19.0797 1.30711 19.0504 1.31667L14.7138 2.75203C14.6023 2.78834 14.5945 2.94124 14.7021 2.98902H14.704Z" fill="white"/>
<path d="M20.3003 15.7218L9.05107 10.9666C9.91369 11.9681 9.98019 13.8029 9.94694 14.4126L19.0191 18.5887C18.6963 16.8322 19.8778 15.8862 20.2983 15.7199L20.3003 15.7218Z" fill="url(#paint9_linear_577_4708)"/>
<path d="M12.9319 13.6674L10.1523 12.2874C10.0897 12.2511 10.0486 12.1728 10.0486 12.0848V10.2099C10.0486 10.0474 10.1836 9.9404 10.3029 10.0073L13.0825 11.3872C13.1451 11.4235 13.1861 11.5019 13.1861 11.5898V13.4648C13.1861 13.6272 13.0512 13.7343 12.9319 13.6674Z" fill="white"/>
<path d="M17.4993 13.3899L15.5257 12.4056C15.3164 12.3005 15.1462 12.3979 15.1462 12.6235V14.7431C15.1462 14.9686 15.3203 15.2304 15.5335 15.3298L17.5443 16.2472C17.7575 16.3447 17.9277 16.2472 17.9238 16.0274L17.8866 13.9747C17.8827 13.7569 17.7086 13.495 17.4993 13.3918V13.3899Z" fill="url(#paint10_linear_577_4708)"/>
<path d="M17.5442 16.2684L15.5334 15.351C15.3085 15.2478 15.1246 14.9687 15.1246 14.7317V12.6121C15.1246 12.3732 15.3045 12.2719 15.5256 12.3828L17.4992 13.3671C17.7203 13.476 17.9041 13.7531 17.908 13.9844L17.9452 16.0371C17.9491 16.2684 17.7692 16.3716 17.5442 16.2703V16.2684ZM15.5256 12.4286C15.328 12.3292 15.1676 12.421 15.1676 12.6331V14.7527C15.1676 14.9649 15.3319 15.2133 15.5334 15.3051L17.5423 16.2225C17.7437 16.3142 17.9041 16.2225 17.9002 16.0161L17.8631 13.9634C17.8591 13.757 17.6948 13.5104 17.4973 13.4129L15.5236 12.4286H15.5256Z" fill="#C6D21D"/>
<path d="M15.8503 14.6457L15.817 14.6304L15.7427 14.8884L15.7759 14.9056L15.8503 14.6457Z" fill="#C6D21D"/>
<path d="M15.905 14.6704L15.8835 14.6609L15.8092 14.9208L15.8307 14.9304L15.905 14.6704Z" fill="#C6D21D"/>
<path d="M15.9442 14.6896L15.9305 14.6838L15.8561 14.9419L15.8679 14.9476L15.9442 14.6896Z" fill="#C6D21D"/>
<path d="M15.5784 14.5176L15.461 14.4622L15.3847 14.7221L15.5021 14.7775L15.5784 14.5176Z" fill="#C6D21D"/>
<path d="M15.6957 14.573L15.6214 14.5386L15.5471 14.7985L15.6214 14.8329L15.6957 14.573Z" fill="#C6D21D"/>
<path d="M15.7857 14.6151L15.729 14.5884L15.6527 14.8483L15.7094 14.8732L15.7857 14.6151Z" fill="#C6D21D"/>
<path d="M17.2957 15.2498L17.3857 15.2918L17.46 15.0357L17.37 14.9937L17.2957 15.2498Z" fill="#C6D21D"/>
<path d="M17.4151 15.305L17.552 15.3681L17.6244 15.1139L17.4894 15.0508L17.4151 15.305Z" fill="#C6D21D"/>
<path d="M17.2078 15.2076L17.2665 15.2343L17.3408 14.9801L17.2841 14.9534L17.2078 15.2076Z" fill="#C6D21D"/>
<path d="M17.1373 15.1751L17.1804 15.1961L17.2547 14.94L17.2117 14.9189L17.1373 15.1751Z" fill="#C6D21D"/>
<path d="M17.0825 15.1502L17.1099 15.1616L17.1842 14.9055L17.1568 14.894L17.0825 15.1502Z" fill="#C6D21D"/>
<path d="M17.0414 15.1292L17.0571 15.1368L17.1314 14.8807L17.1158 14.873L17.0414 15.1292Z" fill="#C6D21D"/>
<path d="M17.55 15.4409L17.5343 15.5001L17.37 15.4237C17.3524 15.4141 17.3485 15.4294 17.3485 15.4352C17.3485 15.4466 17.3563 15.46 17.3681 15.4638L17.4561 15.5059C17.4933 15.5231 17.5187 15.5537 17.5128 15.5728L17.4874 15.6645C17.4776 15.6855 17.4541 15.6855 17.4268 15.6722L16.9886 15.4696C16.971 15.4619 16.9573 15.4352 16.9632 15.4122L17.0238 15.1943L17.2566 15.3033L17.2409 15.3625L17.0884 15.2918L17.0786 15.3281L17.2233 15.395L17.2057 15.4543L17.061 15.3874L17.0531 15.416C17.0531 15.416 17.0531 15.4237 17.0629 15.4294L17.3994 15.5842C17.4131 15.59 17.4209 15.5842 17.4209 15.5709C17.4209 15.5709 17.4209 15.5517 17.4013 15.5422L17.284 15.4887C17.2585 15.4772 17.2488 15.4581 17.2527 15.4428L17.282 15.3377C17.2898 15.3128 17.3094 15.3243 17.3231 15.33L17.5519 15.4371L17.55 15.4409Z" fill="white"/>
<path d="M16.9593 15.1655C16.9887 15.1808 16.9848 15.2018 16.9769 15.2286L16.9535 15.3108C16.9476 15.3261 16.9398 15.3337 16.9144 15.3203L16.885 15.307L16.9378 15.4465L16.8596 15.4102L16.8029 15.2687L16.8185 15.2095L16.8811 15.2382C16.9007 15.2477 16.9007 15.2458 16.9026 15.2382V15.2305C16.9104 15.2133 16.9026 15.2095 16.885 15.2018L16.7696 15.1483L16.7129 15.3452L16.617 15.3012L16.6894 15.0432L16.8831 15.133L16.9554 15.1674L16.9593 15.1655Z" fill="white"/>
<path d="M16.5897 15.1349C16.621 15.1464 16.6249 15.1636 16.6229 15.177L16.5975 15.2649C16.5916 15.284 16.5779 15.2745 16.531 15.2553L16.4175 15.2018L16.4351 15.1369L16.5114 15.1713C16.529 15.1808 16.5427 15.1426 16.5212 15.133L16.4469 15.0986L16.4645 15.0394L16.5408 15.0757C16.5701 15.0891 16.5681 15.047 16.5408 15.0336L16.4332 14.9839L16.3764 15.1827L16.2962 15.1445L16.3706 14.8865L16.574 14.982C16.6249 15.005 16.6425 15.0356 16.6366 15.0604L16.6229 15.1101C16.6151 15.1349 16.6053 15.1368 16.5897 15.133V15.1349Z" fill="white"/>
<path d="M16.3315 14.8711L16.2572 15.1292L16.1731 15.089L16.2474 14.8291L16.3315 14.8692V14.8711Z" fill="white"/>
<path d="M16.1632 15.0146L16.1456 15.0796L15.9657 14.9955C15.9226 14.9764 15.9148 14.963 15.9305 14.9114L15.9872 14.7107L16.0752 14.7527L16.0498 14.8407L16.0283 14.9209C16.0204 14.942 16.0322 14.9534 16.0654 14.9687L16.1632 15.0146Z" fill="white"/>
<path fill-rule="evenodd" clip-rule="evenodd" d="M16.6306 14.6457L16.5563 14.9037L16.6795 14.961L16.7539 14.703L16.6326 14.6457H16.6306ZM16.4057 14.6075L16.4937 14.5807L16.6091 14.6361L16.435 14.6877L16.5113 14.8827L16.3705 14.8158L16.3333 14.7183L16.2297 14.7508L16.1143 14.6973L16.304 14.6399L16.2316 14.4584L16.3724 14.5253L16.4057 14.6094V14.6075ZM15.5548 14.1335L15.5353 14.2004L15.6174 14.2386L15.5607 14.4316L15.6741 14.4851L15.7309 14.2902L15.8208 14.3322L15.8404 14.2653L15.5568 14.1296L15.5548 14.1335ZM15.9539 14.3227L16.079 14.3819L16.0966 14.6858L15.9715 14.6266V14.575L15.86 14.5214L15.8189 14.5539L15.725 14.51L15.9539 14.3227ZM15.9695 14.5081V14.4221L15.903 14.4756L15.9695 14.5081ZM16.8243 14.7355L17.0708 14.8521C17.0805 14.8578 17.0864 14.8617 17.0825 14.8712L17.0708 14.9133C17.0708 14.9133 17.0629 14.9228 17.0532 14.9171L16.8967 14.8445C16.8849 14.8387 16.8771 14.8445 16.8771 14.8521C16.8771 14.8597 16.883 14.8712 16.8928 14.8769L17.0101 14.9324C17.0375 14.9438 17.061 14.963 17.0512 14.9878L17.0199 15.0967C17.016 15.1082 17.0121 15.1159 17.0003 15.1101L16.7284 14.9821C16.7284 14.9821 16.7187 14.9744 16.7206 14.9687L16.7363 14.9228C16.7363 14.9228 16.7441 14.919 16.75 14.9209L16.9162 14.9993C16.9162 14.9993 16.9338 15.0031 16.9338 14.9897C16.9338 14.9782 16.928 14.9687 16.9182 14.9649L16.8008 14.9094C16.7891 14.9037 16.7813 14.898 16.7754 14.8884C16.7695 14.8789 16.7676 14.8674 16.7754 14.854L16.8086 14.7412C16.8086 14.7412 16.8204 14.7336 16.8321 14.7412L16.8243 14.7355Z" fill="white"/>
<path fill-rule="evenodd" clip-rule="evenodd" d="M16.1279 13.1816L16.0673 13.3976L16.3313 13.5276L16.1494 14.1545L16.5172 14.3322L16.6971 13.7053L16.9886 13.8487L17.0492 13.6346L16.1279 13.1816Z" fill="#C6D21D"/>
<path style="mix-blend-mode:multiply" opacity="0.5" d="M16.3607 13.4301C16.6502 13.5467 17.0023 13.5525 17.0805 13.4263C17.0003 13.0039 16.6619 12.5624 16.2727 12.4C15.8952 12.2432 15.5998 12.4344 15.5939 12.8281C15.7269 13.0479 16.0732 13.3135 16.3607 13.4301Z" fill="url(#paint11_linear_577_4708)"/>
<path style="mix-blend-mode:multiply" opacity="0.5" d="M16.4859 13.6766C16.392 13.9175 16.3959 14.3284 16.5093 14.5272C16.879 14.7871 17.2546 14.7546 17.3798 14.4316C17.5011 14.1181 17.3231 13.6155 16.9847 13.281C16.8008 13.2523 16.5798 13.4377 16.4859 13.6766Z" fill="url(#paint12_linear_577_4708)"/>
<path style="mix-blend-mode:multiply" opacity="0.5" d="M15.6351 13.2888C15.7739 13.6634 16.083 14.1335 16.2786 14.2501C16.6287 14.1832 16.7618 13.7761 16.5701 13.2735C16.3862 12.7823 15.9383 12.3656 15.549 12.3159C15.4512 12.4726 15.4962 12.9141 15.6331 13.2888H15.6351Z" fill="url(#paint13_linear_577_4708)"/>
<defs>
<linearGradient id="paint0_linear_577_4708" x1="24.208" y1="24.2985" x2="22.7099" y2="21.3419" gradientUnits="userSpaceOnUse">
<stop stop-color="#3F3F3F"/>
<stop offset="1" stop-color="#5D5D5D"/>
</linearGradient>
<linearGradient id="paint1_linear_577_4708" x1="19.8757" y1="26.5242" x2="18.6918" y2="20.7848" gradientUnits="userSpaceOnUse">
<stop stop-color="#3F3F3F"/>
<stop offset="1" stop-color="#777676"/>
</linearGradient>
<linearGradient id="paint2_linear_577_4708" x1="7.98229" y1="16.8641" x2="7.19968" y2="14.2496" gradientUnits="userSpaceOnUse">
<stop stop-color="#3F3F3F"/>
<stop offset="1" stop-color="#5D5D5D"/>
</linearGradient>
<linearGradient id="paint3_linear_577_4708" x1="8.96281" y1="16.9198" x2="8.62583" y2="12.0898" gradientUnits="userSpaceOnUse">
<stop stop-color="#3F3F3F"/>
<stop offset="1" stop-color="#777676"/>
</linearGradient>
<linearGradient id="paint4_linear_577_4708" x1="6.6881" y1="14.0266" x2="7.85252" y2="10.8666" gradientUnits="userSpaceOnUse">
<stop stop-color="#3F3F3F"/>
<stop offset="1" stop-color="#777676"/>
</linearGradient>
<linearGradient id="paint5_linear_577_4708" x1="18.7667" y1="17.7574" x2="30.9719" y2="0.982768" gradientUnits="userSpaceOnUse">
<stop stop-color="#C0D120"/>
<stop offset="0.63" stop-color="#AEBD14"/>
<stop offset="1" stop-color="#C0D120"/>
</linearGradient>
<linearGradient id="paint6_linear_577_4708" x1="34.9042" y1="-2.51154" x2="25.0328" y2="7.74165" gradientUnits="userSpaceOnUse">
<stop stop-color="#E8EAE9"/>
<stop offset="0.5" stop-color="#707072"/>
<stop offset="1" stop-color="#303133"/>
</linearGradient>
<linearGradient id="paint7_linear_577_4708" x1="17.2997" y1="-2.27661" x2="13.7829" y2="6.55875" gradientUnits="userSpaceOnUse">
<stop stop-color="#E8EAE9"/>
<stop offset="0.5" stop-color="#707072"/>
<stop offset="1" stop-color="#303133"/>
</linearGradient>
<linearGradient id="paint8_linear_577_4708" x1="26.4286" y1="17.6408" x2="27.7781" y2="13.7337" gradientUnits="userSpaceOnUse">
<stop stop-color="#ECEAEA"/>
<stop offset="1" stop-color="white" stop-opacity="0"/>
</linearGradient>
<linearGradient id="paint9_linear_577_4708" x1="15.639" y1="11.6336" x2="12.2809" y2="18.5304" gradientUnits="userSpaceOnUse">
<stop stop-color="#C0D120" stop-opacity="0.66"/>
<stop offset="1" stop-color="#9AA821"/>
</linearGradient>
<linearGradient id="paint10_linear_577_4708" x1="16.535" y1="16.2377" x2="16.535" y2="11.815" gradientUnits="userSpaceOnUse">
<stop stop-color="#232322"/>
<stop offset="1" stop-color="#343433"/>
</linearGradient>
<linearGradient id="paint11_linear_577_4708" x1="16.2913" y1="12.4988" x2="16.3806" y2="13.5388" gradientUnits="userSpaceOnUse">
<stop stop-color="white" stop-opacity="0"/>
<stop offset="1" stop-color="#C8C7C6"/>
</linearGradient>
<linearGradient id="paint12_linear_577_4708" x1="17.3353" y1="14.2568" x2="16.4634" y2="13.9484" gradientUnits="userSpaceOnUse">
<stop stop-color="white" stop-opacity="0"/>
<stop offset="1" stop-color="#C8C7C6"/>
</linearGradient>
<linearGradient id="paint13_linear_577_4708" x1="16.366" y1="13.1101" x2="15.7132" y2="13.4329" gradientUnits="userSpaceOnUse">
<stop stop-color="white" stop-opacity="0"/>
<stop offset="1" stop-color="#C8C7C6"/>
</linearGradient>
</defs>
</svg>
