<svg width="22" height="27" viewBox="0 0 22 27" fill="none" xmlns="http://www.w3.org/2000/svg">
<path d="M18.9541 10.4506V10.7117C18.9541 13.7656 16.3141 17.8115 10.8309 22.6404C5.34777 17.8115 2.70773 13.7787 2.70773 10.7117C2.70773 5.97411 6.29548 2.61998 10.8309 2.61998C11.2913 2.61998 11.7516 2.65914 12.1848 2.72439V0.0880721C11.738 0.0358677 11.2913 0.00976562 10.8309 0.00976562C5.14469 0.00976562 0 4.21222 0 10.7117C0 15.0446 3.61482 20.1737 10.8309 26.112C18.047 20.1737 21.6619 15.0446 21.6619 10.7117V10.4506H18.9541Z" fill="#1B1F3B"/>
<path d="M10.8311 13.0608C12.3265 13.0608 13.5388 11.8921 13.5388 10.4506C13.5388 9.00897 12.3265 7.84033 10.8311 7.84033C9.33565 7.84033 8.12335 9.00897 8.12335 10.4506C8.12335 11.8921 9.33565 13.0608 10.8311 13.0608Z" fill="#1B1F3B"/>
</svg>
