<svg width="37" height="23" viewBox="0 0 37 23" fill="none" xmlns="http://www.w3.org/2000/svg">
<path d="M31.4284 11.8949C31.4284 8.17385 33.923 5.15769 37 5.15769V0H11.1697C11.1735 0.414419 11.0772 0.823491 10.8891 1.19154C10.701 1.55959 10.4268 1.87545 10.0905 2.11152C9.7344 2.37664 9.44695 2.72517 9.25279 3.12731C9.05863 3.52946 8.96352 3.97324 8.9756 4.42072C8.94931 4.96364 9.09015 5.50144 9.37866 5.95979C9.66717 6.41813 10.0891 6.77438 10.5861 6.97937C10.7613 7.04223 10.9122 7.1598 11.0171 7.31514C11.1219 7.47048 11.1754 7.65557 11.1697 7.84366V8.07343C11.1752 8.26149 11.1217 8.44649 11.0168 8.60179C10.912 8.7571 10.7612 8.8747 10.5861 8.93769C10.0891 9.14268 9.66717 9.49896 9.37866 9.9573C9.09015 10.4156 8.94931 10.9534 8.9756 11.4964C8.94931 12.0393 9.09015 12.5771 9.37866 13.0354C9.66717 13.4938 10.0891 13.85 10.5861 14.055C10.7611 14.1178 10.9119 14.2352 11.0167 14.3904C11.1216 14.5455 11.1752 14.7303 11.1697 14.9183V15.1491C11.175 15.337 11.1214 15.5217 11.0165 15.6768C10.9117 15.8319 10.761 15.9494 10.5861 16.0123C10.0891 16.2173 9.66717 16.5736 9.37866 17.0319C9.09015 17.4903 8.94931 18.0281 8.9756 18.571C8.96352 19.0185 9.05863 19.4623 9.25279 19.8644C9.44695 20.2666 9.7344 20.6151 10.0905 20.8802C10.4268 21.1163 10.701 21.4321 10.8891 21.8002C11.0772 22.1682 11.1735 22.5773 11.1697 22.9917H37V18.631C33.926 18.631 31.4284 15.6159 31.4284 11.8949Z" fill="#6D80C5"/>
<path d="M0 0V5.16287C2.69279 5.16287 4.87563 7.80224 4.87563 11.0627C4.87563 14.3231 2.69279 16.9625 0 16.9625V23H11.1717V0H0Z" fill="#303863"/>
<path d="M25.8988 12.344H15.9442V13.3521H25.8988V12.344Z" fill="#CADC31"/>
<path d="M28.8849 6.87891H15.9442V7.88705H28.8849V6.87891Z" fill="#303863"/>
<path d="M9.97096 2.68481H5.98952V3.69296H9.97096V2.68481Z" fill="#6D80C5"/>
<path d="M9.97096 10.5225H5.98952V11.5306H9.97096V10.5225Z" fill="#6D80C5"/>
<path d="M9.97096 17.8091H5.98952V18.8172H9.97096V17.8091Z" fill="#6D80C5"/>
<path d="M19.4279 16.594H15.9442V17.6021H19.4279V16.594Z" fill="#CADC31"/>
<path d="M25.4011 16.594H21.9173V17.6021H25.4011V16.594Z" fill="#CADC31"/>
</svg>
