<svg width="28" height="20" viewBox="0 0 28 20" fill="none" xmlns="http://www.w3.org/2000/svg">
<path d="M22.6864 10.5117C20.2188 8.03169 16.8766 6.66669 13.2756 6.66669C9.67459 6.66669 6.33245 8.03169 3.86484 10.5117L6.21131 12.8684C8.0533 11.0184 10.5607 9.99835 13.2756 9.99835C15.9905 10 18.4979 11.0184 20.3399 12.8684L22.6864 10.5117Z" fill="#1B1F3B"/>
<path d="M28 5.71625C20.413 -1.90542 7.58703 -1.90542 0 5.71625L2.34647 8.07292C8.66402 1.72792 19.336 1.72792 25.6535 8.07292L28 5.71625Z" fill="#1B1F3B"/>
<path d="M13.2757 20C15.1086 20 16.5946 18.5076 16.5946 16.6666C16.5946 14.8257 15.1086 13.3333 13.2757 13.3333C11.4427 13.3333 9.95674 14.8257 9.95674 16.6666C9.95674 18.5076 11.4427 20 13.2757 20Z" fill="#1B1F3B"/>
</svg>
